<svg xmlns="http://www.w3.org/2000/svg" width="19" height="22" fill="none"><path fill="#E2E2E2" stroke="#092028" stroke-linejoin="round" stroke-width="2" d="M16.963 10.335c.227 1.304.473 2.804.649 4.11.15 1.12.19 2.357.177 3.477-.017 1.44-1.148 2.619-2.658 2.75-2.008.175-4.509.345-6.44.327-1.372-.013-3.074-.128-4.612-.26-1.687-.144-2.949-1.626-2.854-3.362.099-1.802.197-3.684.197-4.113 0-.003 0-.03.007-.09.006-.06.016-.139.03-.235.027-.192.068-.436.119-.718.102-.564.24-1.256.383-1.948A3.135 3.135 0 0 1 4.88 7.774c1.612-.08 3.531-.154 5.038-.148 1.33.006 2.837.065 4.145.132a3.103 3.103 0 0 1 2.901 2.577Z"/><circle cx="9.731" cy="13.415" r="2.135" fill="#092028" transform="rotate(133.546 9.731 13.415)"/><path fill="#092028" d="M9.605 17.747c1.507.353 1.343-1.824 1.072-2.957l.352-.246c-.931-.082-2.447-.963-2.361-.392.14.945-.946 3.153.937 3.595Z"/><path stroke="#092028" stroke-width="2" d="M5.551 7.907c-.854-2.42-1.367-6.15 3.417-6.833 5.979-.854 5.124 5.979 4.697 6.833"/></svg>