<svg id="Слой_1" data-name="Слой 1" xmlns="http://www.w3.org/2000/svg" viewBox="0 0 256 256"><title>1</title><path d="M108.13,234.21c-19.78-1-38.13-6.4-54.14-18.34-15.06-11.23-23.37-26.55-26-45.12a108.32,108.32,0,0,1-1.51-18.5C26.62,145.66,30,141.94,36,142c5.84.05,9.3,3.76,9.3,10.13a88.13,88.13,0,0,0,4.53,27.56c3.2,9.86,10,16.72,18.18,22.62,10.37,7.48,22.33,10.53,34.56,12.72,6.54,1.16,13.16-.29,19.71-.82,18.54-1.51,33.71-11.11,48.48-21.18,9.91-6.77,17.43-16.15,24.49-25.8,2-2.68,4.3-4.68,7.57-5.31,4.28-.83,7.42,1.12,9.7,4.55s1.73,7-.57,10.29c-2.12,3-4.23,6-6.62,8.79-8.61,10-17.43,19.89-28.86,26.8-13.76,8.33-27.57,16.81-43.76,19.64A136.16,136.16,0,0,1,108.13,234.21Z"/><path d="M142.44,115.36C142.31,99.18,147.7,88.68,155,79c5.13-6.8,11-13,18.63-17.12,12-6.43,24.37-8.22,37.11-2.33,10.15,4.68,18.94,21.05,16.71,33.18A109.55,109.55,0,0,1,219,120.19c-4.54,9.52-11.49,17.57-21.51,22.24-6,2.78-11.88,5.65-18.78,5.45C158.82,147.3,142.15,134.19,142.44,115.36Zm65.9-26.68c-.19-2.35-.23-4.51-1.44-6.67-4.21-7.56-11.51-8.71-19.88-5.17-14,5.93-22.44,17.47-25.33,32-2.51,12.61,5.74,19.85,17.79,19.86,6.42,0,12.25-4,16.78-8.78C204.48,111.17,206,99.74,208.34,88.68Z"/><path d="M55.72,112.81c-7.67-.46-14.8-3.17-21.83-5.93-4-1.57-5.5-6.74-4-11.16a9.13,9.13,0,0,1,10.41-6.26,30.84,30.84,0,0,1,5.85,1.59c14.75,5.83,27.89,1.37,39.21-7.74,16.89-13.59,28.07-31.71,36.53-51.49,3.3-7.73,9.31-10.25,15.45-5.89,3.26,2.32,4.44,7.1,2.64,12a120.92,120.92,0,0,1-14.31,27.09c-6.9,10-13.62,20.12-22.66,28.43-11.5,10.58-24.51,17.78-40.5,18.54C60.25,112.14,58.07,113.1,55.72,112.81Z"/></svg>