<svg version="1.1" id="_1" xmlns="http://www.w3.org/2000/svg" x="0" y="0" viewBox="0 0 150.3 209.7" style="enable-background:new 0 0 150.3 209.7" xml:space="preserve"><style>.st0{fill:#e5e5e5}.st2{fill:#e2e2e2}.st5{fill:#fff}</style><path class="st0" d="M141.6 2.7c1.2 1.2 2.6 1.2 4.3.5-.8 1.7-.7 3 .4 4.2.9.9 2.2 1.3 3.4.9V1.9c-1-.2-2.1 0-3 .5.3-.5.4-1.1.5-1.7h-6.6c.1.7.4 1.5 1 2zM3.7 12.5l.2-.2c.8-1.2 1-2.8.4-4.2 1.7.6 3.1.5 4.2-.7s1-2.6.4-4.2c1.6.8 3 .7 4.2-.5.6-.5 1-1.3 1-2.1H7.4c.1.7.3 1.2.6 1.8-1-.6-2.1-.8-3.1-.5v-.4c.1-.3.1-.6.1-.9H.6v3.6c.6-.2 1.3 0 2.1-.2-.2.9-.1 1.9.1 2.8-.6-.6-1.7.1-2.2-.3v6.8c1.1 0 2.2-.2 3.1-.8zM149.7 1V.6h-.1c0 .2.1.3.1.4zM4.4 19.5c.1-.9-.3-1.7-.9-2.4-.7-.8-1.8-1.1-2.9-.9v6.2h.2c1.7.2 3.3-1 3.5-2.7.1 0 .1-.1.1-.2z"/><path class="st0" d="M13.9 9.8c0 1.7-1.3 3.1-3 3.2-1.7 0-3.1-1.3-3.2-3s1.3-3.1 3-3.2c1.7 0 3.1 1.3 3.2 3zM3.7 12.5l.2-.2c1.3-1.2 3.3-1.1 4.5.2.3.5.6 1.1.7 1.7.2 1.7-1 3.3-2.7 3.5s-3.3-1-3.5-2.7c-.1-.6 0-1.3.3-1.9.2-.2.3-.4.5-.6z"/><path class="st0" d="M18.6 5.1c.1 1.7-1.2 3.2-2.9 3.3-1.7.1-3.2-1.2-3.3-2.9v-.4c.1-1.7 1.6-3 3.3-2.9 1.6.1 2.8 1.3 2.9 2.9zM140.9 9.9c0-1.7 1.3-3.1 3-3.1s3.1 1.3 3.1 3-1.3 3.1-3 3.1h-.1c-1.7 0-3-1.3-3-3zM139 8.2c-1.7-.1-3-1.6-2.9-3.3.1-1.7 1.6-3 3.3-2.8 1.7.1 3 1.6 2.8 3.3-.1 1.6-1.5 2.9-3.2 2.8zM8.9 24.1c0 1.6-1.2 2.9-2.8 2.9H6c-1.6 0-2.9-1.3-2.9-2.9 0-1.6 1.3-2.9 2.9-2.9 1.6-.1 2.9 1.1 3 2.7-.1.1-.1.1-.1.2zM13.6 19.4c0 1.6-1.3 2.8-2.9 2.8-1.6 0-2.8-1.3-2.8-2.9 0-1.6 1.3-2.8 2.8-2.8 1.6.1 2.9 1.4 2.9 2.9zM8.8 33.7c0 1.6-1.3 2.8-2.9 2.8-1.6 0-2.8-1.3-2.8-2.9s1.3-2.8 2.9-2.8c1.6.1 2.8 1.3 2.8 2.9zM27.8 5.2c-.1 1.6-1.5 2.7-3 2.6-1.4-.1-2.6-1.3-2.6-2.7.1-1.6 1.5-2.7 3-2.6 1.5.1 2.6 1.3 2.6 2.7zM15.5 11.8c1.6 0 2.8 1.3 2.8 2.8 0 1.6-1.3 2.8-2.8 2.8-1.5 0-2.8-1.3-2.8-2.8 0-1.5 1.3-2.7 2.8-2.8zM23.1 9.9c0 1.5-1.3 2.8-2.8 2.8-1.5 0-2.8-1.3-2.8-2.8s1.3-2.8 2.8-2.8c1.5 0 2.8 1.2 2.8 2.8zM129.6 7.9c-1.5 0-2.7-1.3-2.7-2.9 0-1.5 1.2-2.8 2.8-2.8 1.5 0 2.8 1.2 2.8 2.8v.2c-.2 1.5-1.4 2.7-2.9 2.7zM146.7 19.4c0 1.5-1.3 2.8-2.8 2.8-1.5 0-2.8-1.3-2.8-2.8 0-1.5 1.3-2.8 2.8-2.8 1.6.1 2.8 1.3 2.8 2.8zM137.2 9.9c0 1.5-1.2 2.7-2.8 2.7-1.5 0-2.7-1.2-2.7-2.8s1.2-2.7 2.8-2.7h.1c1.4.1 2.5 1.3 2.6 2.8zM141.9 14.8c-.1 1.5-1.4 2.7-2.9 2.6s-2.7-1.4-2.6-2.9c.1-1.5 1.4-2.7 2.9-2.6 1.6.1 2.7 1.4 2.6 2.9zM13.4 28.9c0 1.5-1.2 2.6-2.6 2.7-1.5 0-2.6-1.2-2.7-2.6 0-1.5 1.2-2.6 2.6-2.7 1.5-.1 2.7 1.1 2.7 2.6zM143.9 31.5c-1.4 0-2.6-1.2-2.6-2.6 0-1.4 1.2-2.6 2.6-2.6 1.4 0 2.6 1.1 2.6 2.6.1 1.4-1.1 2.6-2.6 2.6.1 0 0 0 0 0zM10.7 35.8c1.4 0 2.6 1.1 2.6 2.6 0 1.4-1.1 2.6-2.6 2.6-1.4 0-2.6-1.1-2.6-2.5.1-1.5 1.2-2.6 2.6-2.7zM18.1 24.1c0 1.4-1.1 2.6-2.5 2.6S13 25.6 13 24.2s1.1-2.6 2.5-2.6 2.5 1.1 2.6 2.5zM146.4 38.4c0 1.4-1.1 2.5-2.5 2.5s-2.5-1.1-2.5-2.5 1.1-2.5 2.5-2.5 2.5 1.1 2.5 2.5zM146.4 47.9c0 1.3-1.1 2.4-2.4 2.4-1.3 0-2.4-1.1-2.4-2.4 0-1.3 1.1-2.4 2.4-2.4h.1c1.2 0 2.3 1.1 2.3 2.4zM20.2 21.9c-1.4 0-2.4-1.2-2.4-2.5S19 17 20.3 17s2.4 1.1 2.4 2.5c0 1.3-1.1 2.4-2.4 2.4h-.1zM120.2 2.7c1.3 0 2.4 1 2.4 2.3v.1c0 1.3-1.1 2.4-2.4 2.4-1.3 0-2.4-1.1-2.4-2.4 0-1.3 1-2.4 2.3-2.4h.1zM37 5.1c0 1.3-1 2.5-2.4 2.5-1.3 0-2.5-1-2.5-2.4s1-2.5 2.4-2.5 2.5 1 2.5 2.4zM32.2 9.9c0 1.3-1.1 2.4-2.5 2.4-1.3 0-2.4-1.1-2.4-2.5 0-1.3 1.1-2.4 2.5-2.4 1.4.1 2.4 1.2 2.4 2.5zM27.5 14.6c0 1.3-1.1 2.4-2.4 2.4-1.3 0-2.4-1.1-2.4-2.4 0-1.3 1.1-2.4 2.4-2.4h.1c1.2 0 2.3 1.1 2.3 2.4zM139.2 21.7c1.4 0 2.5 1.1 2.4 2.5 0 1.4-1.1 2.5-2.5 2.4-1.4 0-2.5-1.1-2.4-2.5 0-1.3 1.1-2.4 2.5-2.4zM136.8 19.3c0 1.3-1 2.4-2.3 2.4s-2.4-1-2.4-2.3c0-1.3 1-2.4 2.3-2.4 1.2-.1 2.3 1 2.4 2.3zM127.3 9.8c0 1.3-1 2.4-2.3 2.4-1.3 0-2.4-1-2.4-2.3s1-2.4 2.3-2.4h.1c1.2 0 2.3 1 2.3 2.3zM129.7 17c-1.3 0-2.4-1-2.4-2.3s1-2.4 2.3-2.4c1.3 0 2.4 1 2.4 2.3v.1c0 1.2-1 2.3-2.3 2.3zM15.6 36c-1.3 0-2.4-1-2.4-2.3 0-1.3 1-2.4 2.3-2.4s2.4 1 2.4 2.3v.1c0 1.2-1.1 2.3-2.3 2.3zM141.5 33.7c0 1.3-1.1 2.3-2.4 2.3s-2.3-1.1-2.3-2.4c0-1.3 1.1-2.3 2.4-2.3 1.3.1 2.3 1.1 2.3 2.4zM139.2 40.9c1.2 0 2.2 1 2.2 2.3 0 1.2-1 2.2-2.3 2.2-1.2 0-2.2-1-2.2-2.3 0-1.2 1-2.2 2.3-2.2zM20.3 26.7c1.2 0 2.2 1 2.2 2.3 0 1.2-1 2.2-2.3 2.2-1.2 0-2.2-1-2.2-2.3v-.1c.1-1.2 1.1-2.1 2.3-2.1zM139.1 54.9c-1.2 0-2.2-1-2.1-2.2 0-1.2 1-2.2 2.2-2.1 1.2 0 2.2 1 2.1 2.2 0 1.1-.9 2.1-2.2 2.1.1 0 0 0 0 0zM136.6 28.9c0 1.2-1 2.2-2.2 2.1-1.2 0-2.2-1-2.1-2.2 0-1.2 1-2.1 2.1-2.1 1.2 0 2.1 1 2.2 2.2zM46.2 5.1c0 1.2-1 2.1-2.1 2.1S42 6.2 42 5.1 42.9 3 44 3s2.2.9 2.2 2.1zM27.2 24.2c0 1.2-1 2.1-2.2 2.1-1.2 0-2.1-1-2.1-2.2 0-1.2 1-2.1 2.2-2.1 1.1 0 2.1 1 2.1 2.2zM39.2 12c-1.1-.1-2-1-2-2.2.1-1.2 1.1-2 2.3-1.9 1 .1 1.9.9 1.9 2 0 1.2-1 2.1-2.2 2.1zM29.8 17.3c1.2 0 2.1.9 2.1 2.1 0 1.2-.9 2.1-2.1 2.1-1.2 0-2.1-.9-2.1-2.1 0-1.1.9-2.1 2.1-2.1zM36.6 14.6c0 1.1-.9 2.1-2.1 2.1s-2.1-.9-2.1-2.1c0-1.1.9-2.1 2.1-2.1h.1c1.1.1 2 1 2 2.1zM112.7 5.1c0 1.1-1 2-2.1 2s-2-1-2-2.1 1-2 2.1-2c1.1.1 2 1 2 2.1zM20.3 36.4c1.1 0 2 .9 2 2s-.9 2-2 2-2-.9-2-2 .9-2 2-2zM134.4 40.4c-1.1 0-2-1-1.9-2.1s1-2 2.1-1.9c1.1 0 1.9.9 1.9 2-.1 1.1-1 2-2.1 2zM129.6 22.1c1.1 0 2 .9 2 2s-.9 2-2 2-2-.9-2-1.9c0-1.1.9-2.1 2-2.1zM117.3 9.9c0 1.1-.9 2-2 2s-2-.9-2-2 .9-2 2-2h.1c1.1 0 1.9.9 1.9 2zM134.4 49.9c-1.1 0-2-.9-2-2s.9-2 2-2 2 .9 2 2v.1c-.1 1.1-.9 1.9-2 1.9zM126.8 19.4c0 1.1-.9 1.9-1.9 1.9-1.1 0-1.9-.9-1.9-1.9 0-1 .8-1.9 1.9-1.9 1-.1 1.9.7 2 1.8-.1 0-.1 0-.1.1zM120.1 12.7c1.1 0 2 .8 2 1.9s-.8 2-1.9 2c-1.1 0-1.9-.8-2-1.9-.1-1 .7-1.9 1.8-2h.1zM25 35.5c-1 0-1.9-.8-1.9-1.9 0-1 .8-1.9 1.9-1.9 1 0 1.9.8 1.9 1.8 0 1.1-.8 2-1.9 2zM51.7 5.1c0-1 .8-1.8 1.8-1.8s1.9.9 1.9 1.9c0 1-.9 1.8-1.9 1.8-1 0-1.8-.8-1.8-1.9zM131.5 33.7c0 1-.8 1.8-1.9 1.8-1 0-1.8-.8-1.8-1.9 0-1 .8-1.8 1.9-1.8 1 .1 1.8.9 1.8 1.9zM101.1 3.3c1 0 1.8.8 1.8 1.8s-.8 1.8-1.8 1.8-1.8-.8-1.8-1.8c0-.9.8-1.7 1.8-1.8zM31.5 28.9c0 1-.8 1.7-1.8 1.7s-1.7-.8-1.7-1.8.8-1.7 1.8-1.7c1 .1 1.7.9 1.7 1.8zM48.8 8.2c.9 0 1.7.8 1.7 1.7s-.8 1.7-1.7 1.7-1.7-.8-1.7-1.7v-.1c.1-.9.8-1.6 1.7-1.6zM129.7 54.3c-.9 0-1.7-.7-1.7-1.7 0-.9.7-1.7 1.7-1.7.9 0 1.7.7 1.7 1.7v.1c-.1.9-.8 1.7-1.7 1.6zM129.7 41.5c.9 0 1.7.8 1.7 1.7 0 .9-.8 1.7-1.7 1.7-.9 0-1.7-.8-1.7-1.7 0-1 .7-1.7 1.7-1.7-.1 0 0 0 0 0zM126.6 28.9c0 .9-.7 1.7-1.6 1.7s-1.7-.7-1.7-1.6c0-.9.7-1.7 1.6-1.7.9 0 1.6.7 1.7 1.6zM36.2 24.1c0 .9-.7 1.7-1.6 1.7-.9 0-1.7-.7-1.7-1.6 0-.9.7-1.7 1.6-1.7.9 0 1.7.7 1.7 1.6zM44.1 13c.9.1 1.6.9 1.5 1.8-.1.9-.9 1.6-1.8 1.5-.9-.1-1.5-.8-1.5-1.7.2-.9.9-1.6 1.8-1.6zM40.9 19.4c0 .9-.7 1.6-1.6 1.6-.9 0-1.6-.7-1.6-1.6 0-.9.7-1.6 1.6-1.6h.1c.8 0 1.5.7 1.5 1.6zM26.6 43.2c0 .9-.7 1.6-1.6 1.6-.9 0-1.6-.7-1.6-1.6s.7-1.6 1.6-1.6c.9 0 1.6.7 1.6 1.6zM105.9 8.3c.9 0 1.6.8 1.6 1.7 0 .9-.8 1.6-1.7 1.6s-1.6-.8-1.6-1.7c.1-1 .8-1.6 1.7-1.6zM121.6 24.1c.1.8-.5 1.4-1.3 1.5h-.2c-.7.1-1.4-.4-1.5-1.2v-.3c-.1-.7.4-1.4 1.2-1.5h.3c.8-.1 1.4.5 1.5 1.3v.2zM124.9 37c.8 0 1.4.6 1.5 1.3v.2c0 .7-.5 1.4-1.3 1.4h-.2c-.8 0-1.5-.6-1.5-1.5s.7-1.4 1.5-1.4zM112.1 14.5c.1.8-.5 1.5-1.3 1.6h-.2c-.8 0-1.4-.6-1.4-1.3v-.1c0-.8.5-1.4 1.3-1.5h.2c.7 0 1.3.5 1.4 1.3zM115.4 18c.9.1 1.4.6 1.4 1.5.1.8-.5 1.5-1.3 1.5-.8.1-1.5-.5-1.5-1.3v-.2c0-1 .5-1.5 1.4-1.5zM64.6 5.1c0 .8-.6 1.4-1.3 1.5h-.2c-.7.1-1.4-.5-1.4-1.2v-.3c0-.7.5-1.4 1.2-1.4h.1c.8-.1 1.5.5 1.6 1.2v.2zM91.7 3.7c.8 0 1.4.6 1.4 1.4v.1c0 .8-.7 1.4-1.5 1.4s-1.4-.7-1.4-1.5c0-.9.6-1.5 1.5-1.4-.1 0-.1 0 0 0zM124.9 56.1c.8.1 1.3.6 1.3 1.4 0 .7-.5 1.4-1.3 1.4-.7 0-1.4-.5-1.4-1.3v-.2c0-.7.6-1.3 1.4-1.3zM59.7 9.9c-.1.8-.6 1.3-1.4 1.3-.7 0-1.3-.5-1.3-1.2v-.1c0-.7.5-1.3 1.2-1.3h.2c.7 0 1.3.6 1.3 1.3zM124.9 49.3c-.8-.1-1.4-.6-1.4-1.5 0-.7.5-1.3 1.2-1.3h.2c.7-.1 1.3.5 1.4 1.2v.3c0 .8-.7 1.4-1.4 1.3zM29.8 37.1c.9.1 1.4.6 1.3 1.4 0 .7-.6 1.3-1.4 1.3-.7 0-1.3-.6-1.3-1.3 0-.8.6-1.4 1.4-1.4zM82.1 3.9c.6 0 1.2.4 1.2 1.1v.2c0 .6-.4 1.2-1 1.2H82c-.6 0-1.1-.4-1.2-1v-.2c-.1-.6.4-1.2 1-1.3h.3zM73.8 5.1c.1.6-.4 1.2-1.1 1.3h-.2c-.6.1-1.2-.4-1.2-1v-.3c0-.6.4-1.2 1-1.2h.2c.6-.1 1.2.4 1.3 1v.2zM120.1 32.4c.8.1 1.2.5 1.2 1.2s-.5 1.2-1.1 1.3c-.7 0-1.2-.5-1.3-1.1v-.2c0-.6.5-1.1 1.2-1.2zM35.8 33.7c0 .6-.4 1.2-1.1 1.2h-.2c-.6 0-1.1-.4-1.2-1v-.2c-.1-.6.4-1.2 1-1.2h.3c.6 0 1.2.5 1.2 1.1v.1zM96.4 8.6c.8.1 1.3.5 1.3 1.3 0 .7-.6 1.2-1.3 1.2-.7 0-1.2-.6-1.2-1.3 0-.7.5-1.2 1.2-1.2-.1 0-.1 0 0 0zM53.5 13.4c.8.1 1.2.5 1.2 1.2s-.6 1.2-1.2 1.2c-.7 0-1.2-.6-1.2-1.2.1-.6.6-1.2 1.2-1.2zM40.5 29c-.1.7-.5 1.1-1.2 1.1-.6 0-1.1-.4-1.1-1v-.2c0-.6.5-1 1.1-1h.1c.6 0 1.1.5 1.1 1.1zM120.2 44.2c-.7-.1-1.1-.4-1.1-1.1 0-.6.4-1 1-1h.2c.6 0 1 .4 1 1v.1c-.1.6-.5 1.1-1.1 1zM49.9 19.4c0 .6-.4 1-1 1h-.1c-.6 0-1-.5-1-1.1 0-.6.5-1 1.1-1 .6 0 1 .5 1 1v.1zM102.2 14.6c0 .6-.5 1.1-1.1 1.1h-.1c-.6-.1-1-.6-1-1.2.1-.5.5-.9 1-1 .7 0 1.2.5 1.2 1.1zM45.1 24.1c0 .7-.4 1.1-1 1.1s-1-.4-1-1 .4-1 1-1c.5-.1.9.3 1 .9zM120.1 51.7c.6 0 1 .4 1 1v.1c0 .6-.4 1-1 1s-1-.4-1-1c0-.7.4-1.1 1-1.1 0 0 0-.1 0 0zM114.4 28.9c-.1-.5.3-.9.8-1h.1c.5-.1 1.1.2 1.2.7s-.2 1.1-.7 1.2h-.5c-.5.1-.9-.3-.9-.9zM68.8 9.8c-.1.6-.4 1-1 1-.5 0-.9-.3-.9-.8v-.1c-.1-.5.3-.9.8-.9h.2c.5 0 .8.3.9.8zM86.9 10.8c-.7-.1-1-.4-1-1 0-.5.3-.9.8-.9h.1c.5-.1.9.2 1 .7v.3c0 .5-.4.9-.9.9zM78.2 9.9c-.1.5-.3.9-.8.8-.4 0-.8-.3-.8-.7v-.2c0-.4.4-.8.8-.7h.1c.3 0 .7.3.7.8zM106.8 19.4c-.1.5-.4.9-.9.9s-.9-.4-.8-.9c0-.5.4-.9.9-.8.4-.1.8.3.8.8zM110.6 24.9c-.4 0-.7-.3-.7-.7v-.1c0-.4.3-.7.7-.7h.1c.4 0 .7.3.7.7v.2c0 .4-.4.7-.8.6zM116.1 38.4c0 .4-.3.7-.7.7h-.1c-.4 0-.7-.3-.7-.6v-.2c0-.4.3-.6.6-.6h.1c.4 0 .7.3.7.6l.1.1zM34.6 43.9c-.4 0-.7-.2-.7-.6 0-.4.2-.7.6-.7s.7.2.7.6c0 .3-.2.6-.6.7zM63 13.9c.5.1.7.3.7.7 0 .4-.3.7-.6.7h-.2c-.4 0-.6-.3-.6-.7v-.1c.1-.3.4-.5.7-.6zM115.3 56.8c.3 0 .6.2.6.6 0 .3-.3.6-.6.6s-.5-.2-.6-.5c.1-.4.3-.6.6-.7zM91.6 15.3c-.4-.1-.7-.3-.6-.7 0-.4.3-.6.7-.6s.6.3.6.7c-.1.3-.4.6-.7.6zM116.1 47.9c-.1.4-.3.7-.7.7-.3 0-.6-.3-.6-.6v-.1c0-.3.3-.6.6-.6.4-.1.6.3.7.6zM17.2.3c0 1.8 1.4 3.1 3.1 3.1 1.7 0 3.1-1.4 3-3.1h-6.1zM27 .3c0 1.5 1.3 2.8 2.8 2.8 1.5-.1 2.7-1.3 2.8-2.8H27zM36.8.3c0 1.4 1.1 2.5 2.5 2.5s2.5-1.1 2.5-2.5h-5zM46.6.3c0 1.2 1 2.2 2.2 2.2 1.2 0 2.2-1 2.2-2.2h-4.4zM56.4.3c.1 1.1 1 1.9 2.1 1.8 1-.1 1.7-.8 1.8-1.8h-3.9zM66.1.3c0 .9.7 1.7 1.6 1.7.9.1 1.7-.6 1.8-1.5V.3h-3.4zM75.7.3c0 .9.7 1.6 1.6 1.7.9 0 1.7-.6 1.8-1.6V.3h-3.4zM94.4.3c-.1 1 .7 1.9 1.8 2h.1c1 .1 1.9-.7 2-1.7V.3h-3.9zM85.2.3c0 .9.8 1.7 1.7 1.7.9 0 1.7-.8 1.7-1.7h-3.4zM103.7.3c.1 1.2 1.1 2.1 2.3 2 1.1-.1 2-.9 2-2h-4.3zM113 .3c0 1.3 1 2.4 2.3 2.4h.1c1.3 0 2.4-1 2.5-2.3V.3H113zM122.1.3c0 1.5 1.2 2.7 2.7 2.8 1.5 0 2.8-1.2 2.8-2.7V.3h-5.5zM131.3.3c0 1.7 1.3 3.1 3 3.1s3.1-1.3 3.1-3V.3h-6.1zM1.3 25.8c-.3 0-.5 0-.8.1v5.9c.2.1.4.2.6.2 1.7 0 3.1-1.3 3.1-3 .1-1.7-1.2-3.1-2.9-3.2zM1.3 35.4c-.2 0-.5 0-.7.1l.1 5.9c.2 0 .3.1.5.1 1.7 0 3-1.3 3.1-2.9 0-1.8-1.4-3.1-3-3.2zM8.6 44.2c.1-.3.2-.7.2-1 0-1.5-1.2-2.7-2.7-2.8-1.5 0-2.8 1.2-2.9 2.7 0 .7.2 1.3.6 1.8 1.3-.2 3-.5 4.8-.7zM17.7 43.8c.1-.2.1-.4.1-.6.1-1.3-.9-2.3-2.1-2.4-1.3-.1-2.3.9-2.4 2.1v.3c0 .2 0 .4.1.6 1.4 0 2.8-.1 4.3 0zM149.8 11.8c-.1 0-.1-.1-.2-.1-1.2-.4-2.5-.1-3.3.9-1.1 1.3-1 3.2.3 4.4.7.6 1.5.8 2.4.7.3 0 .5-.1.8-.2v-5.7zM149.8 21.5c-.4-.2-.8-.2-1.2-.2-1.6 0-2.9 1.2-2.9 2.8 0 1.6 1.2 2.9 2.8 2.9.4 0 .8-.1 1.2-.2l.1-5.3zM149.8 31.1c-.4-.2-.8-.3-1.2-.3-1.5 0-2.8 1.2-2.8 2.8 0 1.5 1.2 2.8 2.8 2.8.4 0 .8-.1 1.1-.3l.1-5zM149.8 40.7c-.4-.2-.8-.3-1.2-.3-1.5 0-2.7 1.2-2.7 2.7 0 1.5 1.2 2.7 2.7 2.7.4 0 .8-.1 1.2-.3v-4.8z"/><path d="M149.7 52.3V209H.6V47.2l.4-1.8c4-.9 26.7-5.2 52.4 8.9 28.4 15.5 64.2 8.8 73.6 5.1 6.9-2.7 15.2-6.5 22.5-9l.2 1.9z" style="fill:#d6d6d6"/><path d="M95.3 64.7c-13.2 0-28.4-2.3-42.2-9.8C26.8 40.4 3.5 45.4.9 46c-.3.1-.7-.1-.8-.5-.1-.3.1-.7.5-.8 2.6-.6 26.4-5.7 53.1 8.9 29.5 16.2 65.7 7.9 73.1 5 2.4-.9 4.9-2 7.6-3.1 5-2.1 10.1-4.2 15-5.9.3-.1.7.1.8.4.1.3-.1.7-.4.8-4.8 1.6-9.9 3.8-14.9 5.8-2.7 1.2-5.3 2.2-7.7 3.2-4 1.7-16.5 4.9-31.9 4.9z"/><path class="st2" d="M124.2 209.2c-1.2-7.1-8.8-8-8.8-8-.1-1.8-.1-3.6.2-5.4-3.7.6-7.5 1-11.2 1.1l-.8 12"/><path d="M104.9 208.8c.5-5.1.6-10.2.4-15.4-.4-11.7-5.2-18.6-5.2-18.6l-5.2-.2-4.6-.9-6.4.6H71.4l-4.6-.7-1.5-.4-2.1.8-4.2.1-2.4.2s-4.8 6.9-5.2 18.6c-.2 5.1 0 10.3.4 15.4l.1 1 53-.5z" style="fill:#666"/><path d="m119.2 179.8-.6-17.6c-1.6-19.4-5.6-27.8-5.6-27.8-7.9-18.9-17.2-19.1-17.2-19.1-1-6.5-6.7-5.9-7.8-5.5l.6 1.9-.7 2-3.7 4-3.6 2.9-1.3.6-.9 1.3-.9-.9-2.7-1.8-6.6-6.3c-.5-1.1-.4-2.4.4-3.3 0 0 .4-1.4-2.4-1s-4.9 4-4.9 4-.4-.3-2.2.2c-2.4-1.6-5-2.9-7.7-3.9l-1.1-.4s-1.1-3.1-2.9-3.6c.7-2 1.2-4.2 1.5-6.3.2 0 .3.1.5.2 1.1.4 2.5 1.2 3.7-1.8.7-1.9 1.2-3.8 1.5-5.7l-2.2-4.1-3.4.7-7-.3-3.7-2.1-3-3.2-2.6-3.7s-2.3.1-4.8 3.9-6.7 10-7.5 10.6c2.6-.4 5.3-.4 7.9.1l1.2.3-1.5-.3s-3.9 13.6.4 22.6 20.7 18 26.3 20l-.7 2.5c-6.6 20.9-4.4 29.7.6 33.3s11.1.9 11.1.9c1.4 1 1.5.9 11.5 1.1 11.1.3 13.5-.7 13.5-.7 3.6 2.4 9.5 1 9.5 1 1.2 2.2 2.2 4.6 3 6.9l2.4 15.3c4.7.1 9.4-.7 13.9-2.4 3.1-1.2 2.8-4.7 3.2-7.5s1.9-9.7 1.9-9.7c-1.6 1.2-3.4 2.2-5.4 2.7z" style="fill:#aaa9a9"/><path class="st2" d="m115.9 59.5-10-.1 2-12.9L80.7 44 64 46.3l-5.8 5.6-10.8-10.8s-6.2-1.3-10.2 8.8c-2.3 4.7-3.6 9.9-4 15.2l.3-.1c-1.2 2.4-1.8 5-1.7 7.6.2 6.8 3.2 11.9 7.4 14.2 4.2 2.1 9.1 2.1 13.3.2 1 2.9 2.5 5.7 4.4 8.1 3 4 7.7 6.2 12.2 7.4.4 5.8-.8 8.3-.8 8.3s-1.6 1.7 1.5 4.2c0 0 3.9 4.1 6.3 5.4.9.5 1.6 1.2 2.1 2.1l7.1-6.2 3.1-3.2v-2.3c-1.1-.8-1.3-4.7-1.3-7.4 8.2-1.5 15-7.1 18-14.8 7.3 2.2 17.4-.1 19.2-13s-8.4-16.1-8.4-16.1zm-64 1.6c-.3-.4-.6-.8-1-1.1l1.7-.5-.2 3.5c.4 2.5.5 5 .3 7.5 0 .6-.1 1.2-.3 1.8-.3 1.5-.6 3-.8 4.4l-.2 4.4c0-1.5 0-2.9.2-4.4l.8-13.7c-.1-.7-.3-1.3-.5-1.9z"/><path d="M119.2 179.9c-.3 0-.6-.3-.6-.6l-.5-17.2c-1.5-19-5.5-27.4-5.6-27.5-7.6-18.3-16.5-18.8-16.6-18.8-.4 0-.6-.3-.6-.7 0-.3.3-.6.6-.6.4 0 9.8.5 17.8 19.5.2.3 4.1 8.7 5.7 28l.5 17.2c-.1.5-.3.8-.7.7 0 .1 0 .1 0 0z"/><path d="M106.7 197.4h-1.2c-.4 0-.6-.3-.6-.7 0-.4.3-.6.7-.6 4.6 0 9.2-.7 13.6-2.3 2.2-.8 2.4-3.1 2.7-5.5 0-.5.1-1 .2-1.5.3-2 1.1-5.9 1.6-8.1-7 4.3-20 3.1-20.6 3-.4 0-.6-.3-.6-.7 0-.4.4-.6.7-.6.2 0 14.9 1.4 21-3.7.2-.2.5-.2.8-.1.2.1.4.4.3.7 0 .1-1.5 6.9-1.9 9.7-.1.5-.1 1-.2 1.5-.2 2.6-.5 5.5-3.5 6.6-4.2 1.3-8.6 2.1-13 2.3z"/><path d="M124.2 209.6c-.3 0-.6-.2-.6-.5-1.2-6.4-7.9-7.3-8.2-7.3-.3 0-.5-.3-.6-.6-.1-1.9-.1-3.7.2-5.6 0-.4.4-.6.7-.6.4.1.6.4.6.7-.2 1.6-.3 3.2-.2 4.8 1.8.4 7.6 2 8.8 8.3.1.4-.2.7-.5.8h-.2zM116.6 188.8c-1.8 0-3.2-1.4-3.2-3.2 0-1.8 1.4-3.2 3.2-3.2s3.2 1.4 3.2 3.2c0 1.8-1.4 3.2-3.2 3.2zm0-5.1c-1 0-1.9.8-1.9 1.9 0 1 .8 1.9 1.9 1.9 1 0 1.9-.8 1.9-1.9 0-1-.8-1.9-1.9-1.9zM33.2 65.7c-.4 0-.6-.3-.6-.7.3-5.3 1.7-10.6 4-15.4 4.2-10.4 10.6-9.2 10.9-9.1.4.1.6.4.5.8-.1.3-.4.6-.8.5-.2 0-5.7-1-9.5 8.4-2.2 4.7-3.6 9.8-3.9 15 .1.3-.2.5-.6.5zM50.9 100.3c-.5 0-1.1-.2-1.5-.4l-.2-.1c-1.1-.4-17-4.6-21-5.4-2.5-.5-5.1-.5-7.6-.1-.4.1-.7-.2-.8-.5-.1-.3.1-.5.3-.7.6-.4 3.6-4.7 7.3-10.4 2.7-4.1 5.2-4.2 5.3-4.2.4 0 .7.3.7.6 0 .4-.3.7-.6.7-.1 0-2 .2-4.3 3.6-1.8 2.8-4.7 7.1-6.4 9.3 2.1-.2 4.3-.1 6.4.4 4.2.9 20 5 21.2 5.5l.2.1c.4.3.9.3 1.4.2.6-.4 1-1 1.2-1.8.7-1.8 1.1-3.7 1.4-5.6.1-.4.4-.6.7-.5.3.1.6.4.5.7-.3 2-.8 4-1.5 5.9-.3 1-1 1.9-1.9 2.5-.3.2-.5.3-.8.2z"/><path d="M30.1 92.5c-1.8 0-3.2-1.4-3.2-3.2 0-1.8 1.4-3.2 3.2-3.2 1.8 0 3.2 1.4 3.2 3.2 0 1.8-1.4 3.2-3.2 3.2zm0-5.1c-1 0-1.9.8-1.9 1.9 0 1 .8 1.9 1.9 1.9s1.9-.8 1.9-1.9c0-1-.8-1.9-1.9-1.9zM47.3 105.7c-.4 0-.7-.3-.7-.6 0-.1 0-.2.1-.4 1-1.7 1.3-5.5 1.3-5.6 0-.4.3-.6.7-.6.4 0 .6.3.6.7 0 .2-.2 4.2-1.5 6.2-.1.2-.3.3-.5.3z"/><path d="M50.1 109.5c-.3 0-.6-.2-.6-.5-1.1-4.1-6.9-4.5-7-4.5-.4 0-.6-.3-.6-.7 0-.4.3-.6.7-.6.3 0 6.8.4 8.2 5.5.1.4-.1.7-.5.8h-.2z"/><path d="M58.7 113.9c-.2 0-.3-.1-.5-.2 0 0-1-.9-5.7-3.2s-7.7-.3-7.8-.2c-.3.2-.7.2-.9-.1s-.2-.7.1-.9h.1c.2-.1 3.8-2.5 9.1.1 4.9 2.4 6 3.3 6 3.4.2.3.2.7 0 .9-.1.2-.2.2-.4.2z"/><path d="M56.4 115.6c-.2 0-.3-.1-.5-.2-.3-.3-.3-.7 0-.9.1-.1 2.6-2.6 5.4-1.6.3.1.5.5.4.8-.1.3-.5.5-.8.4-2-.7-4 1.2-4.1 1.3-.1.1-.3.2-.4.2zM54.7 137h-.2c-5.8-2-22.3-11.1-26.7-20.3s-.6-22.5-.4-23c.1-.3.5-.5.8-.4s.5.5.4.8c0 .1-3.8 13.5.4 22.1s20.5 17.7 25.9 19.6c.3.1.5.5.4.8-.1.3-.3.4-.6.4z"/><path class="st5" d="M88.7 74.6c1.9-.5 3.5-1.8 4.4-3.6 1.2-2.2 1.1-4.9-.3-7l-7.5-.5s-4.1 2.4-1.9 7.8l2.9 1.1 1.4 1.4M67 66.3c-2.6 1.8-3.2 5.3-1.5 7.8 1.7 2.5 5 3.2 7.6 1.6 2.1-1.4 3.1-4 2.5-6.5-.2-1.7-1.4-3.2-3.1-3.8"/><path d="M70.2 77.3c-.9 0-1.8-.2-2.7-.6-1.9-.8-3.2-2.6-3.5-4.6-.5-2.5.6-5 2.7-6.3.3-.2.7-.2.9.1.2.3.2.7-.1.9l-.1.1c-1.6 1.1-2.4 3.1-2.1 5 .2 1.6 1.3 2.9 2.8 3.6 1.5.7 3.3.6 4.7-.3 1.9-1.3 2.8-3.6 2.2-5.8-.2-1-.9-2.9-2.6-3.3-.4-.1-.6-.4-.5-.7s.4-.6.7-.5h.1c1.9.7 3.3 2.3 3.5 4.3.7 2.7-.4 5.6-2.8 7.2-.9.6-2 .9-3.2.9z"/><path class="st5" d="M79.4 82.3c-1.7.2-3.5.2-5.2.1-2.4-.1-6.2 1.6-5.9 5.4s3.4 5.7 6.5 4.9 6.4-2.7 8.5-2.4 9.5 2 11.1-3.3c1.5-4.8-4.9-6.3-6.6-6.1l-1.2 1.4-2.6.9-2.9-.5"/><path d="M116.7 33.8c-3.2-2.9-7.4-4.3-11.7-3.8-7.5.7-9.1 2-15.9-1s-14.6-2.6-19.1-.3-7.2 5.2-10.8 5.5c-5.7.6-14 6.8-16.2 13.9-.6 1.8-1 3.6-1.2 5.5-.1 1.5-.5 3-1.1 4.4l1.5-.2 5.6.1 4.5 3.4c4.6-.8 6.5-6.5 8-8s2.7-.8 8.2-1.1 11.3-5 11.3-5l4.4 4 3.9 1.8 3.9.7 4.2-.2c1.7 3.5 6 9.2 15 8.1 4.1-.9 6.9-4.6 6.5-8.8 0 0-.6-4.3.3-6.2.9-1.4 3.4-8.6-1.3-12.8z" style="fill:#282828"/><path d="M93.4 54.4c-12.3 0-16-11.2-16-11.3-.1-.3.1-.7.4-.8.3-.1.7.1.8.4.2.5 4 12 17.7 10.2.4 0 .7.2.7.6 0 .4-.2.7-.6.7-.9.1-2 .2-3 .2z"/><path d="M109.2 62.4c-11.6 0-14.5-11.3-14.6-11.4-.1-.4.1-.7.5-.8.3-.1.7.1.8.5.1.5 3.1 11.7 15.4 10.3 3.8-.8 6.4-4.3 6-8.1-.1-.4-.6-4.5.3-6.5s2.8-8.4-1.3-12c-3-2.8-7.1-4.1-11.2-3.6-1.6.1-3 .3-4.2.5-4.2.5-6.5.8-12-1.6-7.1-3.2-14.6-2.4-18.5-.3-1.5.8-2.8 1.6-4 2.4-2.4 1.6-4.5 2.9-7 3.2-5.4.5-13.4 6.6-15.6 13.5-.6 1.7-.9 3.5-1.2 5.3-.2 1.6-.6 3.2-1.2 4.7-.2.3-.5.5-.9.3-.3-.2-.5-.5-.3-.9.6-1.3.9-2.8 1.1-4.2.2-1.9.6-3.8 1.1-5.7 2.3-7.4 10.9-13.8 16.7-14.4 2.2-.2 4-1.4 6.4-3 1.2-.8 2.6-1.7 4.2-2.5 4.2-2.2 12.1-3.1 19.6.2 5.2 2.3 7.1 2 11.3 1.5 1.2-.2 2.6-.3 4.3-.5 4.5-.5 8.9.9 12.2 4 4.6 4.1 2.7 11.2 1.6 13.5-.7 1.4-.4 4.6-.2 5.8.4 4.5-2.6 8.6-7 9.5-.7.2-1.5.3-2.3.3z"/><path d="M52.3 62c-.4 0-.6-.3-.6-.7 0-.3.2-.6.5-.6 3.1-.5 4.9-3.6 6.2-5.8.4-.7.9-1.4 1.4-2.1 1.2-1.3 2.3-1.2 4.5-1.2 1.1 0 2.4 0 4.2-.1 5.3-.3 10.9-4.8 10.9-4.9.3-.2.7-.2.9.1.2.3.2.7-.1.9-.2.2-5.9 4.8-11.7 5.2-1.8.1-3.2.1-4.3.1-2.2 0-2.8 0-3.5.8-.5.6-.9 1.2-1.2 1.8-1.4 2.3-3.4 5.8-7.1 6.4h-.1z"/><path d="M79.7 104.5c-3.5 0-17.2-.6-23.4-9-1.8-2.3-3.2-4.8-4.2-7.5-3.5 2-8.9 1.8-13.2-.6-4.6-2.5-7.5-8.1-7.7-14.8S35.5 58 42.8 57.3c7.1-.7 9.6 3.3 9.7 3.5v.1c1.1 2.6 1 7.2.8 9.6 0 .7-.1 1.3-.3 2-1.6 7.4-2.3 13.4 4.3 22.3s23 8.5 23.2 8.5h.2c13.2 0 20.9-7.8 23.7-15 1.7-4.4.8-8.8.1-12.7-.4-1.9-.7-3.7-.7-5.7-.1-2.8.3-5.6 1.2-8.2.1-.3.5-.5.8-.4.3.1.5.5.4.8-.8 2.5-1.2 5.1-1.1 7.7.1 1.8.3 3.6.7 5.4.8 4 1.6 8.6-.2 13.4-2.9 7.7-11.1 16-25.1 15.9h-.8zm-35.4-46c-.5 0-.9 0-1.4.1-6.5.6-10.7 7.7-10.5 14s2.8 11.4 7 13.7c4 2.2 9 2.4 12.1.5-1.6-5.2-.9-9.7.2-14.6.1-.6.2-1.2.2-1.8.1-1.9.3-6.5-.7-9-.1-.4-2-2.9-6.9-2.9z"/><path d="M51.3 75.8c-6.7-1-8.1-8.2-8.1-8.2-.1-.3.2-.7.5-.7.4-.1.7.2.8.5 0 .3 1.2 6.3 6.9 7.2.4.1.6.4.5.8-.1.2-.3.4-.6.4z"/><path d="M42.3 80.1h-.2c-.3-.1-.5-.5-.4-.8.1-.2 1.8-4.9 6.8-5.3.4 0 .7.2.7.6 0 .4-.2.7-.6.7-4.1.3-5.6 4.2-5.7 4.4-.1.2-.3.4-.6.4zM110 89.8c-1.7 0-3.5-.3-5.1-.8-.3-.1-.5-.5-.4-.8.1-.3.5-.5.8-.4 4.1 1.3 8.5.8 12.2-1.4 3.4-2.2 5.5-5.9 6.2-11.1 1.7-12.2-7.8-15.1-7.9-15.1-.4-.1-.6-.4-.5-.8.1-.4.4-.6.8-.5h.1c.1 0 10.7 3.2 8.8 16.6-.8 5.5-3.2 9.7-6.8 12-2.5 1.5-5.3 2.3-8.2 2.3z"/><path d="M105.3 76.5c-.4 0-.7-.2-.7-.6s.2-.7.6-.7c5.3-.8 6.9-7.9 6.9-8 .1-.3.4-.6.8-.5.3.1.6.4.5.8-.1.3-1.8 8.1-8.1 9z"/><path d="M114.1 81.6c-.3 0-.6-.2-.7-.6-.4-2.7-2.2-4.9-4.8-5.9-.3-.1-.5-.5-.4-.8s.5-.5.8-.4c3 1.1 5.2 3.8 5.6 7 .2.4-.1.7-.5.7.1 0 .1 0 0 0zM67.6 66.7c-2.1 0-4.2-.3-6.2-.9-.3-.1-.6-.5-.5-.8.1-.3.5-.6.8-.5 5.2 1.4 9.5 1.1 12.7-1 4.6-3 5.5-8.5 5.5-8.6.1-.4.4-.6.7-.5.4.1.6.4.6.7 0 .2-1 6.2-6 9.5-2.3 1.4-4.9 2.1-7.6 2.1z"/><path d="M89.8 64.2c-3.8 0-8.1-1.2-10.5-5.8-.2-.3 0-.7.3-.9.3-.2.7 0 .9.3 1.9 3.5 5.2 5.3 9.8 5.2 2.3-.1 4.5-.5 6.6-1.3.3-.1.7 0 .8.4s0 .7-.4.8c-2.5.8-5 1.3-7.5 1.3zM83.2 83.6c-5.7 0-6.2-5.6-6.2-5.7 0-7 6.2-7.3 6.3-7.3h.1c4.7.1 6.1 4.3 6.2 6.4s-1.2 6.3-5.9 6.5l-.5.1zm.2-11.6c-.4 0-5.1.5-5.1 6 .2 2.6 2.4 4.6 5 4.4h.2c4.6-.2 4.7-5 4.7-5.2s-.2-5.1-4.8-5.2zM104 85.2c-.4 0-.6-.3-.7-.6 0-.4.3-.6.6-.7l4-.1c.4 0 .7.3.7.6 0 .4-.3.6-.6.7l-4 .1zM96.7 78c-.4 0-.7-.3-.7-.6 0-.2.1-.4.2-.5l3-2.5c.3-.2.7-.2.9.1s.2.7-.1.9l-3 2.5c0 .1-.1.1-.3.1zM62.2 82.2H62L58.8 81c-.3-.1-.5-.5-.4-.8.1-.3.5-.5.8-.4l3.2 1.2c.3.1.5.5.4.8-.1.3-.4.5-.6.4zM52.7 92.6c-.4 0-.6-.3-.6-.7 0-.2.1-.4.2-.5l2.6-2.2c.3-.2.7-.2.9.1.2.3.2.7-.1.9l-2.6 2.2c-.1.1-.2.2-.4.2zM66.4 98.1c-.2 0-.5-.1-.6-.3l-1.5-2.9c-.2-.3 0-.7.3-.9.3-.2.7 0 .9.3l1.5 2.9c.2.3.1.7-.2.9h-.4zM83.5 106.2c-.2 0-.4-.1-.6-.3l-2.3-4c-.1-.3 0-.7.3-.8.3-.2.7-.1.9.2l2.3 4c.2.3.1.7-.2.9h-.4zM93.7 96.4c-.1 0-.2 0-.3-.1l-2.5-1.2c-.3-.2-.5-.6-.3-.9s.6-.5.9-.3l2.6 1.3c.3.2.4.6.3.9-.2.2-.4.3-.7.3z"/><path d="M83.4 72c-.3 0-.5-.2-.6-.4C80.4 65.7 85 63 85 63c.3-.2.7-.1.9.2.2.3.1.7-.2.9-.2.1-3.6 2.2-1.6 7 .1.3 0 .7-.3.8-.2.1-.3.1-.4.1zM88.7 75.2c-.4 0-.7-.3-.7-.6s.2-.6.5-.6c1.7-.5 3.1-1.7 4-3.2 1.1-2 1-4.5-.3-6.3-.2-.3-.2-.7.1-.9.3-.2.7-.2.9.1 1.6 2.3 1.8 5.3.4 7.8-1 1.9-2.8 3.3-4.8 3.8 0-.1 0-.1-.1-.1zM70.2 77.3c-.9 0-1.8-.2-2.7-.6-1.9-.8-3.2-2.6-3.5-4.6-.5-2.5.6-5 2.7-6.3.3-.2.7-.2.9.1.2.3.2.7-.1.9l-.1.1c-1.6 1.1-2.4 3.1-2.1 5 .2 1.6 1.3 2.9 2.8 3.6 1.5.7 3.3.6 4.7-.3 1.9-1.3 2.8-3.6 2.2-5.8-.2-1-.9-2.9-2.6-3.3-.4-.1-.6-.4-.5-.7s.4-.6.7-.5h.1c1.9.7 3.3 2.3 3.5 4.3.7 2.7-.4 5.6-2.8 7.2-.9.6-2 .9-3.2.9zM73.4 93.5c-1.2 0-2.4-.3-3.3-1-1.5-1.1-2.4-2.8-2.5-4.6-.2-1.5.4-3 1.4-4.1 1.4-1.3 3.2-2.1 5.1-2 1.7.1 3.4 0 5.2-.1.4 0 .7.2.7.6 0 .4-.2.7-.6.7-1.8.2-3.6.2-5.3.1-1.5-.1-3 .5-4.1 1.6-.8.8-1.1 2-1 3.1.1 1.5.8 2.8 1.9 3.7 1.1.8 2.5 1 3.8.7 1.2-.3 2.3-.7 3.4-1.2 2-.8 3.9-1.5 5.3-1.2l.5.1c4 .7 8.7 1 9.9-3 .4-1 .2-2.2-.5-3.1-1.3-1.8-4.4-2.4-5.3-2.3-.4 0-.7-.2-.7-.6 0-.4.2-.7.6-.7 1.2-.1 4.8.5 6.5 2.7 1 1.2 1.2 2.8.7 4.3-1.7 5.6-8.8 4.3-11.4 3.9h-.5c-1.2-.2-2.9.5-4.7 1.2-1.2.5-2.3.8-3.5 1.2h-1.6z"/><circle cx="90.6" cy="66.8" r="3.1"/><circle cx="72" cy="69.1" r="3.1"/><path d="M73.7 174.8c-.4 0-.7-.3-.7-.6v-44.9c0-1.6 1.3-2.9 2.9-2.9h1.8c.3-.9.4-1.9.1-2.8-.3-1.1-1.1-2.1-2.1-2.6-2.5-1.3-6.3-5.3-6.5-5.5-1.1-.8-1.8-1.9-2-3.2-.1-.7.2-1.4.6-1.9.1-.1.2-.2.3-.2 0 0 1.1-.9.3-7.1 0-.4.2-.7.6-.7.4 0 .7.2.7.6.8 6.4-.4 8-1 8.4-.2.3-.2.6-.2.8.2 1 .8 1.8 1.6 2.4.1.1 3.9 4.1 6.2 5.3 1.4.7 2.4 2 2.8 3.4.4 1.4.3 2.9-.4 4.1-.1.2-.3.3-.6.3h-2.3c-.9 0-1.6.7-1.6 1.6v44.9c.1.3-.2.6-.5.6zM88.3 111.3c-.1 0-.3 0-.4-.1-1.9-1.3-1.6-6.7-1.6-7.8 0-.3.3-.6.7-.6.4 0 .6.3.6.7-.2 2.3 0 5.9 1 6.6.3.2.4.6.2.9-.1.2-.3.3-.5.3z"/><path d="M69.3 133.7c-.1 0-.3 0-.4-.1-6.5-4.6-8.5-13-9.1-16.3-.3-1.4 0-2.9.7-4.1 3.7-6.4 8.4-4.4 8.5-4.4.3.1.5.5.4.8-.1.3-.5.5-.8.4h-.1c-.2-.1-3.8-1.5-6.8 3.8-.6 1-.7 2.1-.5 3.2.5 3.1 2.3 10.3 7.7 14.8.4-2.5 1.6-8.4 4.6-10.6 1-.8 2.3-1.1 3.6-.8.4.1.6.4.5.8-.1.4-.4.6-.8.5-.9-.2-1.8 0-2.6.6-3.3 2.4-4.2 10.8-4.2 10.9 0 .2-.2.4-.4.5h-.3zM88.1 133.4c-.1 0-.3 0-.4-.1-1.8-1.4-2.6-5.6-2.7-6.1-.2-1.6-1.1-5.5-3.1-5.7-1.2-.3-2.5.5-2.7 1.8-.1.4-.4.6-.8.5-.4-.1-.6-.4-.5-.8.4-1.9 2.2-3.2 4.1-2.9 3.4.3 4.2 6.2 4.3 6.8.3 1.7.8 3.3 1.7 4.8 1.7-2.3 8-11.1 7.2-16.4-.1-1.8-1.1-3.5-2.7-4.5-1.3-.7-2.8-.9-4.2-.5-.3.1-.7 0-.8-.4s0-.7.4-.8c1.8-.5 3.7-.3 5.3.6 1.9 1.2 3.1 3.2 3.3 5.4 1.1 6.7-7.5 17.6-7.9 18-.1.2-.3.3-.5.3z"/><path d="M79.8 121.9c-.4 0-.6-.3-.6-.7 0-.2.1-.4.2-.5 0 0 2.2-2 5.7-4.9 3.2-2.6 3-5.2 3-5.3 0-.4.2-.7.6-.7.4 0 .7.2.7.6 0 .1.2 3.4-3.5 6.4-3.4 2.8-5.6 4.8-5.7 4.8-.1.3-.2.3-.4.3zM86.2 174.9H70c-9.6-1-10.4-9.1-10.5-9.2 0-.4.3-.7.6-.7s.6.2.6.5.8 7.1 9.2 8h16.2c.4 0 8.8.1 10.4-7.4.1-.3.4-.6.8-.5.3.1.6.4.5.8-1.6 8.3-10.7 8.5-11.6 8.5z"/><path d="M96.2 175.4c-1.9 0-3.8-.3-5.7-.9-.3-.1-.5-.5-.4-.8.1-.3.5-.5.8-.4.1 0 6.1 2.1 10.5-.4 2.2-1.2 3.6-3.4 4.2-6.5 2.2-10.8-8.1-34.4-8.2-34.6-.1-.3 0-.7.3-.9.3-.1.7 0 .9.3.4 1 10.6 24.1 8.3 35.4-.7 3.4-2.4 5.9-4.9 7.4-1.8 1-3.8 1.5-5.8 1.4zM81.1 139.4c-2.2 0-4-1.8-4-4s1.8-4 4-4 4 1.8 4 4-1.8 4-4 4zm0-6.7c-1.5 0-2.7 1.2-2.7 2.7 0 1.5 1.2 2.7 2.7 2.7 1.5 0 2.7-1.2 2.7-2.7 0-1.5-1.2-2.7-2.7-2.7zM81.1 154.1c-2.2 0-4-1.8-4-4s1.8-4 4-4 4 1.8 4 4-1.8 4-4 4zm0-6.6c-1.5 0-2.7 1.2-2.7 2.7 0 1.5 1.2 2.7 2.7 2.7 1.5 0 2.7-1.2 2.7-2.7 0-1.5-1.2-2.7-2.7-2.7zM81.1 168.8c-2.2 0-4-1.8-4-4s1.8-4 4-4 4 1.8 4 4-1.8 4-4 4zm0-6.7c-1.5 0-2.7 1.2-2.7 2.7 0 1.5 1.2 2.7 2.7 2.7 1.5 0 2.7-1.2 2.7-2.7 0-1.5-1.2-2.7-2.7-2.7zM77.6 114.7c-.1 0-.2 0-.3-.1-1.6-1.1-2.6-3-2.7-5 0-1.9.6-3.8 1.6-5.4.2-.3.6-.3.9-.1.3.2.3.6.2.9-.8 1.4-1.3 3-1.3 4.7.1 1.6.8 3 2.1 3.9.3.2.4.6.2.9-.3.1-.5.2-.7.2zM79.3 209.6c-.4 0-.7-.4-.6-.7.4-3.4.4-6.8 0-10.2-3.7-1.4-6.9-4.1-8.9-7.5-.2-.3 0-.7.3-.9.3-.2.7 0 .9.3 1.9 3.3 4.9 5.7 8.5 7 .2.1.4.3.4.5.5 3.6.5 7.3.1 11 0 .3-.3.6-.7.5z"/><path d="M104.9 209.4c-.4 0-.6-.3-.6-.7 0-.6.1-1.4.1-2.1.4-4.4.4-8.8.3-13.2-.4-11.4-5-18.2-5.1-18.3-.2-.3-.1-.7.2-.9.3-.2.7-.1.9.2.2.3 4.9 7.2 5.3 19 .2 4.4.1 8.9-.3 13.3-.1.8-.1 1.4-.2 2.1.1.4-.2.6-.6.6z"/><path d="M104.8 188.7c-8.9-.8-11.6-7.6-11.7-7.9-.1-.3.1-.7.4-.8.3-.1.7 0 .8.3.1.3 2.6 6.3 10.5 7.1.4 0 .6.4.6.7 0 .4-.3.6-.6.6zM63.6 78.4c-.1 0-.2 0-.3-.1-.3-.2-.4-.6-.3-.9 0-.1 1.3-2.5 3.4-2.7.4 0 .7.2.7.6 0 .4-.2.7-.6.7-1.4.2-2.4 2-2.4 2-.1.2-.3.4-.5.4zM97.1 73.2c-.2 0-.4 0-.5-.2-.1-.1-1.1-1.1-3.6-.4-.3.1-.7-.1-.8-.5-.1-.3.1-.7.5-.8 3.3-.9 4.8.7 4.9.8.2.3.2.7-.1.9-.1.1-.3.2-.4.2zM61 174.8c-2 0-3.9-.4-5.6-1.3-2.7-1.4-4.5-3.9-5.4-7.4-3.3-12 6.2-34.9 6.5-35.8.1-.3.5-.5.8-.4.3.1.5.5.4.8-.1.2-9.6 23.4-6.5 35 .6 2.8 2.3 5.2 4.8 6.6 4.4 2.3 9.9.4 10 .4.3-.2.7 0 .9.3.2.3 0 .7-.3.9h-.1c-1.9.6-3.7.8-5.5.9z"/><path d="M51.9 208.8c-.3 0-.6-.3-.7-.6 0-.6-.1-1.3-.1-2.1-.4-4.4-.5-8.9-.3-13.3.4-11.8 5.1-18.7 5.3-18.9.2-.3.6-.4.9-.2s.4.6.2.9c0 .1-4.7 6.9-5.1 18.3-.2 4.4-.1 8.8.3 13.2 0 .8.1 1.5.1 2.1.1.3-.2.6-.6.6z"/><path d="M52 188.1c-.3 0-.6-.3-.7-.6 0-.4.2-.7.6-.7 4.5-.2 8.6-3 10.5-7.1.1-.3.5-.5.8-.4s.5.5.4.8c0 .4-2.7 7.2-11.6 8z"/><path d="M150.3 209.7H0V0h150.3v209.7zm-149-1.3H149V1.3H1.3v207.1z"/></svg>