<?xml version="1.0" encoding="utf-8"?>
<!-- Generator: Adobe Illustrator 24.0.1, SVG Export Plug-In . SVG Version: 6.00 Build 0)  -->
<svg version="1.1" id="_1" xmlns="http://www.w3.org/2000/svg" xmlns:xlink="http://www.w3.org/1999/xlink" x="0px" y="0px"
	 viewBox="0 0 150.3 209.7" style="enable-background:new 0 0 150.3 209.7;" xml:space="preserve">
<style type="text/css">
	.st0{fill:#E5E5E5;}
	.st1{fill:#D6D6D6;}
	.st2{fill:#E2E2E2;}
	.st3{fill:#666666;}
	.st4{fill:#AAA9A9;}
	.st5{fill:#FFFFFF;}
	.st6{fill:#282828;}
</style>
<title>глава1(3)</title>
<path class="st0" d="M141.6,2.7c1.2,1.2,2.6,1.2,4.3,0.5c-0.8,1.7-0.7,3,0.4,4.2c0.9,0.9,2.2,1.3,3.4,0.9V1.9c-1-0.2-2.1,0-3,0.5
	c0.3-0.5,0.4-1.1,0.5-1.7h-6.6C140.7,1.4,141,2.2,141.6,2.7z"/>
<path class="st0" d="M3.7,12.5l0.2-0.2c0.8-1.2,1-2.8,0.4-4.2c1.7,0.6,3.1,0.5,4.2-0.7s1-2.6,0.4-4.2c1.6,0.8,3,0.7,4.2-0.5
	c0.6-0.5,1-1.3,1-2.1H7.4C7.5,1.3,7.7,1.8,8,2.4C7,1.8,5.9,1.6,4.9,1.9c0-0.3,0-0.4,0-0.4C5,1.2,5,0.9,5,0.6H0.6v3.6l0,0
	C1.2,4,1.9,4.2,2.7,4C2.5,4.9,2.6,5.9,2.8,6.8C2.2,6.2,1.1,6.9,0.6,6.5v6.8C1.7,13.3,2.8,13.1,3.7,12.5z"/>
<path class="st0" d="M149.7,1V0.6h-0.1C149.6,0.8,149.7,0.9,149.7,1z"/>
<path class="st0" d="M4.4,19.5c0.1-0.9-0.3-1.7-0.9-2.4c-0.7-0.8-1.8-1.1-2.9-0.9v6.2h0.2c1.7,0.2,3.3-1,3.5-2.7
	C4.4,19.7,4.4,19.6,4.4,19.5z"/>
<path class="st0" d="M13.9,9.8c0,1.7-1.3,3.1-3,3.2c-1.7,0-3.1-1.3-3.2-3s1.3-3.1,3-3.2c0,0,0,0,0,0C12.4,6.8,13.8,8.1,13.9,9.8z"/>
<path class="st0" d="M3.7,12.5l0.2-0.2c1.3-1.2,3.3-1.1,4.5,0.2C8.7,13,9,13.6,9.1,14.2c0.2,1.7-1,3.3-2.7,3.5s-3.3-1-3.5-2.7
	c-0.1-0.6,0-1.3,0.3-1.9C3.4,12.9,3.5,12.7,3.7,12.5z"/>
<path class="st0" d="M18.6,5.1c0.1,1.7-1.2,3.2-2.9,3.3c-1.7,0.1-3.2-1.2-3.3-2.9c0-0.1,0-0.2,0-0.4c0.1-1.7,1.6-3,3.3-2.9
	C17.3,2.3,18.5,3.5,18.6,5.1z"/>
<path class="st0" d="M140.9,9.9c0-1.7,1.3-3.1,3-3.1s3.1,1.3,3.1,3c0,1.7-1.3,3.1-3,3.1c0,0-0.1,0-0.1,0
	C142.2,12.9,140.9,11.6,140.9,9.9z"/>
<path class="st0" d="M139,8.2c-1.7-0.1-3-1.6-2.9-3.3c0.1-1.7,1.6-3,3.3-2.8c1.7,0.1,3,1.6,2.8,3.3C142.1,7,140.7,8.3,139,8.2z"/>
<path class="st0" d="M8.9,24.1c0,1.6-1.2,2.9-2.8,2.9c0,0-0.1,0-0.1,0c-1.6,0-2.9-1.3-2.9-2.9c0-1.6,1.3-2.9,2.9-2.9
	c1.6-0.1,2.9,1.1,3,2.7C8.9,24,8.9,24,8.9,24.1z"/>
<path class="st0" d="M13.6,19.4c0,1.6-1.3,2.8-2.9,2.8c-1.6,0-2.8-1.3-2.8-2.9c0-1.6,1.3-2.8,2.8-2.8C12.3,16.6,13.6,17.9,13.6,19.4
	z"/>
<path class="st0" d="M8.8,33.7c0,1.6-1.3,2.8-2.9,2.8c-1.6,0-2.8-1.3-2.8-2.9s1.3-2.8,2.9-2.8C7.6,30.9,8.8,32.1,8.8,33.7z"/>
<path class="st0" d="M27.8,5.2c-0.1,1.6-1.5,2.7-3,2.6c-1.4-0.1-2.6-1.3-2.6-2.7c0.1-1.6,1.5-2.7,3-2.6C26.7,2.6,27.8,3.8,27.8,5.2z
	"/>
<path class="st0" d="M15.5,11.8c1.6,0,2.8,1.3,2.8,2.8c0,1.6-1.3,2.8-2.8,2.8c-1.5,0-2.8-1.3-2.8-2.8C12.7,13.1,14,11.9,15.5,11.8z"
	/>
<path class="st0" d="M23.1,9.9c0,1.5-1.3,2.8-2.8,2.8c-1.5,0-2.8-1.3-2.8-2.8s1.3-2.8,2.8-2.8C21.8,7.1,23.1,8.3,23.1,9.9z"/>
<path class="st0" d="M129.6,7.9c-1.5,0-2.7-1.3-2.7-2.9c0,0,0,0,0,0c0-1.5,1.2-2.8,2.8-2.8c1.5,0,2.8,1.2,2.8,2.8c0,0.1,0,0.2,0,0.2
	C132.3,6.7,131.1,7.9,129.6,7.9z"/>
<path class="st0" d="M146.7,19.4c0,1.5-1.3,2.8-2.8,2.8c-1.5,0-2.8-1.3-2.8-2.8c0-1.5,1.3-2.8,2.8-2.8c0,0,0,0,0,0
	C145.5,16.7,146.7,17.9,146.7,19.4z"/>
<path class="st0" d="M137.2,9.9c0,1.5-1.2,2.7-2.8,2.7c-1.5,0-2.7-1.2-2.7-2.8s1.2-2.7,2.8-2.7c0,0,0,0,0.1,0
	C136,7.2,137.1,8.4,137.2,9.9z"/>
<path class="st0" d="M141.9,14.8c-0.1,1.5-1.4,2.7-2.9,2.6s-2.7-1.4-2.6-2.9c0.1-1.5,1.4-2.7,2.9-2.6c0,0,0,0,0,0
	C140.9,12,142,13.3,141.9,14.8C141.9,14.8,141.9,14.8,141.9,14.8z"/>
<path class="st0" d="M13.4,28.9c0,1.5-1.2,2.6-2.6,2.7c-1.5,0-2.6-1.2-2.7-2.6c0-1.5,1.2-2.6,2.6-2.7c0,0,0,0,0,0
	C12.2,26.2,13.4,27.4,13.4,28.9C13.4,28.9,13.4,28.9,13.4,28.9z"/>
<path class="st0" d="M143.9,31.5c-1.4,0-2.6-1.2-2.6-2.6c0-1.4,1.2-2.6,2.6-2.6c1.4,0,2.6,1.1,2.6,2.6
	C146.6,30.3,145.4,31.5,143.9,31.5C144,31.5,143.9,31.5,143.9,31.5z"/>
<path class="st0" d="M10.7,35.8c1.4,0,2.6,1.1,2.6,2.6c0,1.4-1.1,2.6-2.6,2.6l0,0c-1.4,0-2.6-1.1-2.6-2.5C8.2,37,9.3,35.9,10.7,35.8
	L10.7,35.8z"/>
<path class="st0" d="M18.1,24.1c0,1.4-1.1,2.6-2.5,2.6S13,25.6,13,24.2c0-1.4,1.1-2.6,2.5-2.6C16.9,21.6,18,22.7,18.1,24.1z"/>
<path class="st0" d="M146.4,38.4c0,1.4-1.1,2.5-2.5,2.5c-1.4,0-2.5-1.1-2.5-2.5s1.1-2.5,2.5-2.5c0,0,0,0,0,0
	C145.3,35.9,146.4,37,146.4,38.4z"/>
<path class="st0" d="M146.4,47.9c0,1.3-1.1,2.4-2.4,2.4c-1.3,0-2.4-1.1-2.4-2.4c0-1.3,1.1-2.4,2.4-2.4c0,0,0.1,0,0.1,0
	C145.3,45.5,146.4,46.6,146.4,47.9C146.4,47.9,146.4,47.9,146.4,47.9z"/>
<path class="st0" d="M20.2,21.9c-1.4,0-2.4-1.2-2.4-2.5s1.2-2.4,2.5-2.4c1.3,0,2.4,1.1,2.4,2.5c0,1.3-1.1,2.4-2.4,2.4
	C20.3,21.9,20.3,21.9,20.2,21.9z"/>
<path class="st0" d="M120.2,2.7c1.3,0,2.4,1,2.4,2.3c0,0,0,0.1,0,0.1c0,1.3-1.1,2.4-2.4,2.4c-1.3,0-2.4-1.1-2.4-2.4c0,0,0,0,0,0
	c0-1.3,1-2.4,2.3-2.4C120.1,2.7,120.1,2.7,120.2,2.7z"/>
<path class="st0" d="M37,5.1c0,1.3-1,2.5-2.4,2.5c-1.3,0-2.5-1-2.5-2.4s1-2.5,2.4-2.5C35.9,2.7,37,3.7,37,5.1L37,5.1z"/>
<path class="st0" d="M32.2,9.9c0,1.3-1.1,2.4-2.5,2.4c-1.3,0-2.4-1.1-2.4-2.5c0-1.3,1.1-2.4,2.5-2.4c0,0,0,0,0,0
	C31.2,7.5,32.2,8.6,32.2,9.9C32.2,9.9,32.2,9.9,32.2,9.9z"/>
<path class="st0" d="M27.5,14.6c0,1.3-1.1,2.4-2.4,2.4c-1.3,0-2.4-1.1-2.4-2.4c0-1.3,1.1-2.4,2.4-2.4c0,0,0,0,0.1,0
	C26.4,12.2,27.5,13.3,27.5,14.6C27.5,14.6,27.5,14.6,27.5,14.6z"/>
<path class="st0" d="M139.2,21.7c1.4,0,2.5,1.1,2.4,2.5c0,1.4-1.1,2.5-2.5,2.4c-1.4,0-2.5-1.1-2.4-2.5
	C136.7,22.8,137.8,21.7,139.2,21.7C139.2,21.7,139.2,21.7,139.2,21.7z"/>
<path class="st0" d="M136.8,19.3c0,1.3-1,2.4-2.3,2.4s-2.4-1-2.4-2.3c0-1.3,1-2.4,2.3-2.4C135.6,16.9,136.7,18,136.8,19.3
	C136.8,19.3,136.8,19.3,136.8,19.3z"/>
<path class="st0" d="M127.3,9.8c0,1.3-1,2.4-2.3,2.4c-1.3,0-2.4-1-2.4-2.3s1-2.4,2.3-2.4c0,0,0,0,0.1,0
	C126.2,7.5,127.3,8.5,127.3,9.8z"/>
<path class="st0" d="M129.7,17c-1.3,0-2.4-1-2.4-2.3s1-2.4,2.3-2.4c1.3,0,2.4,1,2.4,2.3c0,0,0,0.1,0,0.1C132,15.9,131,17,129.7,17z"
	/>
<path class="st0" d="M15.6,36c-1.3,0-2.4-1-2.4-2.3c0-1.3,1-2.4,2.3-2.4s2.4,1,2.4,2.3c0,0,0,0,0,0.1C17.9,34.9,16.8,36,15.6,36z"/>
<path class="st0" d="M141.5,33.7c0,1.3-1.1,2.3-2.4,2.3s-2.3-1.1-2.3-2.4c0-1.3,1.1-2.3,2.4-2.3C140.5,31.4,141.5,32.4,141.5,33.7z"
	/>
<path class="st0" d="M139.2,40.9c1.2,0,2.2,1,2.2,2.3c0,1.2-1,2.2-2.3,2.2c-1.2,0-2.2-1-2.2-2.3C136.9,41.9,137.9,40.9,139.2,40.9
	C139.2,40.9,139.2,40.9,139.2,40.9z"/>
<path class="st0" d="M20.3,26.7c1.2,0,2.2,1,2.2,2.3c0,1.2-1,2.2-2.3,2.2c-1.2,0-2.2-1-2.2-2.3c0,0,0-0.1,0-0.1
	C18.1,27.6,19.1,26.7,20.3,26.7C20.3,26.7,20.3,26.7,20.3,26.7z"/>
<path class="st0" d="M139.1,54.9c-1.2,0-2.2-1-2.1-2.2c0-1.2,1-2.2,2.2-2.1c1.2,0,2.2,1,2.1,2.2c0,0,0,0,0,0
	C141.3,53.9,140.4,54.9,139.1,54.9C139.2,54.9,139.1,54.9,139.1,54.9z"/>
<path class="st0" d="M136.6,28.9c0,1.2-1,2.2-2.2,2.1c-1.2,0-2.2-1-2.1-2.2c0-1.2,1-2.1,2.1-2.1C135.6,26.7,136.5,27.7,136.6,28.9
	C136.6,28.9,136.6,28.9,136.6,28.9z"/>
<path class="st0" d="M46.2,5.1c0,1.2-1,2.1-2.1,2.1s-2.1-1-2.1-2.1S42.9,3,44,3S46.2,3.9,46.2,5.1z"/>
<path class="st0" d="M27.2,24.2c0,1.2-1,2.1-2.2,2.1c-1.2,0-2.1-1-2.1-2.2c0-1.2,1-2.1,2.2-2.1c0,0,0,0,0,0
	C26.2,22,27.2,23,27.2,24.2z"/>
<path class="st0" d="M39.2,12c-1.1-0.1-2-1-2-2.2c0.1-1.2,1.1-2,2.3-1.9c1,0.1,1.9,0.9,1.9,2C41.4,11.1,40.4,12,39.2,12z"/>
<path class="st0" d="M29.8,17.3c1.2,0,2.1,0.9,2.1,2.1c0,1.2-0.9,2.1-2.1,2.1c-1.2,0-2.1-0.9-2.1-2.1C27.7,18.3,28.6,17.3,29.8,17.3
	z"/>
<path class="st0" d="M36.6,14.6c0,1.1-0.9,2.1-2.1,2.1s-2.1-0.9-2.1-2.1c0-1.1,0.9-2.1,2.1-2.1c0,0,0,0,0.1,0
	C35.7,12.6,36.6,13.5,36.6,14.6z"/>
<path class="st0" d="M112.7,5.1c0,1.1-1,2-2.1,2c-1.1,0-2-1-2-2.1l0,0c0-1.1,1-2,2.1-2C111.8,3.1,112.7,4,112.7,5.1z"/>
<path class="st0" d="M20.3,36.4c1.1,0,2,0.9,2,2s-0.9,2-2,2s-2-0.9-2-2S19.2,36.4,20.3,36.4z"/>
<path class="st0" d="M134.4,40.4c-1.1,0-2-1-1.9-2.1s1-2,2.1-1.9c1.1,0,1.9,0.9,1.9,2C136.4,39.5,135.5,40.4,134.4,40.4
	C134.4,40.4,134.4,40.4,134.4,40.4z"/>
<path class="st0" d="M129.6,22.1c1.1,0,2,0.9,2,2c0,1.1-0.9,2-2,2c-1.1,0-2-0.9-2-1.9C127.6,23.1,128.5,22.1,129.6,22.1z"/>
<path class="st0" d="M117.3,9.9c0,1.1-0.9,2-2,2c-1.1,0-2-0.9-2-2c0-1.1,0.9-2,2-2c0,0,0.1,0,0.1,0C116.5,7.9,117.3,8.8,117.3,9.9
	C117.3,9.9,117.3,9.9,117.3,9.9z"/>
<path class="st0" d="M134.4,49.9c-1.1,0-2-0.9-2-2c0-1.1,0.9-2,2-2c1.1,0,2,0.9,2,2c0,0,0,0.1,0,0.1
	C136.3,49.1,135.5,49.9,134.4,49.9C134.4,49.9,134.4,49.9,134.4,49.9z"/>
<path class="st0" d="M126.8,19.4c0,1.1-0.9,1.9-1.9,1.9c-1.1,0-1.9-0.9-1.9-1.9c0-1,0.8-1.9,1.9-1.9c1-0.1,1.9,0.7,2,1.8
	C126.8,19.3,126.8,19.3,126.8,19.4z"/>
<path class="st0" d="M120.1,12.7c1.1,0,2,0.8,2,1.9s-0.8,2-1.9,2c-1.1,0-1.9-0.8-2-1.9c-0.1-1,0.7-1.9,1.8-2
	C120,12.7,120,12.7,120.1,12.7z"/>
<path class="st0" d="M25,35.5c-1,0-1.9-0.8-1.9-1.9c0-1,0.8-1.9,1.9-1.9c1,0,1.9,0.8,1.9,1.8C26.9,34.6,26.1,35.5,25,35.5z"/>
<path class="st0" d="M51.7,5.1c0-1,0.8-1.8,1.8-1.8c1,0,1.9,0.9,1.9,1.9c0,1-0.9,1.8-1.9,1.8C52.5,7,51.7,6.2,51.7,5.1z"/>
<path class="st0" d="M131.5,33.7c0,1-0.8,1.8-1.9,1.8c-1,0-1.8-0.8-1.8-1.9c0-1,0.8-1.8,1.9-1.8c0,0,0,0,0,0
	C130.7,31.9,131.5,32.7,131.5,33.7z"/>
<path class="st0" d="M101.1,3.3c1,0,1.8,0.8,1.8,1.8c0,1-0.8,1.8-1.8,1.8c-1,0-1.8-0.8-1.8-1.8C99.3,4.2,100.1,3.4,101.1,3.3z"/>
<path class="st0" d="M31.5,28.9c0,1-0.8,1.7-1.8,1.7c-1,0-1.7-0.8-1.7-1.8c0-1,0.8-1.7,1.8-1.7C30.8,27.2,31.5,28,31.5,28.9
	C31.5,28.9,31.5,28.9,31.5,28.9z"/>
<path class="st0" d="M48.8,8.2c0.9,0,1.7,0.8,1.7,1.7s-0.8,1.7-1.7,1.7s-1.7-0.8-1.7-1.7c0,0,0,0,0-0.1C47.2,8.9,47.9,8.2,48.8,8.2z
	"/>
<path class="st0" d="M129.7,54.3c-0.9,0-1.7-0.7-1.7-1.7c0-0.9,0.7-1.7,1.7-1.7c0.9,0,1.7,0.7,1.7,1.7c0,0,0,0,0,0.1
	C131.3,53.6,130.6,54.4,129.7,54.3z"/>
<path class="st0" d="M129.7,41.5c0.9,0,1.7,0.8,1.7,1.7c0,0.9-0.8,1.7-1.7,1.7c-0.9,0-1.7-0.8-1.7-1.7c0,0,0,0,0,0
	C128,42.2,128.7,41.5,129.7,41.5C129.6,41.5,129.7,41.5,129.7,41.5z"/>
<path class="st0" d="M126.6,28.9c0,0.9-0.7,1.7-1.6,1.7s-1.7-0.7-1.7-1.6c0-0.9,0.7-1.7,1.6-1.7c0,0,0,0,0,0
	C125.8,27.3,126.5,28,126.6,28.9z"/>
<path class="st0" d="M36.2,24.1c0,0.9-0.7,1.7-1.6,1.7c-0.9,0-1.7-0.7-1.7-1.6c0-0.9,0.7-1.7,1.6-1.7C35.4,22.5,36.2,23.2,36.2,24.1
	z"/>
<path class="st0" d="M44.1,13c0.9,0.1,1.6,0.9,1.5,1.8c-0.1,0.9-0.9,1.6-1.8,1.5c0,0,0,0,0,0c-0.9-0.1-1.5-0.8-1.5-1.7
	C42.5,13.7,43.2,13,44.1,13z"/>
<path class="st0" d="M40.9,19.4c0,0.9-0.7,1.6-1.6,1.6c-0.9,0-1.6-0.7-1.6-1.6c0-0.9,0.7-1.6,1.6-1.6c0,0,0,0,0.1,0
	C40.2,17.8,40.9,18.5,40.9,19.4z"/>
<path class="st0" d="M26.6,43.2c0,0.9-0.7,1.6-1.6,1.6c-0.9,0-1.6-0.7-1.6-1.6s0.7-1.6,1.6-1.6c0,0,0,0,0,0
	C25.9,41.6,26.6,42.3,26.6,43.2z"/>
<path class="st0" d="M105.9,8.3c0.9,0,1.6,0.8,1.6,1.7c0,0.9-0.8,1.6-1.7,1.6s-1.6-0.8-1.6-1.7c0,0,0,0,0,0
	C104.3,8.9,105,8.3,105.9,8.3z"/>
<path class="st0" d="M121.6,24.1c0.1,0.8-0.5,1.4-1.3,1.5c-0.1,0-0.1,0-0.2,0c-0.7,0.1-1.4-0.4-1.5-1.2c0-0.1,0-0.2,0-0.3
	c-0.1-0.7,0.4-1.4,1.2-1.5c0.1,0,0.2,0,0.3,0c0.8-0.1,1.4,0.5,1.5,1.3C121.6,24,121.6,24.1,121.6,24.1z"/>
<path class="st0" d="M124.9,37c0.8,0,1.4,0.6,1.5,1.3c0,0.1,0,0.1,0,0.2c0,0.7-0.5,1.4-1.3,1.4c-0.1,0-0.1,0-0.2,0
	c-0.8,0-1.5-0.6-1.5-1.5S124.1,37,124.9,37L124.9,37z"/>
<path class="st0" d="M112.1,14.5c0.1,0.8-0.5,1.5-1.3,1.6c-0.1,0-0.1,0-0.2,0c-0.8,0-1.4-0.6-1.4-1.3c0,0,0-0.1,0-0.1
	c0-0.8,0.5-1.4,1.3-1.5c0.1,0,0.1,0,0.2,0C111.4,13.2,112,13.7,112.1,14.5z"/>
<path class="st0" d="M115.4,18c0.9,0.1,1.4,0.6,1.4,1.5c0.1,0.8-0.5,1.5-1.3,1.5c-0.8,0.1-1.5-0.5-1.5-1.3c0-0.1,0-0.2,0-0.2
	C114,18.5,114.5,18,115.4,18z"/>
<path class="st0" d="M64.6,5.1c0,0.8-0.6,1.4-1.3,1.5c-0.1,0-0.1,0-0.2,0c-0.7,0.1-1.4-0.5-1.4-1.2c0-0.1,0-0.2,0-0.3
	c0-0.7,0.5-1.4,1.2-1.4c0,0,0.1,0,0.1,0c0.8-0.1,1.5,0.5,1.6,1.2C64.6,5,64.6,5,64.6,5.1z"/>
<path class="st0" d="M91.7,3.7c0.8,0,1.4,0.6,1.4,1.4c0,0,0,0,0,0.1c0,0.8-0.7,1.4-1.5,1.4c-0.8,0-1.4-0.7-1.4-1.5l0,0
	C90.2,4.2,90.8,3.6,91.7,3.7C91.6,3.7,91.6,3.7,91.7,3.7z"/>
<path class="st0" d="M124.9,56.1c0.8,0.1,1.3,0.6,1.3,1.4c0,0.7-0.5,1.4-1.3,1.4c-0.7,0-1.4-0.5-1.4-1.3c0-0.1,0-0.1,0-0.2
	C123.5,56.7,124.1,56.1,124.9,56.1C124.9,56.1,124.9,56.1,124.9,56.1z"/>
<path class="st0" d="M59.7,9.9c-0.1,0.8-0.6,1.3-1.4,1.3c-0.7,0-1.3-0.5-1.3-1.2c0,0,0-0.1,0-0.1c0-0.7,0.5-1.3,1.2-1.3
	c0.1,0,0.1,0,0.2,0C59.1,8.6,59.7,9.2,59.7,9.9C59.7,9.9,59.7,9.9,59.7,9.9z"/>
<path class="st0" d="M124.9,49.3c-0.8-0.1-1.4-0.6-1.4-1.5c0-0.7,0.5-1.3,1.2-1.3c0.1,0,0.1,0,0.2,0c0.7-0.1,1.3,0.5,1.4,1.2
	c0,0.1,0,0.2,0,0.3C126.3,48.8,125.6,49.4,124.9,49.3z"/>
<path class="st0" d="M29.8,37.1c0.9,0.1,1.4,0.6,1.3,1.4c0,0.7-0.6,1.3-1.4,1.3c-0.7,0-1.3-0.6-1.3-1.3C28.4,37.7,29,37.1,29.8,37.1
	C29.8,37.1,29.8,37.1,29.8,37.1z"/>
<path class="st0" d="M82.1,3.9c0.6,0,1.2,0.4,1.2,1.1c0,0.1,0,0.1,0,0.2c0,0.6-0.4,1.2-1,1.2c-0.1,0-0.2,0-0.3,0
	c-0.6,0-1.1-0.4-1.2-1c0-0.1,0-0.1,0-0.2c-0.1-0.6,0.4-1.2,1-1.3C81.9,3.9,82,3.9,82.1,3.9z"/>
<path class="st0" d="M73.8,5.1c0.1,0.6-0.4,1.2-1.1,1.3c-0.1,0-0.1,0-0.2,0c-0.6,0.1-1.2-0.4-1.2-1c0-0.1,0-0.2,0-0.3
	c0-0.6,0.4-1.2,1-1.2c0.1,0,0.1,0,0.2,0c0.6-0.1,1.2,0.4,1.3,1C73.8,5,73.8,5,73.8,5.1z"/>
<path class="st0" d="M120.1,32.4c0.8,0.1,1.2,0.5,1.2,1.2c0,0.7-0.5,1.2-1.1,1.3c-0.7,0-1.2-0.5-1.3-1.1c0-0.1,0-0.1,0-0.2
	C118.9,33,119.4,32.5,120.1,32.4C120.1,32.4,120.1,32.4,120.1,32.4z"/>
<path class="st0" d="M35.8,33.7c0,0.6-0.4,1.2-1.1,1.2c-0.1,0-0.1,0-0.2,0c-0.6,0-1.1-0.4-1.2-1c0-0.1,0-0.1,0-0.2
	c-0.1-0.6,0.4-1.2,1-1.2c0.1,0,0.2,0,0.3,0c0.6,0,1.2,0.5,1.2,1.1C35.8,33.6,35.8,33.6,35.8,33.7z"/>
<path class="st0" d="M96.4,8.6c0.8,0.1,1.3,0.5,1.3,1.3c0,0.7-0.6,1.2-1.3,1.2c-0.7,0-1.2-0.6-1.2-1.3c0-0.7,0.5-1.2,1.2-1.2
	C96.3,8.6,96.3,8.6,96.4,8.6z"/>
<path class="st0" d="M53.5,13.4c0.8,0.1,1.2,0.5,1.2,1.2c0,0.7-0.6,1.2-1.2,1.2c-0.7,0-1.2-0.6-1.2-1.2l0,0
	C52.4,14,52.9,13.4,53.5,13.4z"/>
<path class="st0" d="M40.5,29c-0.1,0.7-0.5,1.1-1.2,1.1c-0.6,0-1.1-0.4-1.1-1c0-0.1,0-0.2,0-0.2c0-0.6,0.5-1,1.1-1c0,0,0.1,0,0.1,0
	C40,27.9,40.5,28.4,40.5,29z"/>
<path class="st0" d="M120.2,44.2c-0.7-0.1-1.1-0.4-1.1-1.1c0-0.6,0.4-1,1-1c0.1,0,0.1,0,0.2,0c0.6,0,1,0.4,1,1c0,0,0,0.1,0,0.1
	C121.2,43.8,120.8,44.3,120.2,44.2C120.2,44.2,120.2,44.2,120.2,44.2z"/>
<path class="st0" d="M49.9,19.4c0,0.6-0.4,1-1,1c0,0-0.1,0-0.1,0c-0.6,0-1-0.5-1-1.1c0-0.6,0.5-1,1.1-1c0.6,0,1,0.5,1,1
	C49.9,19.3,49.9,19.4,49.9,19.4z"/>
<path class="st0" d="M102.2,14.6c0,0.6-0.5,1.1-1.1,1.1c0,0-0.1,0-0.1,0c-0.6-0.1-1-0.6-1-1.2c0.1-0.5,0.5-0.9,1-1
	C101.7,13.5,102.2,14,102.2,14.6C102.2,14.6,102.2,14.6,102.2,14.6z"/>
<path class="st0" d="M45.1,24.1c0,0.7-0.4,1.1-1,1.1c-0.6,0-1-0.4-1-1c0-0.6,0.4-1,1-1C44.6,23.1,45,23.5,45.1,24.1
	C45.1,24.1,45.1,24.1,45.1,24.1z"/>
<path class="st0" d="M120.1,51.7c0.6,0,1,0.4,1,1c0,0,0,0,0,0.1c0,0.6-0.4,1-1,1s-1-0.4-1-1C119.1,52.1,119.5,51.7,120.1,51.7
	C120.1,51.7,120.1,51.6,120.1,51.7z"/>
<path class="st0" d="M114.4,28.9c-0.1-0.5,0.3-0.9,0.8-1c0,0,0.1,0,0.1,0c0.5-0.1,1.1,0.2,1.2,0.7s-0.2,1.1-0.7,1.2
	c-0.2,0-0.4,0-0.5,0C114.8,29.9,114.4,29.5,114.4,28.9C114.4,28.9,114.4,28.9,114.4,28.9z"/>
<path class="st0" d="M68.8,9.8c-0.1,0.6-0.4,1-1,1c-0.5,0-0.9-0.3-0.9-0.8c0,0,0-0.1,0-0.1C66.8,9.4,67.2,9,67.7,9
	c0.1,0,0.2,0,0.2,0C68.4,9,68.7,9.3,68.8,9.8z"/>
<path class="st0" d="M86.9,10.8c-0.7-0.1-1-0.4-1-1c0-0.5,0.3-0.9,0.8-0.9c0,0,0.1,0,0.1,0c0.5-0.1,0.9,0.2,1,0.7c0,0.1,0,0.2,0,0.3
	C87.8,10.4,87.4,10.8,86.9,10.8z"/>
<path class="st0" d="M78.2,9.9c-0.1,0.5-0.3,0.9-0.8,0.8c-0.4,0-0.8-0.3-0.8-0.7c0-0.1,0-0.1,0-0.2c0-0.4,0.4-0.8,0.8-0.7
	c0,0,0.1,0,0.1,0C77.8,9.1,78.2,9.4,78.2,9.9z"/>
<path class="st0" d="M106.8,19.4c-0.1,0.5-0.4,0.9-0.9,0.9c-0.5,0-0.9-0.4-0.8-0.9c0-0.5,0.4-0.9,0.9-0.8l0,0
	C106.4,18.5,106.8,18.9,106.8,19.4z"/>
<path class="st0" d="M110.6,24.9c-0.4,0-0.7-0.3-0.7-0.7c0,0,0-0.1,0-0.1c0-0.4,0.3-0.7,0.7-0.7c0,0,0.1,0,0.1,0
	c0.4,0,0.7,0.3,0.7,0.7c0,0.1,0,0.1,0,0.2C111.4,24.7,111,25,110.6,24.9C110.6,24.9,110.6,24.9,110.6,24.9z"/>
<path class="st0" d="M116.1,38.4c0,0.4-0.3,0.7-0.7,0.7c0,0-0.1,0-0.1,0c-0.4,0-0.7-0.3-0.7-0.6c0-0.1,0-0.1,0-0.2
	c0-0.4,0.3-0.6,0.6-0.6c0,0,0,0,0.1,0c0.4,0,0.7,0.3,0.7,0.6C116.1,38.4,116.1,38.4,116.1,38.4z"/>
<path class="st0" d="M34.6,43.9c-0.4,0-0.7-0.2-0.7-0.6c0,0,0,0,0,0c0-0.4,0.2-0.7,0.6-0.7s0.7,0.2,0.7,0.6
	C35.2,43.5,35,43.8,34.6,43.9z"/>
<path class="st0" d="M63,13.9c0.5,0.1,0.7,0.3,0.7,0.7c0,0.4-0.3,0.7-0.6,0.7c-0.1,0-0.1,0-0.2,0c-0.4,0-0.6-0.3-0.6-0.7
	c0,0,0,0,0-0.1C62.4,14.2,62.7,14,63,13.9z"/>
<path class="st0" d="M115.3,56.8c0.3,0,0.6,0.2,0.6,0.6c0,0,0,0,0,0c0,0.3-0.3,0.6-0.6,0.6c-0.3,0-0.5-0.2-0.6-0.5
	C114.8,57.1,115,56.9,115.3,56.8z"/>
<path class="st0" d="M91.6,15.3c-0.4-0.1-0.7-0.3-0.6-0.7c0-0.4,0.3-0.6,0.7-0.6s0.6,0.3,0.6,0.7l0,0C92.2,15,91.9,15.3,91.6,15.3z"
	/>
<path class="st0" d="M116.1,47.9c-0.1,0.4-0.3,0.7-0.7,0.7c-0.3,0-0.6-0.3-0.6-0.6c0,0,0-0.1,0-0.1c0-0.3,0.3-0.6,0.6-0.6
	C115.8,47.2,116,47.6,116.1,47.9z"/>
<path class="st0" d="M17.2,0.3C17.2,0.3,17.2,0.3,17.2,0.3c0,1.8,1.4,3.1,3.1,3.1c1.7,0,3.1-1.4,3-3.1H17.2z"/>
<path class="st0" d="M27,0.3L27,0.3c0,1.5,1.3,2.8,2.8,2.8c1.5-0.1,2.7-1.3,2.8-2.8l0,0L27,0.3z"/>
<path class="st0" d="M36.8,0.3L36.8,0.3c0,1.4,1.1,2.5,2.5,2.5s2.5-1.1,2.5-2.5l0,0H36.8z"/>
<path class="st0" d="M46.6,0.3c0,1.2,1,2.2,2.2,2.2c1.2,0,2.2-1,2.2-2.2l0,0L46.6,0.3z"/>
<path class="st0" d="M56.4,0.3L56.4,0.3c0.1,1.1,1,1.9,2.1,1.8c1-0.1,1.7-0.8,1.8-1.8l0,0H56.4z"/>
<path class="st0" d="M66.1,0.3c0,0.9,0.7,1.7,1.6,1.7c0.9,0.1,1.7-0.6,1.8-1.5c0,0,0-0.1,0-0.1c0,0,0,0,0-0.1H66.1z"/>
<path class="st0" d="M75.7,0.3c0,0.9,0.7,1.6,1.6,1.7c0.9,0,1.7-0.6,1.8-1.6c0,0,0-0.1,0-0.1H75.7z"/>
<path class="st0" d="M94.4,0.3c-0.1,1,0.7,1.9,1.8,2c0,0,0.1,0,0.1,0c1,0.1,1.9-0.7,2-1.7c0-0.1,0-0.1,0-0.2V0.3H94.4z"/>
<path class="st0" d="M85.2,0.3c0,0.9,0.8,1.7,1.7,1.7c0.9,0,1.7-0.8,1.7-1.7c0,0,0,0,0,0H85.2z"/>
<path class="st0" d="M103.7,0.3L103.7,0.3c0.1,1.2,1.1,2.1,2.3,2c1.1-0.1,2-0.9,2-2l0,0H103.7z"/>
<path class="st0" d="M113,0.3L113,0.3c0,1.3,1,2.4,2.3,2.4c0,0,0.1,0,0.1,0c1.3,0,2.4-1,2.5-2.3c0,0,0-0.1,0-0.1l0,0L113,0.3z"/>
<path class="st0" d="M122.1,0.3c0,1.5,1.2,2.7,2.7,2.8c1.5,0,2.8-1.2,2.8-2.7c0,0,0,0,0-0.1H122.1z"/>
<path class="st0" d="M131.3,0.3c0,1.7,1.3,3.1,3,3.1c1.7,0,3.1-1.3,3.1-3V0.3H131.3z"/>
<path class="st0" d="M1.3,25.8c-0.3,0-0.5,0-0.8,0.1v5.9C0.7,31.9,0.9,32,1.1,32c1.7,0,3.1-1.3,3.1-3C4.3,27.3,3,25.9,1.3,25.8
	L1.3,25.8z"/>
<path class="st0" d="M1.3,35.4c-0.2,0-0.5,0-0.7,0.1l0.1,5.9c0.2,0,0.3,0.1,0.5,0.1c1.7,0,3-1.3,3.1-2.9C4.3,36.8,2.9,35.5,1.3,35.4
	L1.3,35.4z"/>
<path class="st0" d="M8.6,44.2c0.1-0.3,0.2-0.7,0.2-1c0-1.5-1.2-2.7-2.7-2.8c-1.5,0-2.8,1.2-2.9,2.7c0,0.7,0.2,1.3,0.6,1.8
	C5.1,44.7,6.8,44.4,8.6,44.2z"/>
<path class="st0" d="M17.7,43.8c0.1-0.2,0.1-0.4,0.1-0.6c0.1-1.3-0.9-2.3-2.1-2.4c-1.3-0.1-2.3,0.9-2.4,2.1c0,0.1,0,0.2,0,0.3
	c0,0.2,0,0.4,0.1,0.6C14.8,43.8,16.2,43.7,17.7,43.8z"/>
<path class="st0" d="M149.8,11.8c-0.1,0-0.1-0.1-0.2-0.1c-1.2-0.4-2.5-0.1-3.3,0.9c-1.1,1.3-1,3.2,0.3,4.4c0.7,0.6,1.5,0.8,2.4,0.7
	c0.3,0,0.5-0.1,0.8-0.2V11.8z"/>
<path class="st0" d="M149.8,21.5c-0.4-0.2-0.8-0.2-1.2-0.2c-1.6,0-2.9,1.2-2.9,2.8c0,1.6,1.2,2.9,2.8,2.9c0.4,0,0.8-0.1,1.2-0.2
	L149.8,21.5z"/>
<path class="st0" d="M149.8,31.1c-0.4-0.2-0.8-0.3-1.2-0.3c-1.5,0-2.8,1.2-2.8,2.8c0,1.5,1.2,2.8,2.8,2.8c0,0,0,0,0,0
	c0.4,0,0.8-0.1,1.1-0.3L149.8,31.1z"/>
<path class="st0" d="M149.8,40.7c-0.4-0.2-0.8-0.3-1.2-0.3c-1.5,0-2.7,1.2-2.7,2.7c0,1.5,1.2,2.7,2.7,2.7c0.4,0,0.8-0.1,1.2-0.3
	V40.7z"/>
<path class="st1" d="M149.7,52.3v156.7H0.6V47.2L1,45.4c4-0.9,26.7-5.2,52.4,8.9c28.4,15.5,64.2,8.8,73.6,5.1
	c6.9-2.7,15.2-6.5,22.5-9L149.7,52.3z"/>
<path d="M95.3,64.7c-13.2,0-28.4-2.3-42.2-9.8C26.8,40.4,3.5,45.4,0.9,46c-0.3,0.1-0.7-0.1-0.8-0.5c-0.1-0.3,0.1-0.7,0.5-0.8
	c0,0,0,0,0,0c2.6-0.6,26.4-5.7,53.1,8.9c29.5,16.2,65.7,7.9,73.1,5c2.4-0.9,4.9-2,7.6-3.1c5-2.1,10.1-4.2,15-5.9
	c0.3-0.1,0.7,0.1,0.8,0.4c0,0,0,0,0,0c0.1,0.3-0.1,0.7-0.4,0.8c-4.8,1.6-9.9,3.8-14.9,5.8c-2.7,1.2-5.3,2.2-7.7,3.2
	C123.2,61.5,110.7,64.7,95.3,64.7z"/>
<path class="st2" d="M124.2,209.2c-1.2-7.1-8.8-8-8.8-8c-0.1-1.8-0.1-3.6,0.2-5.4c-3.7,0.6-7.5,1-11.2,1.1l-0.8,12"/>
<path class="st3" d="M104.9,208.8c0.5-5.1,0.6-10.2,0.4-15.4c-0.4-11.7-5.2-18.6-5.2-18.6l-5.2-0.2l-4.6-0.9l-6.4,0.6H71.4l-4.6-0.7
	l-1.5-0.4l-2.1,0.8l-4.2,0.1l-2.4,0.2c0,0-4.8,6.9-5.2,18.6c-0.2,5.1,0,10.3,0.4,15.4l0.1,1L104.9,208.8z"/>
<path class="st4" d="M119.2,179.8l-0.6-17.6c-1.6-19.4-5.6-27.8-5.6-27.8c-7.9-18.9-17.2-19.1-17.2-19.1c-1-6.5-6.7-5.9-7.8-5.5
	l0.6,1.9l-0.7,2l-3.7,4l-3.6,2.9l-1.3,0.6l-0.9,1.3l-0.9-0.9l-2.7-1.8l-6.6-6.3c-0.5-1.1-0.4-2.4,0.4-3.3c0,0,0.4-1.4-2.4-1
	s-4.9,4-4.9,4s-0.4-0.3-2.2,0.2c-2.4-1.6-5-2.9-7.7-3.9l-1.1-0.4c0,0-1.1-3.1-2.9-3.6c0.7-2,1.2-4.2,1.5-6.3c0.2,0,0.3,0.1,0.5,0.2
	c1.1,0.4,2.5,1.2,3.7-1.8c0.7-1.9,1.2-3.8,1.5-5.7l-2.2-4.1L49,88.5l-7-0.3l-3.7-2.1l-3-3.2l-2.6-3.7c0,0-2.3,0.1-4.8,3.9
	s-6.7,10-7.5,10.6c2.6-0.4,5.3-0.4,7.9,0.1l1.2,0.3L28,93.8c0,0-3.9,13.6,0.4,22.6s20.7,18,26.3,20l-0.7,2.5
	c-6.6,20.9-4.4,29.7,0.6,33.3s11.1,0.9,11.1,0.9c1.4,1,1.5,0.9,11.5,1.1c11.1,0.3,13.5-0.7,13.5-0.7c3.6,2.4,9.5,1,9.5,1
	c1.2,2.2,2.2,4.6,3,6.9l2.4,15.3c4.7,0.1,9.4-0.7,13.9-2.4c3.1-1.2,2.8-4.7,3.2-7.5s1.9-9.7,1.9-9.7
	C123,178.3,121.2,179.3,119.2,179.8z"/>
<path class="st2" d="M115.9,59.5l-10-0.1l2-12.9l-27.2-2.5L64,46.3l-5.8,5.6L47.4,41.1c0,0-6.2-1.3-10.2,8.8
	c-2.3,4.7-3.6,9.9-4,15.2l0.3-0.1c-1.2,2.4-1.8,5-1.7,7.6c0.2,6.8,3.2,11.9,7.4,14.2c4.2,2.1,9.1,2.1,13.3,0.2
	c1,2.9,2.5,5.7,4.4,8.1c3,4,7.7,6.2,12.2,7.4c0.4,5.8-0.8,8.3-0.8,8.3s-1.6,1.7,1.5,4.2c0,0,3.9,4.1,6.3,5.4
	c0.9,0.5,1.6,1.2,2.1,2.1l7.1-6.2l3.1-3.2v-2.3c-1.1-0.8-1.3-4.7-1.3-7.4c8.2-1.5,15-7.1,18-14.8c7.3,2.2,17.4-0.1,19.2-13
	S115.9,59.5,115.9,59.5z M51.9,61.1c-0.3-0.4-0.6-0.8-1-1.1l1.7-0.5L52.4,63c0.4,2.5,0.5,5,0.3,7.5c0,0.6-0.1,1.2-0.3,1.8
	c-0.3,1.5-0.6,3-0.8,4.4l-0.2,4.4c0-1.5,0-2.9,0.2-4.4L52.4,63C52.3,62.3,52.1,61.7,51.9,61.1L51.9,61.1z"/>
<path d="M119.2,179.9c-0.3,0-0.6-0.3-0.6-0.6l-0.5-17.2c-1.5-19-5.5-27.4-5.6-27.5c-7.6-18.3-16.5-18.8-16.6-18.8
	c-0.4,0-0.6-0.3-0.6-0.7c0,0,0,0,0,0c0-0.3,0.3-0.6,0.6-0.6c0,0,0,0,0,0c0.4,0,9.8,0.5,17.8,19.5c0.2,0.3,4.1,8.7,5.7,28l0.5,17.2
	C119.8,179.7,119.6,180,119.2,179.9C119.2,180,119.2,180,119.2,179.9L119.2,179.9z"/>
<path d="M106.7,197.4c-0.4,0-0.8,0-1.2,0c-0.4,0-0.6-0.3-0.6-0.7c0-0.4,0.3-0.6,0.7-0.6l0,0c4.6,0,9.2-0.7,13.6-2.3
	c2.2-0.8,2.4-3.1,2.7-5.5c0-0.5,0.1-1,0.2-1.5c0.3-2,1.1-5.9,1.6-8.1c-7,4.3-20,3.1-20.6,3c-0.4,0-0.6-0.3-0.6-0.7c0,0,0,0,0,0
	c0-0.4,0.4-0.6,0.7-0.6c0.2,0,14.9,1.4,21-3.7c0.2-0.2,0.5-0.2,0.8-0.1c0.2,0.1,0.4,0.4,0.3,0.7c0,0.1-1.5,6.9-1.9,9.7
	c-0.1,0.5-0.1,1-0.2,1.5c-0.2,2.6-0.5,5.5-3.5,6.6C115.5,196.4,111.1,197.2,106.7,197.4z"/>
<path d="M124.2,209.6c-0.3,0-0.6-0.2-0.6-0.5c-1.2-6.4-7.9-7.3-8.2-7.3c-0.3,0-0.5-0.3-0.6-0.6c-0.1-1.9-0.1-3.7,0.2-5.6
	c0-0.4,0.4-0.6,0.7-0.6c0,0,0,0,0,0c0.4,0.1,0.6,0.4,0.6,0.7c-0.2,1.6-0.3,3.2-0.2,4.8c1.8,0.4,7.6,2,8.8,8.3
	c0.1,0.4-0.2,0.7-0.5,0.8L124.2,209.6z"/>
<path d="M116.6,188.8c-1.8,0-3.2-1.4-3.2-3.2c0-1.8,1.4-3.2,3.2-3.2s3.2,1.4,3.2,3.2l0,0C119.8,187.4,118.4,188.8,116.6,188.8z
	 M116.6,183.7c-1,0-1.9,0.8-1.9,1.9c0,1,0.8,1.9,1.9,1.9c1,0,1.9-0.8,1.9-1.9c0,0,0,0,0,0C118.5,184.6,117.7,183.7,116.6,183.7
	L116.6,183.7z"/>
<path d="M33.2,65.7L33.2,65.7c-0.4,0-0.6-0.3-0.6-0.7c0,0,0,0,0,0c0.3-5.3,1.7-10.6,4-15.4c4.2-10.4,10.6-9.2,10.9-9.1
	c0.4,0.1,0.6,0.4,0.5,0.8c-0.1,0.3-0.4,0.6-0.8,0.5c-0.2,0-5.7-1-9.5,8.4c-2.2,4.7-3.6,9.8-3.9,15C33.9,65.5,33.6,65.7,33.2,65.7z"
	/>
<path d="M50.9,100.3c-0.5,0-1.1-0.2-1.5-0.4l-0.2-0.1c-1.1-0.4-17-4.6-21-5.4c-2.5-0.5-5.1-0.5-7.6-0.1c-0.4,0.1-0.7-0.2-0.8-0.5
	c-0.1-0.3,0.1-0.5,0.3-0.7c0.6-0.4,3.6-4.7,7.3-10.4c2.7-4.1,5.2-4.2,5.3-4.2c0.4,0,0.7,0.3,0.7,0.6c0,0,0,0,0,0
	c0,0.4-0.3,0.7-0.6,0.7c-0.1,0-2,0.2-4.3,3.6c-1.8,2.8-4.7,7.1-6.4,9.3c2.1-0.2,4.3-0.1,6.4,0.4c4.2,0.9,20,5,21.2,5.5l0.2,0.1
	c0.4,0.3,0.9,0.3,1.4,0.2c0.6-0.4,1-1,1.2-1.8c0.7-1.8,1.1-3.7,1.4-5.6c0.1-0.4,0.4-0.6,0.7-0.5c0.3,0.1,0.6,0.4,0.5,0.7
	c-0.3,2-0.8,4-1.5,5.9c-0.3,1-1,1.9-1.9,2.5C51.4,100.3,51.2,100.4,50.9,100.3z"/>
<path d="M30.1,92.5c-1.8,0-3.2-1.4-3.2-3.2c0-1.8,1.4-3.2,3.2-3.2c1.8,0,3.2,1.4,3.2,3.2C33.3,91.1,31.9,92.5,30.1,92.5
	C30.1,92.5,30.1,92.5,30.1,92.5z M30.1,87.4c-1,0-1.9,0.8-1.9,1.9c0,1,0.8,1.9,1.9,1.9s1.9-0.8,1.9-1.9c0,0,0,0,0,0
	C32,88.3,31.2,87.4,30.1,87.4C30.1,87.4,30.1,87.4,30.1,87.4z"/>
<path d="M47.3,105.7c-0.4,0-0.7-0.3-0.7-0.6c0-0.1,0-0.2,0.1-0.4c1-1.7,1.3-5.5,1.3-5.6c0-0.4,0.3-0.6,0.7-0.6
	c0.4,0,0.6,0.3,0.6,0.7c0,0.2-0.2,4.2-1.5,6.2C47.7,105.6,47.5,105.7,47.3,105.7z"/>
<path d="M50.1,109.5c-0.3,0-0.6-0.2-0.6-0.5c-1.1-4.1-6.9-4.5-7-4.5c-0.4,0-0.6-0.3-0.6-0.7c0-0.4,0.3-0.6,0.7-0.6
	c0.3,0,6.8,0.4,8.2,5.5c0.1,0.4-0.1,0.7-0.5,0.8L50.1,109.5z"/>
<path d="M58.7,113.9c-0.2,0-0.3-0.1-0.5-0.2c0,0-1-0.9-5.7-3.2s-7.7-0.3-7.8-0.2c-0.3,0.2-0.7,0.2-0.9-0.1s-0.2-0.7,0.1-0.9
	c0,0,0,0,0.1,0c0.2-0.1,3.8-2.5,9.1,0.1c4.9,2.4,6,3.3,6,3.4c0.2,0.3,0.2,0.7,0,0.9C59,113.9,58.9,113.9,58.7,113.9z"/>
<path d="M56.4,115.6c-0.2,0-0.3-0.1-0.5-0.2c-0.3-0.3-0.3-0.7,0-0.9c0,0,0,0,0,0c0.1-0.1,2.6-2.6,5.4-1.6c0.3,0.1,0.5,0.5,0.4,0.8
	c0,0,0,0,0,0c-0.1,0.3-0.5,0.5-0.8,0.4c-2-0.7-4,1.2-4.1,1.3C56.7,115.5,56.5,115.6,56.4,115.6z"/>
<path d="M54.7,137c-0.1,0-0.1,0-0.2,0c-5.8-2-22.3-11.1-26.7-20.3s-0.6-22.5-0.4-23c0.1-0.3,0.5-0.5,0.8-0.4s0.5,0.5,0.4,0.8l0,0
	c0,0.1-3.8,13.5,0.4,22.1s20.5,17.7,25.9,19.6c0.3,0.1,0.5,0.5,0.4,0.8c0,0,0,0,0,0C55.2,136.9,55,137,54.7,137z"/>
<path class="st5" d="M88.7,74.6c1.9-0.5,3.5-1.8,4.4-3.6c1.2-2.2,1.1-4.9-0.3-7l-7.5-0.5c0,0-4.1,2.4-1.9,7.8l2.9,1.1l1.4,1.4"/>
<path class="st5" d="M67,66.3c-2.6,1.8-3.2,5.3-1.5,7.8c1.7,2.5,5,3.2,7.6,1.6c2.1-1.4,3.1-4,2.5-6.5c-0.2-1.7-1.4-3.2-3.1-3.8"/>
<path d="M70.2,77.3c-0.9,0-1.8-0.2-2.7-0.6c-1.9-0.8-3.2-2.6-3.5-4.6c-0.5-2.5,0.6-5,2.7-6.3c0.3-0.2,0.7-0.2,0.9,0.1
	c0.2,0.3,0.2,0.7-0.1,0.9c0,0-0.1,0.1-0.1,0.1c-1.6,1.1-2.4,3.1-2.1,5c0.2,1.6,1.3,2.9,2.8,3.6c1.5,0.7,3.3,0.6,4.7-0.3
	c1.9-1.3,2.8-3.6,2.2-5.8c-0.2-1-0.9-2.9-2.6-3.3c-0.4-0.1-0.6-0.4-0.5-0.7s0.4-0.6,0.7-0.5c0,0,0.1,0,0.1,0
	c1.9,0.7,3.3,2.3,3.5,4.3c0.7,2.7-0.4,5.6-2.8,7.2C72.5,77,71.4,77.3,70.2,77.3z"/>
<path class="st5" d="M79.4,82.3c-1.7,0.2-3.5,0.2-5.2,0.1c-2.4-0.1-6.2,1.6-5.9,5.4s3.4,5.7,6.5,4.9s6.4-2.7,8.5-2.4s9.5,2,11.1-3.3
	c1.5-4.8-4.9-6.3-6.6-6.1l-1.2,1.4l-2.6,0.9l-2.9-0.5"/>
<path class="st6" d="M116.7,33.8c-3.2-2.9-7.4-4.3-11.7-3.8c-7.5,0.7-9.1,2-15.9-1S74.5,26.4,70,28.7s-7.2,5.2-10.8,5.5
	c-5.7,0.6-14,6.8-16.2,13.9c-0.6,1.8-1,3.6-1.2,5.5c-0.1,1.5-0.5,3-1.1,4.4l1.5-0.2l5.6,0.1l4.5,3.4c4.6-0.8,6.5-6.5,8-8
	s2.7-0.8,8.2-1.1s11.3-5,11.3-5l4.4,4l3.9,1.8l3.9,0.7l4.2-0.2c1.7,3.5,6,9.2,15,8.1c4.1-0.9,6.9-4.6,6.5-8.8c0,0-0.6-4.3,0.3-6.2
	C118.9,45.2,121.4,38,116.7,33.8z"/>
<path d="M93.4,54.4c-12.3,0-16-11.2-16-11.3c-0.1-0.3,0.1-0.7,0.4-0.8c0,0,0,0,0,0c0.3-0.1,0.7,0.1,0.8,0.4c0,0,0,0,0,0
	c0.2,0.5,4,12,17.7,10.2c0.4,0,0.7,0.2,0.7,0.6c0,0.4-0.2,0.7-0.6,0.7C95.5,54.3,94.4,54.4,93.4,54.4z"/>
<path d="M109.2,62.4c-11.6,0-14.5-11.3-14.6-11.4c-0.1-0.4,0.1-0.7,0.5-0.8c0.3-0.1,0.7,0.1,0.8,0.5c0,0,0,0,0,0
	C96,51.2,99,62.4,111.3,61c3.8-0.8,6.4-4.3,6-8.1c-0.1-0.4-0.6-4.5,0.3-6.5s2.8-8.4-1.3-12c-3-2.8-7.1-4.1-11.2-3.6
	c-1.6,0.1-3,0.3-4.2,0.5c-4.2,0.5-6.5,0.8-12-1.6c-7.1-3.2-14.6-2.4-18.5-0.3c-1.5,0.8-2.8,1.6-4,2.4c-2.4,1.6-4.5,2.9-7,3.2
	C54,35.5,46,41.6,43.8,48.5c-0.6,1.7-0.9,3.5-1.2,5.3c-0.2,1.6-0.6,3.2-1.2,4.7c-0.2,0.3-0.5,0.5-0.9,0.3c-0.3-0.2-0.5-0.5-0.3-0.9
	c0.6-1.3,0.9-2.8,1.1-4.2c0.2-1.9,0.6-3.8,1.1-5.7c2.3-7.4,10.9-13.8,16.7-14.4c2.2-0.2,4-1.4,6.4-3c1.2-0.8,2.6-1.7,4.2-2.5
	c4.2-2.2,12.1-3.1,19.6,0.2c5.2,2.3,7.1,2,11.3,1.5c1.2-0.2,2.6-0.3,4.3-0.5c4.5-0.5,8.9,0.9,12.2,4c4.6,4.1,2.7,11.2,1.6,13.5
	c-0.7,1.4-0.4,4.6-0.2,5.8c0.4,4.5-2.6,8.6-7,9.5C110.8,62.3,110,62.4,109.2,62.4z"/>
<path d="M52.3,62c-0.4,0-0.6-0.3-0.6-0.7c0-0.3,0.2-0.6,0.5-0.6c3.1-0.5,4.9-3.6,6.2-5.8c0.4-0.7,0.9-1.4,1.4-2.1
	c1.2-1.3,2.3-1.2,4.5-1.2c1.1,0,2.4,0,4.2-0.1c5.3-0.3,10.9-4.8,10.9-4.9c0.3-0.2,0.7-0.2,0.9,0.1c0.2,0.3,0.2,0.7-0.1,0.9
	c0,0,0,0,0,0c-0.2,0.2-5.9,4.8-11.7,5.2c-1.8,0.1-3.2,0.1-4.3,0.1c-2.2,0-2.8,0-3.5,0.8c-0.5,0.6-0.9,1.2-1.2,1.8
	c-1.4,2.3-3.4,5.8-7.1,6.4H52.3z"/>
<path d="M79.7,104.5c-3.5,0-17.2-0.6-23.4-9c-1.8-2.3-3.2-4.8-4.2-7.5c-3.5,2-8.9,1.8-13.2-0.6c-4.6-2.5-7.5-8.1-7.7-14.8
	S35.5,58,42.8,57.3c7.1-0.7,9.6,3.3,9.7,3.5c0,0,0,0.1,0,0.1c1.1,2.6,1,7.2,0.8,9.6c0,0.7-0.1,1.3-0.3,2c-1.6,7.4-2.3,13.4,4.3,22.3
	s23,8.5,23.2,8.5h0.2c13.2,0,20.9-7.8,23.7-15c1.7-4.4,0.8-8.8,0.1-12.7c-0.4-1.9-0.7-3.7-0.7-5.7c-0.1-2.8,0.3-5.6,1.2-8.2
	c0.1-0.3,0.5-0.5,0.8-0.4c0,0,0,0,0,0c0.3,0.1,0.5,0.5,0.4,0.8c-0.8,2.5-1.2,5.1-1.1,7.7c0.1,1.8,0.3,3.6,0.7,5.4
	c0.8,4,1.6,8.6-0.2,13.4c-2.9,7.7-11.1,16-25.1,15.9L79.7,104.5z M44.3,58.5c-0.5,0-0.9,0-1.4,0.1c-6.5,0.6-10.7,7.7-10.5,14
	s2.8,11.4,7,13.7c4,2.2,9,2.4,12.1,0.5l0,0c-1.6-5.2-0.9-9.7,0.2-14.6c0.1-0.6,0.2-1.2,0.2-1.8c0.1-1.9,0.3-6.5-0.7-9
	C51.1,61,49.2,58.5,44.3,58.5z"/>
<path d="M51.3,75.8L51.3,75.8c-6.7-1-8.1-8.2-8.1-8.2c-0.1-0.3,0.2-0.7,0.5-0.7c0,0,0,0,0,0c0.4-0.1,0.7,0.2,0.8,0.5c0,0,0,0,0,0
	c0,0.3,1.2,6.3,6.9,7.2c0.4,0.1,0.6,0.4,0.5,0.8C51.8,75.6,51.6,75.8,51.3,75.8L51.3,75.8z"/>
<path d="M42.3,80.1c-0.1,0-0.1,0-0.2,0c-0.3-0.1-0.5-0.5-0.4-0.8c0,0,0,0,0,0c0.1-0.2,1.8-4.9,6.8-5.3c0.4,0,0.7,0.2,0.7,0.6
	c0,0.4-0.2,0.7-0.6,0.7c-4.1,0.3-5.6,4.2-5.7,4.4C42.8,79.9,42.6,80.1,42.3,80.1z"/>
<path d="M110,89.8c-1.7,0-3.5-0.3-5.1-0.8c-0.3-0.1-0.5-0.5-0.4-0.8c0.1-0.3,0.5-0.5,0.8-0.4c0,0,0,0,0,0c4.1,1.3,8.5,0.8,12.2-1.4
	c3.4-2.2,5.5-5.9,6.2-11.1c1.7-12.2-7.8-15.1-7.9-15.1c-0.4-0.1-0.6-0.4-0.5-0.8c0.1-0.4,0.4-0.6,0.8-0.5c0,0,0,0,0.1,0
	c0.1,0,10.7,3.2,8.8,16.6c-0.8,5.5-3.2,9.7-6.8,12C115.7,89,112.9,89.8,110,89.8z"/>
<path d="M105.3,76.5c-0.4,0-0.7-0.2-0.7-0.6s0.2-0.7,0.6-0.7c5.3-0.8,6.9-7.9,6.9-8c0.1-0.3,0.4-0.6,0.8-0.5
	c0.3,0.1,0.6,0.4,0.5,0.8c0,0,0,0,0,0C113.3,67.8,111.6,75.6,105.3,76.5L105.3,76.5z"/>
<path d="M114.1,81.6c-0.3,0-0.6-0.2-0.7-0.6c-0.4-2.7-2.2-4.9-4.8-5.9c-0.3-0.1-0.5-0.5-0.4-0.8s0.5-0.5,0.8-0.4
	c3,1.1,5.2,3.8,5.6,7C114.8,81.3,114.5,81.6,114.1,81.6C114.2,81.6,114.2,81.6,114.1,81.6L114.1,81.6z"/>
<path d="M67.6,66.7c-2.1,0-4.2-0.3-6.2-0.9c-0.3-0.1-0.6-0.5-0.5-0.8c0.1-0.3,0.5-0.6,0.8-0.5c5.2,1.4,9.5,1.1,12.7-1
	c4.6-3,5.5-8.5,5.5-8.6c0.1-0.4,0.4-0.6,0.7-0.5c0.4,0.1,0.6,0.4,0.6,0.7c0,0,0,0,0,0c0,0.2-1,6.2-6,9.5
	C72.9,66,70.3,66.7,67.6,66.7z"/>
<path d="M89.8,64.2c-3.8,0-8.1-1.2-10.5-5.8c-0.2-0.3,0-0.7,0.3-0.9c0.3-0.2,0.7,0,0.9,0.3c1.9,3.5,5.2,5.3,9.8,5.2
	c2.3-0.1,4.5-0.5,6.6-1.3c0.3-0.1,0.7,0,0.8,0.4s0,0.7-0.4,0.8l0,0C94.8,63.7,92.3,64.2,89.8,64.2z"/>
<path d="M83.2,83.6c-5.7,0-6.2-5.6-6.2-5.7c0-7,6.2-7.3,6.3-7.3h0.1c4.7,0.1,6.1,4.3,6.2,6.4s-1.2,6.3-5.9,6.5L83.2,83.6z M83.4,72
	c-0.4,0-5.1,0.5-5.1,6c0.2,2.6,2.4,4.6,5,4.4c0.1,0,0.2,0,0.2,0c4.6-0.2,4.7-5,4.7-5.2S88,72.1,83.4,72z"/>
<path d="M104,85.2c-0.4,0-0.6-0.3-0.7-0.6c0-0.4,0.3-0.6,0.6-0.7l4-0.1c0.4,0,0.7,0.3,0.7,0.6c0,0.4-0.3,0.6-0.6,0.7L104,85.2
	L104,85.2z"/>
<path d="M96.7,78c-0.4,0-0.7-0.3-0.7-0.6c0-0.2,0.1-0.4,0.2-0.5l3-2.5c0.3-0.2,0.7-0.2,0.9,0.1s0.2,0.7-0.1,0.9l0,0l-3,2.5
	C97,78,96.9,78,96.7,78z"/>
<path d="M62.2,82.2c-0.1,0-0.2,0-0.2,0L58.8,81c-0.3-0.1-0.5-0.5-0.4-0.8c0.1-0.3,0.5-0.5,0.8-0.4l3.2,1.2c0.3,0.1,0.5,0.5,0.4,0.8
	C62.7,82.1,62.4,82.3,62.2,82.2L62.2,82.2z"/>
<path d="M52.7,92.6c-0.4,0-0.6-0.3-0.6-0.7c0-0.2,0.1-0.4,0.2-0.5l2.6-2.2c0.3-0.2,0.7-0.2,0.9,0.1c0,0,0,0,0,0
	c0.2,0.3,0.2,0.7-0.1,0.9l-2.6,2.2C53,92.5,52.9,92.6,52.7,92.6z"/>
<path d="M66.4,98.1c-0.2,0-0.5-0.1-0.6-0.3l-1.5-2.9c-0.2-0.3,0-0.7,0.3-0.9c0.3-0.2,0.7,0,0.9,0.3l1.5,2.9c0.2,0.3,0.1,0.7-0.2,0.9
	C66.6,98.1,66.5,98.1,66.4,98.1L66.4,98.1z"/>
<path d="M83.5,106.2c-0.2,0-0.4-0.1-0.6-0.3l-2.3-4c-0.1-0.3,0-0.7,0.3-0.8c0.3-0.2,0.7-0.1,0.9,0.2l2.3,4c0.2,0.3,0.1,0.7-0.2,0.9
	C83.8,106.2,83.7,106.2,83.5,106.2z"/>
<path d="M93.7,96.4c-0.1,0-0.2,0-0.3-0.1l-2.5-1.2c-0.3-0.2-0.5-0.6-0.3-0.9s0.6-0.5,0.9-0.3l0,0l2.6,1.3c0.3,0.2,0.4,0.6,0.3,0.9
	C94.2,96.3,94,96.4,93.7,96.4L93.7,96.4z"/>
<path d="M83.4,72c-0.3,0-0.5-0.2-0.6-0.4C80.4,65.7,85,63,85,63c0.3-0.2,0.7-0.1,0.9,0.2c0,0,0,0,0,0c0.2,0.3,0.1,0.7-0.2,0.9
	c0,0,0,0,0,0l0,0c-0.2,0.1-3.6,2.2-1.6,7c0.1,0.3,0,0.7-0.3,0.8c0,0,0,0,0,0C83.6,72,83.5,72,83.4,72z"/>
<path d="M88.7,75.2c-0.4,0-0.7-0.3-0.7-0.6c0-0.3,0.2-0.6,0.5-0.6c1.7-0.5,3.1-1.7,4-3.2c1.1-2,1-4.5-0.3-6.3
	c-0.2-0.3-0.2-0.7,0.1-0.9c0,0,0,0,0,0c0.3-0.2,0.7-0.2,0.9,0.1c1.6,2.3,1.8,5.3,0.4,7.8c-1,1.9-2.8,3.3-4.8,3.8
	C88.8,75.2,88.8,75.2,88.7,75.2z"/>
<path d="M70.2,77.3c-0.9,0-1.8-0.2-2.7-0.6c-1.9-0.8-3.2-2.6-3.5-4.6c-0.5-2.5,0.6-5,2.7-6.3c0.3-0.2,0.7-0.2,0.9,0.1
	c0.2,0.3,0.2,0.7-0.1,0.9c0,0-0.1,0.1-0.1,0.1c-1.6,1.1-2.4,3.1-2.1,5c0.2,1.6,1.3,2.9,2.8,3.6c1.5,0.7,3.3,0.6,4.7-0.3
	c1.9-1.3,2.8-3.6,2.2-5.8c-0.2-1-0.9-2.9-2.6-3.3c-0.4-0.1-0.6-0.4-0.5-0.7s0.4-0.6,0.7-0.5c0,0,0.1,0,0.1,0
	c1.9,0.7,3.3,2.3,3.5,4.3c0.7,2.7-0.4,5.6-2.8,7.2C72.5,77,71.4,77.3,70.2,77.3z"/>
<path d="M73.4,93.5c-1.2,0-2.4-0.3-3.3-1c-1.5-1.1-2.4-2.8-2.5-4.6c-0.2-1.5,0.4-3,1.4-4.1c1.4-1.3,3.2-2.1,5.1-2
	c1.7,0.1,3.4,0,5.2-0.1c0.4,0,0.7,0.2,0.7,0.6c0,0.4-0.2,0.7-0.6,0.7l0,0c-1.8,0.2-3.6,0.2-5.3,0.1c-1.5-0.1-3,0.5-4.1,1.6
	c-0.8,0.8-1.1,2-1,3.1c0.1,1.5,0.8,2.8,1.9,3.7c1.1,0.8,2.5,1,3.8,0.7c1.2-0.3,2.3-0.7,3.4-1.2c2-0.8,3.9-1.5,5.3-1.2l0.5,0.1
	c4,0.7,8.7,1,9.9-3c0.4-1,0.2-2.2-0.5-3.1C92,82,88.9,81.4,88,81.5c-0.4,0-0.7-0.2-0.7-0.6c0-0.4,0.2-0.7,0.6-0.7c0,0,0,0,0,0
	c1.2-0.1,4.8,0.5,6.5,2.7c1,1.2,1.2,2.8,0.7,4.3c-1.7,5.6-8.8,4.3-11.4,3.9l-0.5,0c-1.2-0.2-2.9,0.5-4.7,1.2
	c-1.2,0.5-2.3,0.8-3.5,1.2C74.5,93.5,74,93.5,73.4,93.5z"/>
<circle cx="90.6" cy="66.8" r="3.1"/>
<circle cx="72" cy="69.1" r="3.1"/>
<path d="M73.7,174.8c-0.4,0-0.7-0.3-0.7-0.6v-44.9c0-1.6,1.3-2.9,2.9-2.9l0,0h1.8c0.3-0.9,0.4-1.9,0.1-2.8c-0.3-1.1-1.1-2.1-2.1-2.6
	c-2.5-1.3-6.3-5.3-6.5-5.5c-1.1-0.8-1.8-1.9-2-3.2c-0.1-0.7,0.2-1.4,0.6-1.9c0.1-0.1,0.2-0.2,0.3-0.2l0,0c0,0,1.1-0.9,0.3-7.1
	c0-0.4,0.2-0.7,0.6-0.7c0.4,0,0.7,0.2,0.7,0.6c0.8,6.4-0.4,8-1,8.4c-0.2,0.3-0.2,0.6-0.2,0.8c0.2,1,0.8,1.8,1.6,2.4
	c0.1,0.1,3.9,4.1,6.2,5.3c1.4,0.7,2.4,2,2.8,3.4c0.4,1.4,0.3,2.9-0.4,4.1c-0.1,0.2-0.3,0.3-0.6,0.3h-2.3c-0.9,0-1.6,0.7-1.6,1.6
	v44.9C74.3,174.5,74,174.8,73.7,174.8z"/>
<path d="M88.3,111.3c-0.1,0-0.3,0-0.4-0.1c-1.9-1.3-1.6-6.7-1.6-7.8c0-0.3,0.3-0.6,0.7-0.6c0.4,0,0.6,0.3,0.6,0.7c0,0,0,0,0,0
	c-0.2,2.3,0,5.9,1,6.6c0.3,0.2,0.4,0.6,0.2,0.9C88.7,111.2,88.5,111.3,88.3,111.3L88.3,111.3z"/>
<path d="M69.3,133.7c-0.1,0-0.3,0-0.4-0.1c-6.5-4.6-8.5-13-9.1-16.3c-0.3-1.4,0-2.9,0.7-4.1c3.7-6.4,8.4-4.4,8.5-4.4
	c0.3,0.1,0.5,0.5,0.4,0.8c-0.1,0.3-0.5,0.5-0.8,0.4c0,0-0.1,0-0.1,0c-0.2-0.1-3.8-1.5-6.8,3.8c-0.6,1-0.7,2.1-0.5,3.2
	c0.5,3.1,2.3,10.3,7.7,14.8c0.4-2.5,1.6-8.4,4.6-10.6c1-0.8,2.3-1.1,3.6-0.8c0.4,0.1,0.6,0.4,0.5,0.8c-0.1,0.4-0.4,0.6-0.8,0.5l0,0
	c-0.9-0.2-1.8,0-2.6,0.6c-3.3,2.4-4.2,10.8-4.2,10.9c0,0.2-0.2,0.4-0.4,0.5C69.5,133.7,69.4,133.7,69.3,133.7z"/>
<path d="M88.1,133.4c-0.1,0-0.3,0-0.4-0.1c-1.8-1.4-2.6-5.6-2.7-6.1c-0.2-1.6-1.1-5.5-3.1-5.7c-1.2-0.3-2.5,0.5-2.7,1.8c0,0,0,0,0,0
	c-0.1,0.4-0.4,0.6-0.8,0.5c-0.4-0.1-0.6-0.4-0.5-0.8c0.4-1.9,2.2-3.2,4.1-2.9c3.4,0.3,4.2,6.2,4.3,6.8c0.3,1.7,0.8,3.3,1.7,4.8
	c1.7-2.3,8-11.1,7.2-16.4c-0.1-1.8-1.1-3.5-2.7-4.5c-1.3-0.7-2.8-0.9-4.2-0.5c-0.3,0.1-0.7,0-0.8-0.4s0-0.7,0.4-0.8
	c1.8-0.5,3.7-0.3,5.3,0.6c1.9,1.2,3.1,3.2,3.3,5.4c1.1,6.7-7.5,17.6-7.9,18C88.5,133.3,88.3,133.4,88.1,133.4z"/>
<path d="M79.8,121.9c-0.4,0-0.6-0.3-0.6-0.7c0-0.2,0.1-0.4,0.2-0.5c0,0,2.2-2,5.7-4.9c3.2-2.6,3-5.2,3-5.3c0-0.4,0.2-0.7,0.6-0.7
	c0,0,0,0,0,0c0.4,0,0.7,0.2,0.7,0.6c0,0.1,0.2,3.4-3.5,6.4c-3.4,2.8-5.6,4.8-5.7,4.8C80.1,121.9,80,121.9,79.8,121.9z"/>
<path d="M86.2,174.9H70c-9.6-1-10.4-9.1-10.5-9.2c0-0.4,0.3-0.7,0.6-0.7c0.3,0,0.6,0.2,0.6,0.5c0,0.3,0.8,7.1,9.2,8h16.2
	c0.4,0,8.8,0.1,10.4-7.4c0.1-0.3,0.4-0.6,0.8-0.5c0.3,0.1,0.6,0.4,0.5,0.8c0,0,0,0,0,0C96.2,174.7,87.1,174.9,86.2,174.9z"/>
<path d="M96.2,175.4c-1.9,0-3.8-0.3-5.7-0.9c-0.3-0.1-0.5-0.5-0.4-0.8c0,0,0,0,0,0c0.1-0.3,0.5-0.5,0.8-0.4c0.1,0,6.1,2.1,10.5-0.4
	c2.2-1.2,3.6-3.4,4.2-6.5c2.2-10.8-8.1-34.4-8.2-34.6c-0.1-0.3,0-0.7,0.3-0.9c0.3-0.1,0.7,0,0.9,0.3c0,0,0,0,0,0
	c0.4,1,10.6,24.1,8.3,35.4c-0.7,3.4-2.4,5.9-4.9,7.4C100.2,175,98.2,175.5,96.2,175.4z"/>
<path d="M81.1,139.4c-2.2,0-4-1.8-4-4s1.8-4,4-4s4,1.8,4,4S83.3,139.4,81.1,139.4z M81.1,132.7c-1.5,0-2.7,1.2-2.7,2.7
	c0,1.5,1.2,2.7,2.7,2.7c1.5,0,2.7-1.2,2.7-2.7c0,0,0,0,0,0C83.8,133.9,82.6,132.7,81.1,132.7z"/>
<path d="M81.1,154.1c-2.2,0-4-1.8-4-4s1.8-4,4-4s4,1.8,4,4S83.3,154.1,81.1,154.1z M81.1,147.5c-1.5,0-2.7,1.2-2.7,2.7
	c0,1.5,1.2,2.7,2.7,2.7c1.5,0,2.7-1.2,2.7-2.7c0,0,0,0,0,0C83.8,148.7,82.6,147.5,81.1,147.5z"/>
<path d="M81.1,168.8c-2.2,0-4-1.8-4-4s1.8-4,4-4s4,1.8,4,4S83.3,168.8,81.1,168.8z M81.1,162.1c-1.5,0-2.7,1.2-2.7,2.7
	c0,1.5,1.2,2.7,2.7,2.7c1.5,0,2.7-1.2,2.7-2.7c0,0,0,0,0,0C83.8,163.3,82.6,162.1,81.1,162.1z"/>
<path d="M77.6,114.7c-0.1,0-0.2,0-0.3-0.1c-1.6-1.1-2.6-3-2.7-5c0-1.9,0.6-3.8,1.6-5.4c0.2-0.3,0.6-0.3,0.9-0.1
	c0.3,0.2,0.3,0.6,0.2,0.9c-0.8,1.4-1.3,3-1.3,4.7c0.1,1.6,0.8,3,2.1,3.9c0.3,0.2,0.4,0.6,0.2,0.9C78,114.6,77.8,114.7,77.6,114.7z"
	/>
<path d="M79.3,209.6L79.3,209.6c-0.4,0-0.7-0.4-0.6-0.7c0,0,0,0,0,0c0.4-3.4,0.4-6.8,0-10.2c-3.7-1.4-6.9-4.1-8.9-7.5
	c-0.2-0.3,0-0.7,0.3-0.9c0.3-0.2,0.7,0,0.9,0.3c1.9,3.3,4.9,5.7,8.5,7c0.2,0.1,0.4,0.3,0.4,0.5c0.5,3.6,0.5,7.3,0.1,11
	C80,209.4,79.7,209.7,79.3,209.6z"/>
<path d="M104.9,209.4L104.9,209.4c-0.4,0-0.6-0.3-0.6-0.7c0,0,0,0,0,0c0-0.6,0.1-1.4,0.1-2.1c0.4-4.4,0.4-8.8,0.3-13.2
	c-0.4-11.4-5-18.2-5.1-18.3c-0.2-0.3-0.1-0.7,0.2-0.9c0.3-0.2,0.7-0.1,0.9,0.2c0.2,0.3,4.9,7.2,5.3,19c0.2,4.4,0.1,8.9-0.3,13.3
	c-0.1,0.8-0.1,1.4-0.2,2.1C105.6,209.2,105.3,209.4,104.9,209.4z"/>
<path d="M104.8,188.7L104.8,188.7c-8.9-0.8-11.6-7.6-11.7-7.9c-0.1-0.3,0.1-0.7,0.4-0.8c0.3-0.1,0.7,0,0.8,0.3
	c0.1,0.3,2.6,6.3,10.5,7.1c0.4,0,0.6,0.4,0.6,0.7C105.4,188.5,105.1,188.7,104.8,188.7z"/>
<path d="M63.6,78.4c-0.1,0-0.2,0-0.3-0.1c-0.3-0.2-0.4-0.6-0.3-0.9c0,0,0,0,0,0c0-0.1,1.3-2.5,3.4-2.7c0.4,0,0.7,0.2,0.7,0.6
	c0,0,0,0,0,0c0,0.4-0.2,0.7-0.6,0.7c-1.4,0.2-2.4,2-2.4,2C64,78.2,63.8,78.4,63.6,78.4z"/>
<path d="M97.1,73.2c-0.2,0-0.4,0-0.5-0.2c-0.1-0.1-1.1-1.1-3.6-0.4c-0.3,0.1-0.7-0.1-0.8-0.5c-0.1-0.3,0.1-0.7,0.5-0.8
	c3.3-0.9,4.8,0.7,4.9,0.8c0.2,0.3,0.2,0.7-0.1,0.9C97.4,73.1,97.2,73.2,97.1,73.2L97.1,73.2z"/>
<path d="M61,174.8c-2,0-3.9-0.4-5.6-1.3c-2.7-1.4-4.5-3.9-5.4-7.4c-3.3-12,6.2-34.9,6.5-35.8c0.1-0.3,0.5-0.5,0.8-0.4l0,0
	c0.3,0.1,0.5,0.5,0.4,0.8c0,0,0,0,0,0c-0.1,0.2-9.6,23.4-6.5,35c0.6,2.8,2.3,5.2,4.8,6.6c4.4,2.3,9.9,0.4,10,0.4
	c0.3-0.2,0.7,0,0.9,0.3c0.2,0.3,0,0.7-0.3,0.9c0,0-0.1,0-0.1,0C64.6,174.5,62.8,174.7,61,174.8z"/>
<path d="M51.9,208.8c-0.3,0-0.6-0.3-0.7-0.6c0-0.6-0.1-1.3-0.1-2.1c-0.4-4.4-0.5-8.9-0.3-13.3c0.4-11.8,5.1-18.7,5.3-18.9
	c0.2-0.3,0.6-0.4,0.9-0.2s0.4,0.6,0.2,0.9l0,0c0,0.1-4.7,6.9-5.1,18.3c-0.2,4.4-0.1,8.8,0.3,13.2c0,0.8,0.1,1.5,0.1,2.1
	C52.6,208.5,52.3,208.8,51.9,208.8L51.9,208.8z"/>
<path d="M52,188.1c-0.3,0-0.6-0.3-0.7-0.6c0-0.4,0.2-0.7,0.6-0.7c4.5-0.2,8.6-3,10.5-7.1c0.1-0.3,0.5-0.5,0.8-0.4s0.5,0.5,0.4,0.8
	C63.6,180.5,60.9,187.3,52,188.1L52,188.1z"/>
<path d="M150.3,209.7H0V0h150.3V209.7z M1.3,208.4H149V1.3H1.3L1.3,208.4z"/>
</svg>
