<svg xmlns="http://www.w3.org/2000/svg" viewBox="0 0 153.96 209.71"><defs><style>.cls-2{fill:#fff}.cls-3{fill:#a5a5a5}.cls-4{fill:#818181}.cls-5{fill:none;stroke:#000;stroke-linecap:round;stroke-linejoin:round;stroke-width:1.3px}.cls-6{fill:#e2e2e2}</style></defs><g id="Слой_2" data-name="Слой 2"><path d="M61.75-.1h1.11-3.6S55.51-.54 54.81 1 34.34-3.2 31.37 5.47c0 0-.46 1.49-3.67 1.88-3 .37-7.57 1.5-8.54 8.05a6 6 0 0 1-.39 1.15c-.16.32-.85.34-1.13.43a6.27 6.27 0 0 0-4.42 4.12c-1 3.4-6.79 3-7.34 7.73a6.08 6.08 0 0 0 .39 2.33 18.39 18.39 0 0 1-1.69 12.07 17 17 0 0 0-1.4 8.24c.09 1.19.72 1.76 1 2.89a25.68 25.68 0 0 0 .35 2.57 18.12 18.12 0 0 0 3.36 5.74C11.24 66.33 9.26 73 4.45 78.26c-6.67 7.24-4.8 20.25-1.14 28.17s5 13.41 2.13 19.65-6.86 16.3 1.56 26.05S2.85 175 9.25 185.94s9.49 6.71 13.29 14.33 5.4 7.82 5.4 7.82l4.4.22h121V-.1Z" transform="translate(0 .75)" style="fill:#ddd"/><path class="cls-2" d="M69.4.75h6.79v103.69a3.39 3.39 0 0 1-3.39 3.39 3.39 3.39 0 0 1-3.39-3.39V.75h-.01Z"/><path d="M72.79 107.73a4 4 0 0 1-4-4V0a.65.65 0 0 1 .65-.65h6.79a.65.65 0 0 1 .65.65v103.69a4.05 4.05 0 0 1-4.09 4.04ZM70.05.65v103a2.75 2.75 0 0 0 5.49 0V.65Z" transform="translate(0 .75)"/><path d="M90.83 109.46a.66.66 0 0 1-.58-.35L75.93 80.64a7.69 7.69 0 0 1-3.2.69.66.66 0 0 1-.66-.63.65.65 0 0 1 .63-.7 5.45 5.45 0 0 0 3.09-.81.65.65 0 0 1 .54-.13.68.68 0 0 1 .45.34l14.63 29.09a.66.66 0 0 1-.29.88.72.72 0 0 1-.29.09Z" transform="translate(0 .75)"/><path d="M54.56 109.46a.72.72 0 0 1-.29-.06.66.66 0 0 1-.29-.88l14.64-29.09a.61.61 0 0 1 .44-.34.67.67 0 0 1 .55.13 5.44 5.44 0 0 0 3.08.81.65.65 0 0 1 .63.67.63.63 0 0 1-.66.63 7.63 7.63 0 0 1-3.19-.69l-14.33 28.47a.65.65 0 0 1-.58.35Z" transform="translate(0 .75)"/><path d="M72.71 118.42a.65.65 0 0 1-.65-.65V80.86a.65.65 0 0 1 1.3 0v36.91a.65.65 0 0 1-.65.65Z" transform="translate(0 .75)"/><path class="cls-2" d="M101.92.75h6.79v103.69a3.39 3.39 0 0 1-3.39 3.39 3.39 3.39 0 0 1-3.39-3.39V.75h-.01Z"/><path d="M105.32 107.73a4.05 4.05 0 0 1-4-4V0a.66.66 0 0 1 .65-.65h6.79a.65.65 0 0 1 .65.65v103.69a4 4 0 0 1-4.09 4.04ZM102.57.65v103a2.75 2.75 0 0 0 5.49 0V.65Z" transform="translate(0 .75)"/><path d="M123.36 109.46a.65.65 0 0 1-.58-.35l-14.33-28.47a7.63 7.63 0 0 1-3.19.69.67.67 0 0 1-.67-.63.66.66 0 0 1 .64-.67 5.44 5.44 0 0 0 3.08-.81.68.68 0 0 1 .55-.13.66.66 0 0 1 .44.34l14.64 29.09a.66.66 0 0 1-.29.88.75.75 0 0 1-.29.06Z" transform="translate(0 .75)"/><path d="M87.08 109.46a.79.79 0 0 1-.29-.06.66.66 0 0 1-.29-.88l14.64-29.09a.63.63 0 0 1 .45-.34.69.69 0 0 1 .55.13 5.35 5.35 0 0 0 3.08.81.65.65 0 1 1 0 1.3 7.63 7.63 0 0 1-3.19-.69l-14.36 28.47a.67.67 0 0 1-.59.35Z" transform="translate(0 .75)"/><path d="M105.24 118.42a.65.65 0 0 1-.65-.65V80.86a.65.65 0 0 1 1.3 0v36.91a.65.65 0 0 1-.65.65Z" transform="translate(0 .75)"/><path class="cls-2" d="m13.97 22.4-.26 3.81v78.23"/><path class="cls-2" d="M13.71 103.69a3.39 3.39 0 0 0 3.39 3.39 3.39 3.39 0 0 0 3.39-3.39V11s-1.31 1-1.78 3.8-2 1.48-4.27 3.71c0 0-1 1.05-.73 3.61" transform="translate(0 .75)"/><path d="M17.1 107.73a4 4 0 0 1-4-4V20.17a.65.65 0 0 1 1.3 0v83.52a2.74 2.74 0 1 0 5.48 0V12.32a.65.65 0 1 1 1.3 0v91.37a4 4 0 0 1-4.08 4.04Z" transform="translate(0 .75)"/><path d="M35.14 109.46a.65.65 0 0 1-.58-.35L20.23 80.64a7.63 7.63 0 0 1-3.19.69.67.67 0 0 1-.67-.63.66.66 0 0 1 .63-.7 5.44 5.44 0 0 0 3.08-.81.69.69 0 0 1 .55-.13.64.64 0 0 1 .44.34l14.64 29.09a.66.66 0 0 1-.29.88.72.72 0 0 1-.28.09Z" transform="translate(0 .75)"/><path d="M1.89 103.46a.59.59 0 0 1-.29-.07.64.64 0 0 1-.29-.87l11.61-23.09a.65.65 0 0 1 .45-.34.68.68 0 0 1 .55.13A5.35 5.35 0 0 0 17 80a.65.65 0 0 1 0 1.3 7.69 7.69 0 0 1-3.2-.69L2.47 103.1a.66.66 0 0 1-.58.36Z" transform="translate(0 .75)"/><path d="M17 118.42a.65.65 0 0 1-.65-.65V80.86a.65.65 0 1 1 1.3 0v36.91a.65.65 0 0 1-.65.65Z" transform="translate(0 .75)"/><path class="cls-3" d="m90.85 5.21-1.78-.96L90.65.8h3.8l-2.63 4.71-.97-.3zM89.52 8.1l-1.98-1.11-2.49 4.37 1.99 1.39M85.32 15.54l-1.87-1.27-2.87 4.12 1.86 1.57M80.42 22.3l-1.74-1.44-3.25 3.83 1.7 1.74M74.84 28.55l-1.48-1.72-3.84 3.24 1.38 1.99M68.01 33.58l-1.05-2.01-4.47 2.3.9 2.25M60.23 36.97l-.11-2.27-5.02.18-.14 2.42M51.94 36.87l.6-1.91-4.76-1.58-.91 2.06M44.23 34.04l1.11-1.98-4.35-2.51-1.4 1.99M37.43 29.39l1.51-1.69-3.71-3.39-1.8 1.63M31.57 23.58l1.72-1.47-3.22-3.86-2 1.38M26.83 17.29l1.82-1.34-2.92-4.08L24 12.88"/><path class="cls-3" d="m22.74 10.36 1.86-1.29-.81-1.2a3.56 3.56 0 0 0-1.73 1.51" transform="translate(0 .75)"/><path class="cls-3" d="m63.81 5.24-2.14-.35.28-4.2 2.08.11M63.49 7.99l-2.23-.39-.91 4.95 2.34.65M61.88 15.92l-2.17-.65-1.51 4.79 2.24.94M59.16 23.79l-2-1.07-2.42 4.41 2.02 1.36M55 30.94l-1.78-1.4-3.16 3.91.85.82 1.71.22M36.65 42.3l-.2-2.42 2.99-.53 2.74 1.71-5.53 1.24zM33.8 42.44l-.16-2.26-5.01.3-.04 2.2M25.82 42.9l-.16-2.26-5.01.3-.08 2.43M18.17 43.81l-.49-2.22-4.92 1.03.28 2.41M10.92 45.98l-1.06-2L5.4 46.3l.92 2.25"/><path class="cls-3" d="M93 .16S79.89 34 58.69 36.5l.23-.2-4 .26.14-2.43 5-.17.06 1.28.14-.12C72 21 71.21.1 71.21.1L64.28 0s.22 20.85-12 34l-.13.09.36.12-.61 1.9-2-.56-.36.23C34.83 31.7 24.76 14.48 22 9.14a11.8 11.8 0 0 0-2.57 3.18 28.11 28.11 0 0 0-1 4.23l.15.27c3.89 6.56 12 17.9 24.3 23.39l-.09.06A37.14 37.14 0 0 1 36 41.64c-9.19 1-22.59-.55-31.61 8.16s-1.8.47-.89 3c1.13 3.13.78 4.64 1.59 4.67a.86.86 0 0 0 .36-.08v.08l.12-.14a2.9 2.9 0 0 0 .94-1c8.49-8.69 22.86-8.17 29-8.49 6.38-.34 13-3.5 13-3.5.93-.42 1.82-.88 2.67-1.36l.09-.08a34.12 34.12 0 0 0 6.72.56C85.76 43 100.67-.07 100.67-.07Z" transform="translate(0 .75)"/><path d="M57.43 44C36.19 44 22.79 25.26 18 17.15a.65.65 0 1 1 1.11-.67c4.69 7.93 17.76 26.24 38.33 26.24h.49c27.05-.37 42-42.57 42.14-43a.65.65 0 0 1 .83-.4.65.65 0 0 1 .4.82C101.14.58 85.9 43.62 57.94 44Z" transform="translate(0 .75)"/><path d="M55.93 37.32c-18.38 0-31-21.15-34.56-27.88a.65.65 0 1 1 1.15-.6 73.92 73.92 0 0 0 12 16.67c7.63 7.73 15.61 11.22 23.7 10.4C79 33.78 92.23.26 92.36-.08a.65.65 0 0 1 1.21.47 98.54 98.54 0 0 1-9.36 17.51c-7.94 11.71-16.87 18.38-25.83 19.3-.82.08-1.64.12-2.45.12ZM5.41 58a.65.65 0 0 1-.5-1c7.64-9.14 21.09-9.58 28.29-9.82l2.21-.09c6.17-.32 12.7-3.41 12.76-3.44.91-.41 1.79-.86 2.63-1.34a.65.65 0 0 1 .88.25.64.64 0 0 1-.24.88c-.88.5-1.79 1-2.72 1.39a40.53 40.53 0 0 1-13.24 3.56l-2.23.09c-7 .23-20.07.66-27.34 9.33a.67.67 0 0 1-.5.19Z" transform="translate(0 .75)"/><path d="M60.32 35.77a.66.66 0 0 1-.42-.15.65.65 0 0 1-.08-.91C71.19 21 70.56.34 70.56.13a.63.63 0 0 1 .62-.67.67.67 0 0 1 .68.62c0 .21.65 21.34-11 35.46a.67.67 0 0 1-.54.23ZM3.94 50.88a.66.66 0 0 1-.46-1.11c7.3-7.45 17.72-7.94 26.09-8.34 2.26-.11 4.4-.21 6.35-.44a35.64 35.64 0 0 0 6.63-1.34.65.65 0 0 1 .82.43.66.66 0 0 1-.43.81 38.35 38.35 0 0 1-6.88 1.4c-2 .22-4.14.33-6.43.44-8.57.4-18.28.87-25.22 8a.67.67 0 0 1-.47.15ZM52.31 34.66a.67.67 0 0 1-.44-.17.65.65 0 0 1 0-.92C63.7 20.8 63.63.25 63.63 0a.64.64 0 0 1 .64-.65.65.65 0 0 1 .65.64c0 .21.08 21.27-12.14 34.42a.64.64 0 0 1-.47.25ZM90.85 5.11a.7.7 0 0 1-.31-.11l-1.78-1a.65.65 0 0 1-.28-.84l1.58-3.38a.65.65 0 0 1 .86-.32.65.65 0 0 1 .32.86l-1.33 2.9 1.25.67a.65.65 0 0 1 .26.88.63.63 0 0 1-.57.34ZM87 12.65a.68.68 0 0 1-.38-.12l-2-1.39a.67.67 0 0 1-.19-.86L87 5.92a.64.64 0 0 1 .88-.24l2 1.1a.66.66 0 0 1 .25.89.65.65 0 0 1-.88.25l-1.42-.79-1.88 3.29 1.5 1.05a.66.66 0 0 1 .16.91.65.65 0 0 1-.61.27ZM82.44 19.86a.68.68 0 0 1-.42-.15l-1.86-1.57a.66.66 0 0 1-.11-.87l2.86-4.12a.66.66 0 0 1 .9-.17l1.88 1.27a.65.65 0 0 1-.69 1.08l-1.34-.91-2.17 3.11 1.41 1.18a.65.65 0 0 1-.42 1.15ZM77.13 26.33a.67.67 0 0 1-.47-.2L75 24.4a.66.66 0 0 1 0-.88l3.25-3.83a.65.65 0 0 1 .91-.08l1.75 1.44a.66.66 0 0 1 .08.92.65.65 0 0 1-.91.09l-1.25-1-2.45 2.89 1.28 1.31a.65.65 0 0 1 0 .92.61.61 0 0 1-.53.15ZM70.9 32a.65.65 0 0 1-.53-.27l-1.39-2a.65.65 0 0 1 .12-.87l3.84-3.23a.65.65 0 0 1 .91.07l1.48 1.72a.65.65 0 0 1-1 .84L73.29 27l-2.9 2.44 1 1.51a.66.66 0 0 1-.17.91.62.62 0 0 1-.32.14Z" transform="translate(0 .75)"/><path d="M63.39 36a.64.64 0 0 1-.6-.4l-.91-2.26a.65.65 0 0 1 .31-.82l4.47-2.29a.65.65 0 0 1 .87.27l1.06 2a.65.65 0 0 1-1.15.61l-.76-1.44-3.37 1.73.68 1.7a.64.64 0 0 1-.36.85.67.67 0 0 1-.24.05ZM60.39 36.47a.66.66 0 0 1-.65-.59l-.06-.69a.66.66 0 0 1 .59-.71.65.65 0 0 1 .7.59l.07.69a.65.65 0 0 1-.59.71ZM44.23 33.94a.72.72 0 0 1-.32-.08.67.67 0 0 1-.25-.89l.8-1.42-3.28-1.89-1.06 1.5a.65.65 0 0 1-.91.16.66.66 0 0 1-.16-.91l1.41-2a.63.63 0 0 1 .85-.19l4.36 2.51a.66.66 0 0 1 .24.88l-1.11 2a.65.65 0 0 1-.57.33ZM37.43 29.3a.67.67 0 0 1-.44-.17.66.66 0 0 1-.05-.92L38 27l-2.8-2.56-1.36 1.24a.65.65 0 1 1-.87-1l1.8-1.63a.66.66 0 0 1 .87 0l3.71 3.4a.65.65 0 0 1 0 .91l-1.51 1.69a.66.66 0 0 1-.41.25ZM31.57 23.49a.65.65 0 0 1-.43-1.15l1.24-1.05L30 18.38l-1.51 1a.65.65 0 0 1-.74-1.07l2-1.38a.65.65 0 0 1 .87.12L33.79 21a.65.65 0 0 1-.08.91L32 23.33a.67.67 0 0 1-.43.16ZM26.83 17.2a.68.68 0 0 1-.53-.27.65.65 0 0 1 .14-.91l1.31-1L25.54 12l-1.21.71a.65.65 0 0 1-.66-1.12l1.73-1a.66.66 0 0 1 .86.18l2.92 4.09a.64.64 0 0 1-.14.9l-1.83 1.34a.7.7 0 0 1-.38.1ZM22.74 11a.65.65 0 0 1-.37-1.19l1.33-.91-.45-.66a.66.66 0 0 1 .18-.91.65.65 0 0 1 .9.18l.81 1.19a.65.65 0 0 1-.17.9l-1.86 1.29a.65.65 0 0 1-.37.11ZM63.81 5.14h-.1l-2.14-.34a.66.66 0 0 1-.57-.7l.3-4.2a.66.66 0 0 1 .7-.61.65.65 0 0 1 .6.7l-.24 3.61 1.55.24a.65.65 0 0 1-.1 1.3ZM62.69 13.11h-.18l-2.34-.66a.65.65 0 0 1-.46-.74l.91-4.94a.65.65 0 0 1 .75-.52l2.23.38a.65.65 0 1 1-.22 1.28l-1.6-.27-.68 3.72 1.76.5a.65.65 0 0 1-.17 1.28ZM60.44 20.9a.56.56 0 0 1-.25 0L58 19.91a.66.66 0 0 1-.37-.8l1.51-4.79a.64.64 0 0 1 .81-.42l2.17.65a.65.65 0 0 1-.38 1.25l-1.55-.47L59 18.94l1.69.71a.65.65 0 0 1-.25 1.25ZM56.76 28.39a.72.72 0 0 1-.37-.11l-2-1.36a.66.66 0 0 1-.21-.86l2.42-4.4a.66.66 0 0 1 .88-.26l2 1.07a.65.65 0 0 1-.61 1.15l-1.44-.77-1.83 3.32 1.52 1a.65.65 0 0 1-.36 1.19ZM50.91 34.17a.67.67 0 0 1-.46-.18l-.84-.82a.66.66 0 0 1 0-.88l3.15-3.91a.66.66 0 0 1 .91-.1l1.78 1.41a.65.65 0 1 1-.8 1l-1.28-1-2.38 2.95.42.41a.65.65 0 0 1 0 .92.62.62 0 0 1-.5.2Z" transform="translate(0 .75)"/><path d="M51.93 36.77a.63.63 0 0 1-.19 0 .65.65 0 0 1-.42-.82l.41-1.29-3.6-1.2-.66 1.54a.66.66 0 0 1-.86.34.65.65 0 0 1-.33-.86l.9-2.06A.66.66 0 0 1 48 32l4.77 1.59a.64.64 0 0 1 .41.81l-.61 1.91a.65.65 0 0 1-.64.46ZM55 37.21a.65.65 0 0 1-.61-.69l.14-2.43a.65.65 0 0 1 .63-.61l5-.17a.66.66 0 0 1 .67.61l.11 2.27a.66.66 0 0 1-.62.68.64.64 0 0 1-.68-.62l-.08-1.62-3.79.13-.1 1.83a.66.66 0 0 1-.67.62ZM36.65 42.2a.65.65 0 0 1-.65-.6l-.2-2.42a.65.65 0 0 1 .54-.69l3-.53a.65.65 0 0 1 .22 1.28l-2.4.42.15 1.84a.66.66 0 0 1-.6.7ZM41.82 41.14a.65.65 0 0 1-.64-.53l-.18-.84a.65.65 0 1 1 1.28-.24l.16.84a.65.65 0 0 1-.52.75ZM28.59 42.58a.64.64 0 0 1-.63-.66v-2.2a.64.64 0 0 1 .61-.63l5-.31a.67.67 0 0 1 .69.61l.16 2.26a.64.64 0 0 1-.6.69.66.66 0 0 1-.7-.6L33 40.12l-3.78.23v1.59a.65.65 0 0 1-.63.64ZM20.57 43.27a.65.65 0 0 1-.63-.67l.06-2.43a.65.65 0 0 1 .61-.63l5-.3a.67.67 0 0 1 .69.6l.16 2.26a.65.65 0 1 1-1.29.1l-.12-1.62-3.78.22-.06 1.84a.65.65 0 0 1-.64.63ZM13 44.94a.66.66 0 0 1-.64-.58l-.27-2.42a.65.65 0 0 1 .51-.71l4.92-1a.65.65 0 0 1 .76.5l.49 2.21a.64.64 0 0 1-.49.77.65.65 0 0 1-.78-.49l-.35-1.59-3.71.78.21 1.82a.64.64 0 0 1-.57.72ZM6.32 48.45a.66.66 0 0 1-.61-.4L4.8 45.8a.66.66 0 0 1 .3-.8l4.46-2.31a.64.64 0 0 1 .87.27l1.07 2a.65.65 0 1 1-1.15.61l-.77-1.43-3.36 1.71.7 1.71a.65.65 0 0 1-.36.84.52.52 0 0 1-.24.05Z" transform="translate(0 .75)"/><path d="M6.32 48.45a.66.66 0 0 1-.61-.4L4.8 45.8a.66.66 0 0 1 .3-.8l4.46-2.31a.64.64 0 0 1 .87.27l1.07 2a.65.65 0 1 1-1.15.61l-.77-1.43-3.36 1.71.7 1.71a.65.65 0 0 1-.36.84.52.52 0 0 1-.24.05Z" transform="translate(0 .75)"/><path d="M6.32 48.45a.66.66 0 0 1-.61-.4L4.8 45.8a.66.66 0 0 1 .3-.8l4.46-2.31a.64.64 0 0 1 .87.27l1.07 2a.65.65 0 1 1-1.15.61l-.77-1.43-3.36 1.71.7 1.71a.65.65 0 0 1-.36.84.52.52 0 0 1-.24.05ZM87 12.65a.68.68 0 0 1-.38-.12l-2-1.39a.67.67 0 0 1-.19-.86L87 5.92a.64.64 0 0 1 .88-.24l2 1.1a.66.66 0 0 1 .25.89.65.65 0 0 1-.88.25l-1.42-.79-1.88 3.29 1.5 1.05a.66.66 0 0 1 .16.91.65.65 0 0 1-.61.27Z" transform="translate(0 .75)"/><path class="cls-2" d="m6.27 41.33 15.28-4.67-4.29-14-9.14 2.74c-.67.13-1.95.71-2.55 3.15-.84 3.4 1.85 2.47-.31 12 0 0-.31.54.47.73v.21l.48-.15h.1Z" transform="translate(0 .75)"/><path d="M5.68 42.16a.64.64 0 0 1-.62-.46.66.66 0 0 1 .43-.82l15.25-4.65-3.91-12.81L8.31 26a.64.64 0 0 1-.81-.43.65.65 0 0 1 .43-.82L17.07 22a.66.66 0 0 1 .82.44l4.28 14.06a.64.64 0 0 1-.43.81L5.87 42.13a.63.63 0 0 1-.19.03Z" transform="translate(0 .75)"/><circle class="cls-2" cx="13.34" cy="40.48" r="3.72"/><circle class="cls-2" cx="13.34" cy="40.41" r="1"/><path d="M13.34 44.1a4.37 4.37 0 1 1 4.37-4.37 4.37 4.37 0 0 1-4.37 4.37Zm0-7.44a3.07 3.07 0 1 0 3.07 3.07 3.07 3.07 0 0 0-3.07-3.07Z" transform="translate(0 .75)"/><path d="M13.34 41.31A1.65 1.65 0 1 1 15 39.66a1.65 1.65 0 0 1-1.66 1.65Zm0-2a.35.35 0 0 0 0 .7.35.35 0 0 0 0-.7Z" transform="translate(0 .75)"/><path class="cls-4" d="m142.36 88.29-7.78-2.08-6.93-3.28-1.41-.9 1.9-1.17 10.2-1.42 10.31-.57 4.44-.2.18-19.43s-16.15-.69-28.51 1.52-18.15 6.48-18.83 12c0 0-1.36 9.86 1.29 15.84l.4.76c3.93 8.15 15.57 19.43 45.56 22.54l-.09-9.16h.09V90.35l-5.36-.6Z" transform="translate(0 .75)"/><path d="M153.18 103.37h-.07c-25.8-2.67-37.64-11.31-43-18.09-4.07-5.12-5.14-10-4.81-12.62.77-6.15 7.29-10.37 19.37-12.53 12.28-2.2 28.49-1.54 28.65-1.53a.65.65 0 0 1 .62.68.64.64 0 0 1-.68.62c-.16 0-16.22-.66-28.36 1.51-11.46 2.05-17.62 5.89-18.31 11.41-.24 1.91.45 6.51 4.53 11.65 5.23 6.59 16.79 15 42.14 17.61a.65.65 0 0 1 .58.71.64.64 0 0 1-.66.58Z" transform="translate(0 .75)"/><path class="cls-5" d="M153.27 90.53c-20.26-2.6-33.08-9.76-32.06-16.45 1-6.26 32.06-6 32.06-6" transform="translate(0 .75)"/><path d="M153.18 112.52h-.07C121 109.19 110.47 96.74 107 89.61l-.39-.74c-2.71-6.12-1.42-15.82-1.37-16.23a.65.65 0 0 1 .74-.55.65.65 0 0 1 .55.73c0 .1-1.29 9.74 1.25 15.49l.38.72c3.33 6.9 13.58 18.93 45 22.19a.65.65 0 0 1 .58.71.64.64 0 0 1-.56.59ZM125.73 82.22a.64.64 0 0 1-.61-.45.65.65 0 0 1 .41-.82c8.85-2.85 27-2.76 27.74-2.76a.66.66 0 0 1 .65.66.63.63 0 0 1-.66.64c-.18 0-18.68-.09-27.33 2.7a.64.64 0 0 1-.2.03Z" transform="translate(0 .75)"/><path class="cls-4" d="m142.36 60.8-7.78-2.09-6.93-3.28-1.41-.9 1.9-1.17 10.2-1.42 10.31-.57 4.44-.2.18-19.43s-16.15-.69-28.51 1.52-18.15 6.48-18.83 12c0 0-1.36 9.86 1.29 15.84l.4.76c3.93 8.15 15.57 19.43 45.56 22.54l-.09-9.16h.09V62.85l-5.36-.6Z" transform="translate(0 .75)"/><path d="M153.18 75.87h-.07c-25.8-2.67-37.64-11.31-43-18.09-4.07-5.12-5.14-10-4.81-12.62.77-6.15 7.29-10.37 19.37-12.53 12.28-2.2 28.49-1.53 28.65-1.53a.65.65 0 0 1-.06 1.3c-.16 0-16.22-.66-28.36 1.51-11.46 2.05-17.62 5.89-18.31 11.41-.24 1.91.45 6.52 4.53 11.66 5.23 6.58 16.79 15 42.14 17.6a.65.65 0 0 1 .58.71.64.64 0 0 1-.66.58Z" transform="translate(0 .75)"/><path class="cls-5" d="M153.27 63c-20.26-2.6-33.08-9.76-32.06-16.45 1-6.26 32.06-6 32.06-6" transform="translate(0 .75)"/><path d="M153.18 85h-.07C121 81.69 110.47 69.24 107 62.11l-.39-.74c-2.71-6.12-1.42-15.82-1.37-16.23a.65.65 0 0 1 .74-.55.65.65 0 0 1 .55.73c0 .1-1.29 9.75 1.25 15.49l.38.72c3.33 6.9 13.58 18.93 45 22.19a.65.65 0 0 1 .58.71.64.64 0 0 1-.56.57ZM125.73 54.72a.64.64 0 0 1-.61-.45.65.65 0 0 1 .41-.82c8.85-2.85 27-2.77 27.74-2.76a.66.66 0 0 1 .65.66.62.62 0 0 1-.66.64c-.18 0-18.68-.09-27.33 2.7a.64.64 0 0 1-.2.03Z" transform="translate(0 .75)"/><path class="cls-4" d="M142.36 33.07 134.58 31l-6.93-3.28-1.41-.9 1.9-1.17 10.2-1.42 10.31-.57 4.44-.2.18-19.46s-16.15-.69-28.51 1.52-18.15 6.48-18.83 12c0 0-1.36 9.86 1.29 15.84l.4.76c3.93 8.14 15.57 19.43 45.56 22.53l-.09-9.15h.09V35.11l-5.36-.6Z" transform="translate(0 .75)"/><path d="M153.18 48.15h-.07c-25.8-2.67-37.64-11.31-43-18.09-4.07-5.12-5.14-10-4.81-12.62.77-6.15 7.29-10.37 19.37-12.53 12.28-2.2 28.49-1.54 28.65-1.53a.65.65 0 0 1-.06 1.3c-.16 0-16.23-.66-28.36 1.51-11.46 2.05-17.62 5.89-18.31 11.41-.24 1.91.45 6.51 4.53 11.65 5.23 6.58 16.79 15 42.14 17.61a.65.65 0 0 1 .58.71.64.64 0 0 1-.66.58Z" transform="translate(0 .75)"/><path class="cls-5" d="M153.27 35.31c-20.27-2.61-33.08-9.76-32.06-16.45 1-6.26 32.06-6 32.06-6" transform="translate(0 .75)"/><path d="M153.18 57.29h-.07C121 54 110.47 41.52 107 34.39l-.39-.74c-2.71-6.12-1.42-15.82-1.37-16.23a.65.65 0 0 1 .74-.55.65.65 0 0 1 .55.73c0 .1-1.29 9.74 1.25 15.48l.38.73c3.33 6.9 13.58 18.93 45 22.19a.64.64 0 0 1 .58.71.63.63 0 0 1-.56.58ZM125.73 27a.65.65 0 0 1-.2-1.27c8.85-2.86 27-2.76 27.74-2.76a.66.66 0 0 1 .65.66.61.61 0 0 1-.66.64c-.18 0-18.68-.09-27.33 2.7a.64.64 0 0 1-.2.03Z" transform="translate(0 .75)"/><path class="cls-4" d="M152.81 115.6s-16.08 20.9-43.15 18.4l.28-19.06c8.34-.36 16.23-2.67 21.74-8 16.17-15.6 21.6-16.76 21.6-16.76" transform="translate(0 .75)"/><path d="M114.16 134.82c-1.49 0-3-.07-4.56-.22a.65.65 0 0 1-.59-.66l.28-19.06a.64.64 0 0 1 .62-.64c9.06-.4 16.43-3.09 21.31-7.8 16.13-15.55 21.7-16.87 21.92-16.92a.65.65 0 1 1 .27 1.27s-5.58 1.44-21.28 16.59c-5 4.82-12.44 7.62-21.55 8.12l-.26 17.86c26 2.12 41.81-18 42-18.16a.65.65 0 0 1 .91-.12.64.64 0 0 1 .12.91c-.18.2-14.81 18.83-39.19 18.83Z" transform="translate(0 .75)"/><path d="M112.84 124.4a22.63 22.63 0 0 1-2.91-.16.65.65 0 0 1-.57-.72.66.66 0 0 1 .73-.57c2.26.29 14.22 1.19 27.8-9a86.1 86.1 0 0 0 14.88-13.5.65.65 0 0 1 1 .83A87.22 87.22 0 0 1 138.66 115c-10.9 8.19-20.86 9.4-25.82 9.4Z" transform="translate(0 .75)"/></g><g id="Слой_3" data-name="Слой 3"><g id="спокойствие"><path class="cls-6" d="M113 177.21a13.26 13.26 0 0 0-5-5.26l-5.1-3.25s-.51 1.55-2.87 1.7-6.35 2.6-6.83 7.6 1.22 5.08.11 10.13-2.83 9 3.5 11.26c0 0 4.31 1.22 5.67-3.64 1.07-3.82.08-6.78 1.88-10.57a38.57 38.57 0 0 1 7.51 4.68 12 12 0 0 0-.52-10.87Z" transform="translate(0 .75)"/><path d="M108.67 208.21c-.24-1.74-.16-2 2.38-6.11s2.23-7.23 2.23-7.23c.31-3.66-.64-4.05-3-6a28.49 28.49 0 0 0-5.64-3.39 7.93 7.93 0 0 0-1.41 4.9c0 3.23-.46 3.08-.46 3.08 0 1.92-.62 5.76-4.08 6.07s-7.53-1.39-5.92-8.92.56-2.42.47-9.07 2.46-9.15 2.46-9.15l-22.14-.84L58.83 174s-4.79 6.9-5.21 18.6A127.88 127.88 0 0 0 54 208" transform="translate(0 .75)" style="fill:#666"/><path class="cls-6" d="M34.42 208.06c1.44-7.24 8.26-7 8.43-7.38s.35-5.41.35-5.41 8.51 1 10.53.66l.3 11.62-1.28.79Z" transform="translate(0 .75)"/><path d="M125.63 168.9s7.18-8.63 1.79-21.17-16.63-30-28.94-33.22a7.67 7.67 0 0 0-3.58-5.33c-3.34-2.23-4.9-.13-4.9-.13l.72 1s1.6 1.72-1.46 4.23c0 0-3.86 4.12-6.33 5.37a4.76 4.76 0 0 0-2 1.94l-1.76-.7L72.3 115l-2.45-3.81 1.07-2.19c-1.09-.44-6.75-1-7.78 5.5 0 0-13 .8-19.93 26.1-3.55 12.91-4 27.36-3.5 38.43a27.44 27.44 0 0 1-6-2.57s2.25 9.53 2.25 11.37.29 5.08 4.49 6.35A51.12 51.12 0 0 0 53.18 196l1.11-9.08 1.63-6.57a36.68 36.68 0 0 1 3-6.88l.06-.11c2.2.53 6.81 1.26 9.82-.89 1.24.64 4.7 1.61 13.92.82 0 0 7.8.95 10.88-1 0 0 .13.93 2.06.58a6.45 6.45 0 0 1 4.12-2.46 4.52 4.52 0 0 0 3.5-2s5.54 3.31 8.12 6.5a48.85 48.85 0 0 1 3 3.93s1 2 2.86 1.38 13-3.94 13-3.94a18.89 18.89 0 0 0-4.63-7.38Z" transform="translate(0 .75)" style="fill:#aaa9a9"/><path class="cls-6" d="M116.13 57.16c-6.75-.63-9.07 3.16-9.07 3.16a1.46 1.46 0 0 1-.07.19l-.36-.37 1-2.2L99 49.79l-13.44-6.28L66.4 48.8 56.7 58l-13.7.78s-10.18 2.91-8.35 15.86 11.92 15.17 19.25 13a24.14 24.14 0 0 0 18.22 14.88l-.18.19s.43 6-1.27 7.17v2.31l2.25 3 4.62 4 3 2.92 2.34-2.5c2.47-1.25 6.33-5.37 6.33-5.37 3.06-2.51 1.46-4.23 1.46-4.23s-1.76-.47-.82-7.86l-.18-.34c4.53-1.17 9.39-3.35 12.41-7.43a29 29 0 0 0 4.61-8.67v.06l.28.88c3.34 2 8.58 1.8 12.8-.52s7.17-7.49 7.38-14.24-4.27-14.09-11.02-14.73Z" transform="translate(0 .75)"/><path class="cls-2" d="M70.21 73.82a7.33 7.33 0 0 1-4.43-3.54 6.6 6.6 0 0 1 .34-7.06l7.52-.45s4.1 2.4 1.91 7.78l-2.91 1.07-1.45 1.45M91.93 65.59a5.63 5.63 0 0 1-6.1 9.46 5.93 5.93 0 0 1-2.46-6.5 4.66 4.66 0 0 1 3.06-3.81" transform="translate(0 .75)"/><path d="M88.76 76.55a6 6 0 0 1-3.28-1 6.54 6.54 0 0 1-2.76-7.13 5.31 5.31 0 0 1 3.54-4.35.65.65 0 0 1 .33 1.25c-1.68.45-2.43 2.35-2.58 3.29a5.29 5.29 0 0 0 2.17 5.85 4.93 4.93 0 0 0 4.73.27 4.65 4.65 0 0 0 2.75-3.58 5 5 0 0 0-2.06-5 .65.65 0 0 1-.23-.89.66.66 0 0 1 .89-.22A6.24 6.24 0 0 1 95 71.38 6 6 0 0 1 91.45 76a6.56 6.56 0 0 1-2.69.55Z" transform="translate(0 .75)"/><path d="M42.23 33.08a14.84 14.84 0 0 1 11.69-3.8c7.5.66 9.08 2 15.92-1.05s14.6-2.63 19.08-.23 7.24 5.16 10.79 5.53c5.67.58 14 6.84 16.19 13.94a30.12 30.12 0 0 1 1.2 5.49 14.77 14.77 0 0 0 1.14 4.44l-1.51-.22-5.58.08-4.5 3.36c-4.61-.78-6.48-6.48-8-8.05s-2.65-.78-8.25-1.08-11.29-5-11.29-5l-4.42 4-3.89 1.76-3.93.7-4.24-.2c-1.73 3.52-6 9.17-15.05 8.11a8.29 8.29 0 0 1-6.53-8.81s.62-4.29-.28-6.16c-.72-1.48-3.18-8.65 1.46-12.81Z" transform="translate(0 .75)" style="fill:#282828"/><path d="M65.56 53.67a23.71 23.71 0 0 1-3.05-.21.65.65 0 0 1 .18-1.29C76.38 54 80.19 42.49 80.35 42a.65.65 0 0 1 1.24.39c-.04.11-3.69 11.28-16.03 11.28Z" transform="translate(0 .75)"/><path d="M49.74 61.64a19.65 19.65 0 0 1-2.24-.14 9 9 0 0 1-7.1-9.5c.17-1.21.45-4.47-.21-5.85-1.14-2.36-3.07-9.4 1.6-13.58a15.37 15.37 0 0 1 12.18-4c1.67.14 3.05.32 4.26.48 4.24.55 6.18.8 11.34-1.48 7.53-3.33 15.47-2.46 19.65-.25 1.56.83 2.93 1.72 4.15 2.5 2.36 1.53 4.23 2.73 6.41 3 5.83.61 14.41 7 16.74 14.4a30.73 30.73 0 0 1 1.23 5.62 13.86 13.86 0 0 0 1.08 4.22.65.65 0 0 1-1.18.56 15.41 15.41 0 0 1-1.2-4.66 29.35 29.35 0 0 0-1.17-5.34c-2.18-6.92-10.19-12.94-15.64-13.51-2.49-.26-4.57-1.6-7-3.16-1.25-.81-2.54-1.64-4-2.44-3.91-2.07-11.38-2.87-18.51.29-5.5 2.43-7.82 2.13-12 1.58-1.2-.16-2.56-.33-4.2-.48a14.26 14.26 0 0 0-11.16 3.6c-4.09 3.67-2.29 10.11-1.34 12.08s.4 6.08.33 6.54a7.58 7.58 0 0 0 6 8.07C60 61.65 62.91 50.4 63 49.92a.65.65 0 0 1 1.27.32c0 .12-2.93 11.4-14.53 11.4Z" transform="translate(0 .75)"/><path d="M106.65 61.24h-.11c-3.68-.62-5.74-4.1-7.1-6.4A12.42 12.42 0 0 0 98.23 53c-.77-.82-1.33-.84-3.54-.81-1.08 0-2.43 0-4.27-.07-5.75-.3-11.43-5-11.67-5.15a.65.65 0 0 1-.09-.92.67.67 0 0 1 .92-.09s5.6 4.58 10.91 4.86c1.8.1 3.12.08 4.18.07 2.21 0 3.32-.05 4.5 1.22a12.88 12.88 0 0 1 1.39 2.07c1.31 2.22 3.11 5.26 6.2 5.78a.65.65 0 0 1 .53.75.64.64 0 0 1-.64.53Z" transform="translate(0 .75)"/><path d="M79.22 103.79h-1.06c-13.85 0-21.92-8.19-24.85-15.89-1.79-4.72-.93-9.31-.17-13.36a31.33 31.33 0 0 0 .71-5.41 23.1 23.1 0 0 0-1.11-7.73.66.66 0 0 1 .37-.85.65.65 0 0 1 .84.37 23.73 23.73 0 0 1 1.2 8.21 32.32 32.32 0 0 1-.73 5.65c-.73 3.88-1.56 8.28.11 12.66 2.79 7.33 10.53 15.1 23.88 15 .19 0 16.53.51 23.2-8.5s5.94-14.86 4.3-22.31a13.06 13.06 0 0 1-.27-2c-.15-2.47-.24-7 .82-9.64a.47.47 0 0 1 .05-.1c.1-.17 2.62-4.13 9.68-3.46 7.24.68 11.87 8.47 11.66 15.32s-3.1 12.25-7.72 14.79c-4.32 2.38-9.72 2.62-13.24.63a31.56 31.56 0 0 1-4.24 7.5c-6.26 8.55-19.89 9.12-23.43 9.12ZM107.33 86c3.14 1.9 8.13 1.68 12.15-.53 4.22-2.32 6.85-7.44 7-13.69s-4-13.38-10.48-14c-5.93-.55-8.15 2.4-8.43 2.81-1 2.49-.82 7.13-.7 9a10.52 10.52 0 0 0 .24 1.75c1.16 5 1.89 9.51.22 14.66Z" transform="translate(0 .75)"/><path d="M107.65 75a.65.65 0 0 1-.1-1.29c5.7-.87 6.84-6.94 6.88-7.2a.65.65 0 0 1 1.28.23c0 .07-1.33 7.24-8 8.25Z" transform="translate(0 .75)"/><path d="M116.65 79.33a.65.65 0 0 1-.61-.44c-.06-.16-1.51-4.13-5.65-4.41a.65.65 0 1 1 .09-1.3c5 .34 6.72 5.08 6.79 5.28a.65.65 0 0 1-.4.83.57.57 0 0 1-.22.04ZM49 89a14.89 14.89 0 0 1-8.11-2.28c-3.69-2.38-6-6.54-6.83-12-1.9-13.35 8.71-16.54 8.81-16.57a.65.65 0 1 1 .36 1.25c-.39.11-9.62 2.93-7.88 15.14.73 5.18 2.84 8.92 6.25 11.12A15 15 0 0 0 53.74 87a.65.65 0 1 1 .36 1.25A18.41 18.41 0 0 1 49 89Z" transform="translate(0 .75)"/><path d="M53.67 75.75h-.09c-6.2-.9-7.91-8.68-8-9a.65.65 0 0 1 1.28-.27c0 .07 1.59 7.23 6.88 8a.66.66 0 0 1 .55.74.65.65 0 0 1-.62.53Z" transform="translate(0 .75)"/><path d="M44.86 80.88h-.08a.64.64 0 0 1-.56-.72 8.85 8.85 0 0 1 5.64-7 .64.64 0 0 1 .82.4.65.65 0 0 1-.4.83 7.65 7.65 0 0 0-4.77 5.9.66.66 0 0 1-.65.59ZM91.4 65.9a13.59 13.59 0 0 1-7.61-2.11c-5.06-3.3-6-9.24-6.05-9.49a.65.65 0 0 1 1.26-.2c0 .06.91 5.64 5.48 8.61 3.23 2.1 7.52 2.45 12.74 1a.65.65 0 1 1 .37 1.29 23.74 23.74 0 0 1-6.19.9Z" transform="translate(0 .75)"/><path d="M69.21 63.47a23 23 0 0 1-7.49-1.36.66.66 0 0 1-.37-.85.65.65 0 0 1 .85-.36 21.72 21.72 0 0 0 6.6 1.29c4.63.12 7.92-1.62 9.79-5.16a.65.65 0 0 1 .88-.27.64.64 0 0 1 .27.87c-2.45 4.64-6.74 5.84-10.53 5.84ZM75.71 82.88h-.46c-4.68-.24-5.92-4.35-5.92-6.49s1.53-6.36 6.2-6.48a6.82 6.82 0 0 1 6.32 7.28c.05.09-.42 5.69-6.14 5.69Zm-.17-11.68c-4.6.13-4.9 5-4.91 5.22s.08 4.92 4.69 5.15a4.76 4.76 0 0 0 5.28-4.44c0-5.5-4.6-5.9-5.06-5.93ZM55 84.46l-4-.09a.66.66 0 0 1-.64-.66.69.69 0 0 1 .66-.64l4 .09a.65.65 0 0 1 0 1.3ZM62.24 77.28a.61.61 0 0 1-.42-.16l-3-2.51a.65.65 0 1 1 .84-1l3 2.51a.65.65 0 0 1-.42 1.15ZM96.81 81.5a.65.65 0 0 1-.23-1.26l3.15-1.17a.65.65 0 0 1 .45 1.22L97 81.46a.93.93 0 0 1-.19.04ZM106.24 91.82a.66.66 0 0 1-.43-.16l-2.6-2.24a.66.66 0 0 1-.07-.92.65.65 0 0 1 .92-.06l2.6 2.24a.66.66 0 0 1 .07.92.64.64 0 0 1-.49.22ZM92.59 97.3a.66.66 0 0 1-.57-1l1.52-2.87a.66.66 0 0 1 .88-.27.65.65 0 0 1 .27.88L93.16 97a.64.64 0 0 1-.57.3ZM75.42 105.42a.72.72 0 0 1-.32-.08.65.65 0 0 1-.25-.89l2.27-4a.66.66 0 0 1 .89-.25.65.65 0 0 1 .24.89l-2.27 4a.65.65 0 0 1-.56.33ZM65.3 95.68a.66.66 0 0 1-.59-.36.64.64 0 0 1 .3-.87l2.51-1.26a.65.65 0 0 1 .58 1.17l-2.51 1.25a.65.65 0 0 1-.29.07Z" transform="translate(0 .75)"/><path d="M75.55 71.2a.52.52 0 0 1-.24 0 .63.63 0 0 1-.36-.84c1.94-4.78-1.49-6.9-1.64-7a.65.65 0 0 1-.23-.89.64.64 0 0 1 .89-.23s4.56 2.76 2.18 8.56a.64.64 0 0 1-.6.4ZM70.22 74.47a.57.57 0 0 1-.18 0 8 8 0 0 1-4.82-3.84 7.2 7.2 0 0 1 .39-7.78.65.65 0 0 1 1 .8 5.92 5.92 0 0 0-.26 6.35 6.7 6.7 0 0 0 4 3.22.65.65 0 0 1-.17 1.28ZM88.76 76.55a6 6 0 0 1-3.28-1 6.54 6.54 0 0 1-2.76-7.13 5.31 5.31 0 0 1 3.54-4.35.65.65 0 0 1 .33 1.25c-1.68.45-2.43 2.35-2.58 3.29a5.29 5.29 0 0 0 2.17 5.85 4.93 4.93 0 0 0 4.73.27 4.65 4.65 0 0 0 2.75-3.58 5 5 0 0 0-2.06-5 .65.65 0 0 1-.23-.89.66.66 0 0 1 .89-.22A6.24 6.24 0 0 1 95 71.38 6 6 0 0 1 91.45 76a6.56 6.56 0 0 1-2.69.55Z" transform="translate(0 .75)"/><circle cx="68.79" cy="67.2" r="3.11"/><circle cx="87.04" cy="69.29" r="3.11"/><path d="M85.3 174a.65.65 0 0 1-.65-.65v-44.83a1.63 1.63 0 0 0-1.65-1.63h-2.22a.66.66 0 0 1-.56-.33 5.33 5.33 0 0 1-.36-4.12 5.66 5.66 0 0 1 2.78-3.44c2.33-1.18 6.11-5.2 6.15-5.24a4 4 0 0 0 1.69-2.42 1.32 1.32 0 0 0-.19-.85c-.68-.4-1.86-2-1-8.45a.65.65 0 1 1 1.29.17c-.8 6.29.42 7.16.43 7.17a.34.34 0 0 1 .22.15 2.55 2.55 0 0 1 .59 1.87 5 5 0 0 1-2.1 3.31c-.1.11-3.92 4.16-6.46 5.45a4.35 4.35 0 0 0-2.11 2.63 4.18 4.18 0 0 0 .08 2.78H83a2.93 2.93 0 0 1 3 2.95v44.87a.65.65 0 0 1-.7.61ZM70.7 110.55a.65.65 0 0 1-.37-1.19c1-.65 1.15-4.24 1-6.58a.65.65 0 0 1 .6-.7.66.66 0 0 1 .69.6c.08 1.07.35 6.45-1.55 7.76a.69.69 0 0 1-.37.11Z" transform="translate(0 .75)"/><path d="M89.61 133a.58.58 0 0 1-.26-.06.61.61 0 0 1-.38-.52c0-.09-.87-8.42-4.2-10.87a3 3 0 0 0-2.55-.56.65.65 0 0 1-.22-1.29 4.39 4.39 0 0 1 3.59.79c3 2.22 4.2 8.13 4.57 10.64 5.39-4.46 7.19-11.76 7.73-14.81a4.85 4.85 0 0 0 0-1.7 4.73 4.73 0 0 0-.55-1.54c-3.05-5.37-6.7-3.91-6.85-3.85a.65.65 0 0 1-.52-1.19s4.85-2 8.5 4.4a6 6 0 0 1 .7 2 6 6 0 0 1 0 2.15c-.59 3.36-2.67 11.68-9.13 16.32a.64.64 0 0 1-.43.09ZM70.87 132.65a.62.62 0 0 1-.51-.25c-.37-.45-8.93-11.29-7.86-18a7.1 7.1 0 0 1 3.34-5.43 6.94 6.94 0 0 1 5.32-.57.65.65 0 0 1-.48 1.21 5.66 5.66 0 0 0-4.2.49 5.87 5.87 0 0 0-2.7 4.51c-.85 5.34 5.41 14.11 7.15 16.44a13.35 13.35 0 0 0 1.74-4.79c.08-.63.87-6.49 4.29-6.8a3.6 3.6 0 0 1 4.13 2.88.65.65 0 0 1-1.29.22 2.28 2.28 0 0 0-2.73-1.8c-2 .18-2.93 4.17-3.11 5.69-.09.51-.86 4.73-2.71 6.1a.6.6 0 0 1-.38.1Z" transform="translate(0 .75)"/><path d="M79.11 121.19a.63.63 0 0 1-.44-.17s-2.23-2-5.66-4.85c-3.7-3.06-3.51-6.29-3.5-6.42a.65.65 0 0 1 1.3.09c0 .12-.12 2.73 3 5.33 3.45 2.86 5.68 4.87 5.7 4.89a.65.65 0 0 1-.43 1.13ZM72.69 174.12c-.79 0-9.88-.19-11.57-8.41a.64.64 0 0 1 .5-.77.66.66 0 0 1 .77.51c1.54 7.49 10 7.38 10.34 7.37H89c8.39-.89 9.15-7.95 9.16-8a.63.63 0 0 1 .7-.58.65.65 0 0 1 .59.7c0 .08-.88 8.19-10.38 9.19H72.69Z" transform="translate(0 .75)"/><path d="M62.78 174.69a11.88 11.88 0 0 1-5.86-1.39c-2.53-1.43-4.17-3.9-4.89-7.35-2.33-11.23 7.84-34.39 8.28-35.37a.64.64 0 0 1 .85-.33.66.66 0 0 1 .34.86c-.11.23-10.45 23.75-8.19 34.58.63 3.06 2.06 5.24 4.24 6.47 4.37 2.48 10.42.41 10.48.39a.65.65 0 1 1 .43 1.23 18.7 18.7 0 0 1-5.68.91ZM77.82 138.63a4 4 0 1 1 4-4 4 4 0 0 1-4 4Zm0-6.67a2.69 2.69 0 1 0 2.69 2.69 2.69 2.69 0 0 0-2.69-2.65ZM77.82 153.39a4 4 0 1 1 4-4 4 4 0 0 1-4 4Zm0-6.68a2.69 2.69 0 1 0 2.69 2.69 2.69 2.69 0 0 0-2.69-2.69ZM77.82 168a4 4 0 1 1 4-4 4 4 0 0 1-4 4Zm0-6.67a2.69 2.69 0 1 0 2.69 2.69 2.69 2.69 0 0 0-2.69-2.66ZM79.81 113.94a.64.64 0 0 1-.35-.1 6.31 6.31 0 0 1-2.71-5 10.54 10.54 0 0 1 1.56-5.42.65.65 0 0 1 .9-.18.66.66 0 0 1 .18.9 9.44 9.44 0 0 0-1.34 4.7 5 5 0 0 0 2.12 3.91.65.65 0 0 1 .18.9.64.64 0 0 1-.54.29ZM79.61 208.9a.66.66 0 0 1-.65-.57 41.51 41.51 0 0 1 .09-11 .64.64 0 0 1 .44-.51 16.15 16.15 0 0 0 8.51-7 .64.64 0 0 1 .87-.27.66.66 0 0 1 .28.88 17.29 17.29 0 0 1-8.87 7.51 41.11 41.11 0 0 0 0 10.24.64.64 0 0 1-.56.73Z" transform="translate(0 .75)"/><path d="M54 208.65a.64.64 0 0 1-.64-.62q-.06-1-.15-2.1a112.33 112.33 0 0 1-.21-13.31c.42-11.75 5.13-18.66 5.33-19a.64.64 0 0 1 .9-.17.66.66 0 0 1 .17.91c0 .07-4.69 6.91-5.1 18.26a110.09 110.09 0 0 0 .28 13.17c.06.77.11 1.47.14 2.12a.65.65 0 0 1-.61.69Z" transform="translate(0 .75)"/><path d="M54.17 188a.66.66 0 0 1-.65-.59.65.65 0 0 1 .59-.71 12.45 12.45 0 0 0 10.54-7.06.63.63 0 0 1 .84-.37.65.65 0 0 1 .37.84c-.11.28-2.82 7.09-11.63 7.89ZM95.4 77.62a.64.64 0 0 1-.57-.35s-1-1.86-2.41-2a.65.65 0 0 1-.56-.73.64.64 0 0 1 .72-.56c2.1.26 3.35 2.62 3.4 2.72a.66.66 0 0 1-.28.88.63.63 0 0 1-.3.04ZM61.88 72.41a.65.65 0 0 1-.48-1.08c.06-.07 1.57-1.7 4.89-.79A.65.65 0 1 1 66 71.8c-2.5-.69-3.55.36-3.59.41a.67.67 0 0 1-.53.2ZM95.08 173.73H95a16.47 16.47 0 0 1-2.32-.58.65.65 0 1 1 .43-1.22 16.72 16.72 0 0 0 2.12.52.65.65 0 0 1-.11 1.29ZM109 157.13a.65.65 0 0 1-.65-.6c-.94-11.8-6.95-26.38-7-26.52a.65.65 0 1 1 1.2-.5c.06.14 6.15 14.91 7.1 26.92a.64.64 0 0 1-.59.7ZM125.48 169.5a.63.63 0 0 1-.39-.13.65.65 0 0 1-.13-.91 18.57 18.57 0 0 0 3.29-15.22c-2.49-12.9-15-28.12-21.1-33.4-4-3.4-6.7-4.47-8.31-4.77a.65.65 0 0 1 .24-1.28c1.77.33 4.75 1.48 8.91 5.07 6.25 5.38 19 20.92 21.54 34.14a19.86 19.86 0 0 1-3.53 16.24.65.65 0 0 1-.52.26Z" transform="translate(0 .75)"/><path d="M109.71 157.21h-.17a.64.64 0 0 1-.46-.8c1.2-4.54 5.79-5.67 6-5.72a.65.65 0 0 1 .3 1.27 7.17 7.17 0 0 0-5 4.79.64.64 0 0 1-.67.46Z" transform="translate(0 .75)"/><path d="M109 156.09a.65.65 0 0 1-.65-.6c-.45-6.19 3-9.44 3.13-9.57a.65.65 0 0 1 .89 1 11 11 0 0 0-2.73 8.52.65.65 0 0 1-.6.7Z" transform="translate(0 .75)"/><path d="M116.52 180.84c-2 0-2.41-1.22-2.43-1.28-1-2.47-5-6-5-6-5.08-4.41-6.59-4.59-7.24-4.66a1.54 1.54 0 0 1-1.37-.93c-1.07-1.8 2.31-7 3.82-9.18s.86-1.11 1.53-1.95a2.87 2.87 0 0 1 2.47-.91c4.57 1 9.29 4.78 9.49 4.94 11.48 8.73 13 15 13 15.26a.64.64 0 0 1-.1.5.61.61 0 0 1-.43.28 53.76 53.76 0 0 0-8.67 2.58 25.81 25.81 0 0 1-4.33 1.36 5.4 5.4 0 0 1-.74-.01Zm-11.18-21.34c-2.41 3.46-4.16 7.09-3.76 7.77a1.2 1.2 0 0 0 .19.27h.21c.89.1 2.56.29 7.94 5 .18.15 4.3 3.78 5.39 6.57.1.2.6.54 1.81.38a27.36 27.36 0 0 0 4.06-1.29 58.28 58.28 0 0 1 8.15-2.5c-.7-1.77-3.37-7-12.35-13.88-.06 0-4.7-3.72-8.92-4.68H108a1.47 1.47 0 0 0-1.13.44c-.66.78-1.44 1.8-1.53 1.92Z" transform="translate(0 .75)"/><path d="M98 200.2a5.43 5.43 0 0 1-1.35-.16c-6.26-2.26-5.31-6.27-4.31-10.51.12-.5.24-1 .36-1.52a11.05 11.05 0 0 0 .11-5.18 15.52 15.52 0 0 1-.24-4.87c.51-5.32 4.75-8 7.46-8.21 1.85-.12 2.28-1.22 2.3-1.26a.65.65 0 0 1 1.23.42 3.64 3.64 0 0 1-3.45 2.14c-2 .12-5.79 2.31-6.24 7a14.5 14.5 0 0 0 .21 4.51 12.1 12.1 0 0 1-.11 5.69c-.12.53-.24 1.05-.36 1.55-1 4.29-1.69 7.12 3.44 9 .33.09 3.68.88 4.82-3.21a19.49 19.49 0 0 0 .6-4.38c.16-2.89.33-5.87 3.58-9.74a.65.65 0 0 1 1 .83c-3 3.55-3.13 6.19-3.29 9a20.75 20.75 0 0 1-.63 4.66 5.63 5.63 0 0 1-2.6 3.62 5.07 5.07 0 0 1-2.53.62ZM111.87 190.53a.58.58 0 0 1-.28-.07.65.65 0 0 1-.31-.86 11.42 11.42 0 0 0-.48-10.24.68.68 0 0 1 .07-.79l1.66-1.8a.65.65 0 1 1 1 .88l-1.34 1.46a12.48 12.48 0 0 1 .31 11 .67.67 0 0 1-.63.42Z" transform="translate(0 .75)"/><path d="M108.67 208.86a.66.66 0 0 1-.65-.56c-.27-2 0-2.44 2.48-6.54a12.26 12.26 0 0 0 2.13-6.83.24.24 0 0 1 0-.12c.26-3-.31-3.45-2.18-5l-.61-.5a27 27 0 0 0-5.5-3.3.66.66 0 0 1-.31-.87.64.64 0 0 1 .86-.31 28.88 28.88 0 0 1 5.78 3.48l.6.49c2.1 1.72 3 2.57 2.66 6.05a13.5 13.5 0 0 1-2.33 7.57c-2.51 4.08-2.49 4.17-2.29 5.69a.65.65 0 0 1-.55.73ZM122.2 176.53a3.08 3.08 0 1 1 3.08-3.08 3.08 3.08 0 0 1-3.08 3.08Zm0-4.85a1.78 1.78 0 1 0 1.78 1.77 1.78 1.78 0 0 0-1.78-1.77ZM39.71 179.66a.65.65 0 0 1-.65-.63c-.42-10.24-.15-25.26 3.53-38.62 7-25.46 20-26.55 20.51-26.58a.66.66 0 0 1 .69.61.65.65 0 0 1-.61.68c-.12 0-12.6 1.16-19.34 25.63-3.63 13.2-3.9 28.08-3.48 38.23a.66.66 0 0 1-.63.68Z" transform="translate(0 .75)"/><path d="M53.18 196.63a52 52 0 0 1-12.94-1.85 6.58 6.58 0 0 1-5-7c0-1.45-1.61-8.59-2.24-11.22a.64.64 0 0 1 .26-.68.67.67 0 0 1 .73 0c9.59 6.13 21.63 3.83 21.75 3.81a.65.65 0 1 1 .26 1.27c-.49.1-11.63 2.24-21.38-3.19.63 2.78 1.92 8.57 1.92 10 0 2.1.46 4.65 4 5.72a50 50 0 0 0 12.56 1.8.65.65 0 0 1 0 1.3Z" transform="translate(0 .75)"/><path d="M34.42 208.71h-.13a.65.65 0 0 1-.51-.76c1.27-6.41 6.57-7.4 8.31-7.73h.21c.07-.72.18-2.94.25-4.93a.65.65 0 0 1 1.3 0c-.18 5.2-.35 5.54-.42 5.68-.17.35-.48.41-1.1.52-1.69.32-6.18 1.16-7.27 6.7a.66.66 0 0 1-.64.52ZM41.83 188a3.08 3.08 0 1 1 3.08-3 3.08 3.08 0 0 1-3.08 3Zm0-4.85a1.78 1.78 0 1 0 1.78 1.85 1.78 1.78 0 0 0-1.78-1.83ZM76.44 89h-.58a13.06 13.06 0 0 1-10.34-5.59.65.65 0 0 1 .19-.9.66.66 0 0 1 .9.2 12 12 0 0 0 9.27 5c6.49.1 8.67-1.74 10.59-3.37a.64.64 0 0 1 .91.07.66.66 0 0 1-.07.92c-2.37 2-4.84 3.67-10.87 3.67Z" transform="translate(0 .75)"/><path d="M89.53 88.12a.66.66 0 0 1-.36-.11 6.32 6.32 0 0 1-3-5.44.64.64 0 0 1 .7-.6.65.65 0 0 1 .59.7 5.05 5.05 0 0 0 2.47 4.25.66.66 0 0 1 .18.91.67.67 0 0 1-.58.29ZM63.86 86.68a.65.65 0 0 1-.31-1.22c2.91-1.59 1.83-5.47 1.78-5.63a.65.65 0 0 1 1.25-.37c.51 1.74.66 5.46-2.41 7.14a.58.58 0 0 1-.31.08Z" transform="translate(0 .75)"/></g><path d="M61.75-.75v1.3h90.91v207.11h-125a.64.64 0 1 0 0 1.28H154V-.75Z" transform="translate(0 .75)"/></g></svg>