<svg xmlns="http://www.w3.org/2000/svg" viewBox="0 0 153.96 209.71"><defs><style>.cls-2{fill:#fff}.cls-3{fill:#a5a5a5}.cls-4{fill:#818181}.cls-5{fill:none;stroke:#000;stroke-linecap:round;stroke-linejoin:round;stroke-width:1.3px}.cls-7{fill:#aaa9a9}.cls-8{fill:#e2e2e2}</style></defs><g id="Слой_2" data-name="Слой 2"><path d="M61.75-.1h1.11-3.6S55.51-.54 54.81 1 34.34-3.2 31.37 5.47c0 0-.46 1.49-3.67 1.88-3 .37-7.57 1.5-8.54 8.05a6 6 0 0 1-.39 1.15c-.16.32-.85.34-1.13.43a6.27 6.27 0 0 0-4.42 4.12c-1 3.4-6.79 3-7.34 7.73a6.08 6.08 0 0 0 .39 2.33 18.39 18.39 0 0 1-1.69 12.07 17 17 0 0 0-1.4 8.24c.09 1.19.72 1.76 1 2.89a25.68 25.68 0 0 0 .35 2.57 18.12 18.12 0 0 0 3.36 5.74C11.24 66.33 9.26 73 4.45 78.26c-6.67 7.24-4.8 20.25-1.14 28.17s5 13.41 2.13 19.65-6.86 16.3 1.56 26.05S2.85 175 9.25 185.94s9.49 6.71 13.29 14.33 5.4 7.82 5.4 7.82l4.4.22h121V-.1Z" transform="translate(0 .75)" style="fill:#ddd"/><path class="cls-2" d="M69.4.75h6.79v103.69a3.39 3.39 0 0 1-3.39 3.39 3.39 3.39 0 0 1-3.39-3.39V.75h-.01Z"/><path d="M72.79 107.73a4 4 0 0 1-4-4V0a.65.65 0 0 1 .65-.65h6.79a.65.65 0 0 1 .65.65v103.69a4.05 4.05 0 0 1-4.09 4.04ZM70.05.65v103a2.75 2.75 0 0 0 5.49 0V.65Z" transform="translate(0 .75)"/><path d="M90.83 109.46a.66.66 0 0 1-.58-.35L75.93 80.64a7.69 7.69 0 0 1-3.2.69.66.66 0 0 1-.66-.63.65.65 0 0 1 .63-.7 5.45 5.45 0 0 0 3.09-.81.65.65 0 0 1 .54-.13.68.68 0 0 1 .45.34l14.63 29.09a.66.66 0 0 1-.29.88.72.72 0 0 1-.29.09Z" transform="translate(0 .75)"/><path d="M54.56 109.46a.72.72 0 0 1-.29-.06.66.66 0 0 1-.29-.88l14.64-29.09a.61.61 0 0 1 .44-.34.67.67 0 0 1 .55.13 5.44 5.44 0 0 0 3.08.81.65.65 0 0 1 .63.67.63.63 0 0 1-.66.63 7.63 7.63 0 0 1-3.19-.69l-14.33 28.47a.65.65 0 0 1-.58.35Z" transform="translate(0 .75)"/><path d="M72.71 118.42a.65.65 0 0 1-.65-.65V80.86a.65.65 0 0 1 1.3 0v36.91a.65.65 0 0 1-.65.65Z" transform="translate(0 .75)"/><path class="cls-2" d="M101.92.75h6.79v103.69a3.39 3.39 0 0 1-3.39 3.39 3.39 3.39 0 0 1-3.39-3.39V.75h-.01Z"/><path d="M105.32 107.73a4.05 4.05 0 0 1-4-4V0a.66.66 0 0 1 .65-.65h6.79a.65.65 0 0 1 .65.65v103.69a4 4 0 0 1-4.09 4.04ZM102.57.65v103a2.75 2.75 0 0 0 5.49 0V.65Z" transform="translate(0 .75)"/><path d="M123.36 109.46a.65.65 0 0 1-.58-.35l-14.33-28.47a7.63 7.63 0 0 1-3.19.69.67.67 0 0 1-.67-.63.66.66 0 0 1 .64-.67 5.44 5.44 0 0 0 3.08-.81.68.68 0 0 1 .55-.13.66.66 0 0 1 .44.34l14.64 29.09a.66.66 0 0 1-.29.88.75.75 0 0 1-.29.06Z" transform="translate(0 .75)"/><path d="M87.08 109.46a.79.79 0 0 1-.29-.06.66.66 0 0 1-.29-.88l14.64-29.09a.63.63 0 0 1 .45-.34.69.69 0 0 1 .55.13 5.35 5.35 0 0 0 3.08.81.65.65 0 1 1 0 1.3 7.63 7.63 0 0 1-3.19-.69l-14.36 28.47a.67.67 0 0 1-.59.35Z" transform="translate(0 .75)"/><path d="M105.24 118.42a.65.65 0 0 1-.65-.65V80.86a.65.65 0 0 1 1.3 0v36.91a.65.65 0 0 1-.65.65Z" transform="translate(0 .75)"/><path class="cls-2" d="m13.97 22.4-.26 3.81v78.23"/><path class="cls-2" d="M13.71 103.69a3.39 3.39 0 0 0 3.39 3.39 3.39 3.39 0 0 0 3.39-3.39V11s-1.31 1-1.78 3.8-2 1.48-4.27 3.71c0 0-1 1.05-.73 3.61" transform="translate(0 .75)"/><path d="M17.1 107.73a4 4 0 0 1-4-4V20.17a.65.65 0 0 1 1.3 0v83.52a2.74 2.74 0 1 0 5.48 0V12.32a.65.65 0 1 1 1.3 0v91.37a4 4 0 0 1-4.08 4.04Z" transform="translate(0 .75)"/><path d="M35.14 109.46a.65.65 0 0 1-.58-.35L20.23 80.64a7.63 7.63 0 0 1-3.19.69.67.67 0 0 1-.67-.63.66.66 0 0 1 .63-.7 5.44 5.44 0 0 0 3.08-.81.69.69 0 0 1 .55-.13.64.64 0 0 1 .44.34l14.64 29.09a.66.66 0 0 1-.29.88.72.72 0 0 1-.28.09Z" transform="translate(0 .75)"/><path d="M1.89 103.46a.59.59 0 0 1-.29-.07.64.64 0 0 1-.29-.87l11.61-23.09a.65.65 0 0 1 .45-.34.68.68 0 0 1 .55.13A5.35 5.35 0 0 0 17 80a.65.65 0 0 1 0 1.3 7.69 7.69 0 0 1-3.2-.69L2.47 103.1a.66.66 0 0 1-.58.36Z" transform="translate(0 .75)"/><path d="M17 118.42a.65.65 0 0 1-.65-.65V80.86a.65.65 0 1 1 1.3 0v36.91a.65.65 0 0 1-.65.65Z" transform="translate(0 .75)"/><path class="cls-3" d="m90.85 5.21-1.78-.96L90.65.8h3.8l-2.63 4.71-.97-.3zM89.52 8.1l-1.98-1.11-2.49 4.37 1.99 1.39M85.32 15.54l-1.87-1.27-2.87 4.12 1.86 1.57M80.42 22.3l-1.74-1.44-3.25 3.83 1.7 1.74M74.84 28.55l-1.48-1.72-3.84 3.24 1.38 1.99M68.01 33.58l-1.05-2.01-4.47 2.3.9 2.25M60.23 36.97l-.11-2.27-5.02.18-.14 2.42M51.94 36.87l.6-1.91-4.76-1.58-.91 2.06M44.23 34.04l1.11-1.98-4.35-2.51-1.4 1.99M37.43 29.39l1.51-1.69-3.71-3.39-1.8 1.63M31.57 23.58l1.72-1.47-3.22-3.86-2 1.38M26.83 17.29l1.82-1.34-2.92-4.08L24 12.88"/><path class="cls-3" d="m22.74 10.36 1.86-1.29-.81-1.2a3.56 3.56 0 0 0-1.73 1.51" transform="translate(0 .75)"/><path class="cls-3" d="m63.81 5.24-2.14-.35.28-4.2 2.08.11M63.49 7.99l-2.23-.39-.91 4.95 2.34.65M61.88 15.92l-2.17-.65-1.51 4.79 2.24.94M59.16 23.79l-2-1.07-2.42 4.41 2.02 1.36M55 30.94l-1.78-1.4-3.16 3.91.85.82 1.71.22M36.65 42.3l-.2-2.42 2.99-.53 2.74 1.71-5.53 1.24zM33.8 42.44l-.16-2.26-5.01.3-.04 2.2M25.82 42.9l-.16-2.26-5.01.3-.08 2.43M18.17 43.81l-.49-2.22-4.92 1.03.28 2.41M10.92 45.98l-1.06-2L5.4 46.3l.92 2.25"/><path class="cls-3" d="M93 .16S79.89 34 58.69 36.5l.23-.2-4 .26.14-2.43 5-.17.06 1.28.14-.12C72 21 71.21.1 71.21.1L64.28 0s.22 20.85-12 34l-.13.09.36.12-.61 1.9-2-.56-.36.23C34.83 31.7 24.76 14.48 22 9.14a11.8 11.8 0 0 0-2.57 3.18 28.11 28.11 0 0 0-1 4.23l.15.27c3.89 6.56 12 17.9 24.3 23.39l-.09.06A37.14 37.14 0 0 1 36 41.64c-9.19 1-22.59-.55-31.61 8.16s-1.8.47-.89 3c1.13 3.13.78 4.64 1.59 4.67a.86.86 0 0 0 .36-.08v.08l.12-.14a2.9 2.9 0 0 0 .94-1c8.49-8.69 22.86-8.17 29-8.49 6.38-.34 13-3.5 13-3.5.93-.42 1.82-.88 2.67-1.36l.09-.08a34.12 34.12 0 0 0 6.72.56C85.76 43 100.67-.07 100.67-.07Z" transform="translate(0 .75)"/><path d="M57.43 44C36.19 44 22.79 25.26 18 17.15a.65.65 0 1 1 1.11-.67c4.69 7.93 17.76 26.24 38.33 26.24h.49c27.05-.37 42-42.57 42.14-43a.65.65 0 0 1 .83-.4.65.65 0 0 1 .4.82C101.14.58 85.9 43.62 57.94 44Z" transform="translate(0 .75)"/><path d="M55.93 37.32c-18.38 0-31-21.15-34.56-27.88a.65.65 0 1 1 1.15-.6 73.92 73.92 0 0 0 12 16.67c7.63 7.73 15.61 11.22 23.7 10.4C79 33.78 92.23.26 92.36-.08a.65.65 0 0 1 1.21.47 98.54 98.54 0 0 1-9.36 17.51c-7.94 11.71-16.87 18.38-25.83 19.3-.82.08-1.64.12-2.45.12ZM5.41 58a.65.65 0 0 1-.5-1c7.64-9.14 21.09-9.58 28.29-9.82l2.21-.09c6.17-.32 12.7-3.41 12.76-3.44.91-.41 1.79-.86 2.63-1.34a.65.65 0 0 1 .88.25.64.64 0 0 1-.24.88c-.88.5-1.79 1-2.72 1.39a40.53 40.53 0 0 1-13.24 3.56l-2.23.09c-7 .23-20.07.66-27.34 9.33a.67.67 0 0 1-.5.19Z" transform="translate(0 .75)"/><path d="M60.32 35.77a.66.66 0 0 1-.42-.15.65.65 0 0 1-.08-.91C71.19 21 70.56.34 70.56.13a.63.63 0 0 1 .62-.67.67.67 0 0 1 .68.62c0 .21.65 21.34-11 35.46a.67.67 0 0 1-.54.23ZM3.94 50.88a.66.66 0 0 1-.46-1.11c7.3-7.45 17.72-7.94 26.09-8.34 2.26-.11 4.4-.21 6.35-.44a35.64 35.64 0 0 0 6.63-1.34.65.65 0 0 1 .82.43.66.66 0 0 1-.43.81 38.35 38.35 0 0 1-6.88 1.4c-2 .22-4.14.33-6.43.44-8.57.4-18.28.87-25.22 8a.67.67 0 0 1-.47.15ZM52.31 34.66a.67.67 0 0 1-.44-.17.65.65 0 0 1 0-.92C63.7 20.8 63.63.25 63.63 0a.64.64 0 0 1 .64-.65.65.65 0 0 1 .65.64c0 .21.08 21.27-12.14 34.42a.64.64 0 0 1-.47.25ZM90.85 5.11a.7.7 0 0 1-.31-.11l-1.78-1a.65.65 0 0 1-.28-.84l1.58-3.38a.65.65 0 0 1 .86-.32.65.65 0 0 1 .32.86l-1.33 2.9 1.25.67a.65.65 0 0 1 .26.88.63.63 0 0 1-.57.34ZM87 12.65a.68.68 0 0 1-.38-.12l-2-1.39a.67.67 0 0 1-.19-.86L87 5.92a.64.64 0 0 1 .88-.24l2 1.1a.66.66 0 0 1 .25.89.65.65 0 0 1-.88.25l-1.42-.79-1.88 3.29 1.5 1.05a.66.66 0 0 1 .16.91.65.65 0 0 1-.61.27ZM82.44 19.86a.68.68 0 0 1-.42-.15l-1.86-1.57a.66.66 0 0 1-.11-.87l2.86-4.12a.66.66 0 0 1 .9-.17l1.88 1.27a.65.65 0 0 1-.69 1.08l-1.34-.91-2.17 3.11 1.41 1.18a.65.65 0 0 1-.42 1.15ZM77.13 26.33a.67.67 0 0 1-.47-.2L75 24.4a.66.66 0 0 1 0-.88l3.25-3.83a.65.65 0 0 1 .91-.08l1.75 1.44a.66.66 0 0 1 .08.92.65.65 0 0 1-.91.09l-1.25-1-2.45 2.89 1.28 1.31a.65.65 0 0 1 0 .92.61.61 0 0 1-.53.15ZM70.9 32a.65.65 0 0 1-.53-.27l-1.39-2a.65.65 0 0 1 .12-.87l3.84-3.23a.65.65 0 0 1 .91.07l1.48 1.72a.65.65 0 0 1-1 .84L73.29 27l-2.9 2.44 1 1.51a.66.66 0 0 1-.17.91.62.62 0 0 1-.32.14Z" transform="translate(0 .75)"/><path d="M63.39 36a.64.64 0 0 1-.6-.4l-.91-2.26a.65.65 0 0 1 .31-.82l4.47-2.29a.65.65 0 0 1 .87.27l1.06 2a.65.65 0 0 1-1.15.61l-.76-1.44-3.37 1.73.68 1.7a.64.64 0 0 1-.36.85.67.67 0 0 1-.24.05ZM60.39 36.47a.66.66 0 0 1-.65-.59l-.06-.69a.66.66 0 0 1 .59-.71.65.65 0 0 1 .7.59l.07.69a.65.65 0 0 1-.59.71ZM44.23 33.94a.72.72 0 0 1-.32-.08.67.67 0 0 1-.25-.89l.8-1.42-3.28-1.89-1.06 1.5a.65.65 0 0 1-.91.16.66.66 0 0 1-.16-.91l1.41-2a.63.63 0 0 1 .85-.19l4.36 2.51a.66.66 0 0 1 .24.88l-1.11 2a.65.65 0 0 1-.57.33ZM37.43 29.3a.67.67 0 0 1-.44-.17.66.66 0 0 1-.05-.92L38 27l-2.8-2.56-1.36 1.24a.65.65 0 1 1-.87-1l1.8-1.63a.66.66 0 0 1 .87 0l3.71 3.4a.65.65 0 0 1 0 .91l-1.51 1.69a.66.66 0 0 1-.41.25ZM31.57 23.49a.65.65 0 0 1-.43-1.15l1.24-1.05L30 18.38l-1.51 1a.65.65 0 0 1-.74-1.07l2-1.38a.65.65 0 0 1 .87.12L33.79 21a.65.65 0 0 1-.08.91L32 23.33a.67.67 0 0 1-.43.16ZM26.83 17.2a.68.68 0 0 1-.53-.27.65.65 0 0 1 .14-.91l1.31-1L25.54 12l-1.21.71a.65.65 0 0 1-.66-1.12l1.73-1a.66.66 0 0 1 .86.18l2.92 4.09a.64.64 0 0 1-.14.9l-1.83 1.34a.7.7 0 0 1-.38.1ZM22.74 11a.65.65 0 0 1-.37-1.19l1.33-.91-.45-.66a.66.66 0 0 1 .18-.91.65.65 0 0 1 .9.18l.81 1.19a.65.65 0 0 1-.17.9l-1.86 1.29a.65.65 0 0 1-.37.11ZM63.81 5.14h-.1l-2.14-.34a.66.66 0 0 1-.57-.7l.3-4.2a.66.66 0 0 1 .7-.61.65.65 0 0 1 .6.7l-.24 3.61 1.55.24a.65.65 0 0 1-.1 1.3ZM62.69 13.11h-.18l-2.34-.66a.65.65 0 0 1-.46-.74l.91-4.94a.65.65 0 0 1 .75-.52l2.23.38a.65.65 0 1 1-.22 1.28l-1.6-.27-.68 3.72 1.76.5a.65.65 0 0 1-.17 1.28ZM60.44 20.9a.56.56 0 0 1-.25 0L58 19.91a.66.66 0 0 1-.37-.8l1.51-4.79a.64.64 0 0 1 .81-.42l2.17.65a.65.65 0 0 1-.38 1.25l-1.55-.47L59 18.94l1.69.71a.65.65 0 0 1-.25 1.25ZM56.76 28.39a.72.72 0 0 1-.37-.11l-2-1.36a.66.66 0 0 1-.21-.86l2.42-4.4a.66.66 0 0 1 .88-.26l2 1.07a.65.65 0 0 1-.61 1.15l-1.44-.77-1.83 3.32 1.52 1a.65.65 0 0 1-.36 1.19ZM50.91 34.17a.67.67 0 0 1-.46-.18l-.84-.82a.66.66 0 0 1 0-.88l3.15-3.91a.66.66 0 0 1 .91-.1l1.78 1.41a.65.65 0 1 1-.8 1l-1.28-1-2.38 2.95.42.41a.65.65 0 0 1 0 .92.62.62 0 0 1-.5.2Z" transform="translate(0 .75)"/><path d="M51.93 36.77a.63.63 0 0 1-.19 0 .65.65 0 0 1-.42-.82l.41-1.29-3.6-1.2-.66 1.54a.66.66 0 0 1-.86.34.65.65 0 0 1-.33-.86l.9-2.06A.66.66 0 0 1 48 32l4.77 1.59a.64.64 0 0 1 .41.81l-.61 1.91a.65.65 0 0 1-.64.46ZM55 37.21a.65.65 0 0 1-.61-.69l.14-2.43a.65.65 0 0 1 .63-.61l5-.17a.66.66 0 0 1 .67.61l.11 2.27a.66.66 0 0 1-.62.68.64.64 0 0 1-.68-.62l-.08-1.62-3.79.13-.1 1.83a.66.66 0 0 1-.67.62ZM36.65 42.2a.65.65 0 0 1-.65-.6l-.2-2.42a.65.65 0 0 1 .54-.69l3-.53a.65.65 0 0 1 .22 1.28l-2.4.42.15 1.84a.66.66 0 0 1-.6.7ZM41.82 41.14a.65.65 0 0 1-.64-.53l-.18-.84a.65.65 0 1 1 1.28-.24l.16.84a.65.65 0 0 1-.52.75ZM28.59 42.58a.64.64 0 0 1-.63-.66v-2.2a.64.64 0 0 1 .61-.63l5-.31a.67.67 0 0 1 .69.61l.16 2.26a.64.64 0 0 1-.6.69.66.66 0 0 1-.7-.6L33 40.12l-3.78.23v1.59a.65.65 0 0 1-.63.64ZM20.57 43.27a.65.65 0 0 1-.63-.67l.06-2.43a.65.65 0 0 1 .61-.63l5-.3a.67.67 0 0 1 .69.6l.16 2.26a.65.65 0 1 1-1.29.1l-.12-1.62-3.78.22-.06 1.84a.65.65 0 0 1-.64.63ZM13 44.94a.66.66 0 0 1-.64-.58l-.27-2.42a.65.65 0 0 1 .51-.71l4.92-1a.65.65 0 0 1 .76.5l.49 2.21a.64.64 0 0 1-.49.77.65.65 0 0 1-.78-.49l-.35-1.59-3.71.78.21 1.82a.64.64 0 0 1-.57.72ZM6.32 48.45a.66.66 0 0 1-.61-.4L4.8 45.8a.66.66 0 0 1 .3-.8l4.46-2.31a.64.64 0 0 1 .87.27l1.07 2a.65.65 0 1 1-1.15.61l-.77-1.43-3.36 1.71.7 1.71a.65.65 0 0 1-.36.84.52.52 0 0 1-.24.05Z" transform="translate(0 .75)"/><path d="M6.32 48.45a.66.66 0 0 1-.61-.4L4.8 45.8a.66.66 0 0 1 .3-.8l4.46-2.31a.64.64 0 0 1 .87.27l1.07 2a.65.65 0 1 1-1.15.61l-.77-1.43-3.36 1.71.7 1.71a.65.65 0 0 1-.36.84.52.52 0 0 1-.24.05Z" transform="translate(0 .75)"/><path d="M6.32 48.45a.66.66 0 0 1-.61-.4L4.8 45.8a.66.66 0 0 1 .3-.8l4.46-2.31a.64.64 0 0 1 .87.27l1.07 2a.65.65 0 1 1-1.15.61l-.77-1.43-3.36 1.71.7 1.71a.65.65 0 0 1-.36.84.52.52 0 0 1-.24.05ZM87 12.65a.68.68 0 0 1-.38-.12l-2-1.39a.67.67 0 0 1-.19-.86L87 5.92a.64.64 0 0 1 .88-.24l2 1.1a.66.66 0 0 1 .25.89.65.65 0 0 1-.88.25l-1.42-.79-1.88 3.29 1.5 1.05a.66.66 0 0 1 .16.91.65.65 0 0 1-.61.27Z" transform="translate(0 .75)"/><path class="cls-2" d="m6.27 41.33 15.28-4.67-4.29-14-9.14 2.74c-.67.13-1.95.71-2.55 3.15-.84 3.4 1.85 2.47-.31 12 0 0-.31.54.47.73v.21l.48-.15h.1Z" transform="translate(0 .75)"/><path d="M5.68 42.16a.64.64 0 0 1-.62-.46.66.66 0 0 1 .43-.82l15.25-4.65-3.91-12.81L8.31 26a.64.64 0 0 1-.81-.43.65.65 0 0 1 .43-.82L17.07 22a.66.66 0 0 1 .82.44l4.28 14.06a.64.64 0 0 1-.43.81L5.87 42.13a.63.63 0 0 1-.19.03Z" transform="translate(0 .75)"/><circle class="cls-2" cx="13.34" cy="40.48" r="3.72"/><circle class="cls-2" cx="13.34" cy="40.41" r="1"/><path d="M13.34 44.1a4.37 4.37 0 1 1 4.37-4.37 4.37 4.37 0 0 1-4.37 4.37Zm0-7.44a3.07 3.07 0 1 0 3.07 3.07 3.07 3.07 0 0 0-3.07-3.07Z" transform="translate(0 .75)"/><path d="M13.34 41.31A1.65 1.65 0 1 1 15 39.66a1.65 1.65 0 0 1-1.66 1.65Zm0-2a.35.35 0 0 0 0 .7.35.35 0 0 0 0-.7Z" transform="translate(0 .75)"/><path class="cls-4" d="m142.36 88.29-7.78-2.08-6.93-3.28-1.41-.9 1.9-1.17 10.2-1.42 10.31-.57 4.44-.2.18-19.43s-16.15-.69-28.51 1.52-18.15 6.48-18.83 12c0 0-1.36 9.86 1.29 15.84l.4.76c3.93 8.15 15.57 19.43 45.56 22.54l-.09-9.16h.09V90.35l-5.36-.6Z" transform="translate(0 .75)"/><path d="M153.18 103.37h-.07c-25.8-2.67-37.64-11.31-43-18.09-4.07-5.12-5.14-10-4.81-12.62.77-6.15 7.29-10.37 19.37-12.53 12.28-2.2 28.49-1.54 28.65-1.53a.65.65 0 0 1 .62.68.64.64 0 0 1-.68.62c-.16 0-16.22-.66-28.36 1.51-11.46 2.05-17.62 5.89-18.31 11.41-.24 1.91.45 6.51 4.53 11.65 5.23 6.59 16.79 15 42.14 17.61a.65.65 0 0 1 .58.71.64.64 0 0 1-.66.58Z" transform="translate(0 .75)"/><path class="cls-5" d="M153.27 90.53c-20.26-2.6-33.08-9.76-32.06-16.45 1-6.26 32.06-6 32.06-6" transform="translate(0 .75)"/><path d="M153.18 112.52h-.07C121 109.19 110.47 96.74 107 89.61l-.39-.74c-2.71-6.12-1.42-15.82-1.37-16.23a.65.65 0 0 1 .74-.55.65.65 0 0 1 .55.73c0 .1-1.29 9.74 1.25 15.49l.38.72c3.33 6.9 13.58 18.93 45 22.19a.65.65 0 0 1 .58.71.64.64 0 0 1-.56.59ZM125.73 82.22a.64.64 0 0 1-.61-.45.65.65 0 0 1 .41-.82c8.85-2.85 27-2.76 27.74-2.76a.66.66 0 0 1 .65.66.63.63 0 0 1-.66.64c-.18 0-18.68-.09-27.33 2.7a.64.64 0 0 1-.2.03Z" transform="translate(0 .75)"/><path class="cls-4" d="m142.36 60.8-7.78-2.09-6.93-3.28-1.41-.9 1.9-1.17 10.2-1.42 10.31-.57 4.44-.2.18-19.43s-16.15-.69-28.51 1.52-18.15 6.48-18.83 12c0 0-1.36 9.86 1.29 15.84l.4.76c3.93 8.15 15.57 19.43 45.56 22.54l-.09-9.16h.09V62.85l-5.36-.6Z" transform="translate(0 .75)"/><path d="M153.18 75.87h-.07c-25.8-2.67-37.64-11.31-43-18.09-4.07-5.12-5.14-10-4.81-12.62.77-6.15 7.29-10.37 19.37-12.53 12.28-2.2 28.49-1.53 28.65-1.53a.65.65 0 0 1-.06 1.3c-.16 0-16.22-.66-28.36 1.51-11.46 2.05-17.62 5.89-18.31 11.41-.24 1.91.45 6.52 4.53 11.66 5.23 6.58 16.79 15 42.14 17.6a.65.65 0 0 1 .58.71.64.64 0 0 1-.66.58Z" transform="translate(0 .75)"/><path class="cls-5" d="M153.27 63c-20.26-2.6-33.08-9.76-32.06-16.45 1-6.26 32.06-6 32.06-6" transform="translate(0 .75)"/><path d="M153.18 85h-.07C121 81.69 110.47 69.24 107 62.11l-.39-.74c-2.71-6.12-1.42-15.82-1.37-16.23a.65.65 0 0 1 .74-.55.65.65 0 0 1 .55.73c0 .1-1.29 9.75 1.25 15.49l.38.72c3.33 6.9 13.58 18.93 45 22.19a.65.65 0 0 1 .58.71.64.64 0 0 1-.56.57ZM125.73 54.72a.64.64 0 0 1-.61-.45.65.65 0 0 1 .41-.82c8.85-2.85 27-2.77 27.74-2.76a.66.66 0 0 1 .65.66.62.62 0 0 1-.66.64c-.18 0-18.68-.09-27.33 2.7a.64.64 0 0 1-.2.03Z" transform="translate(0 .75)"/><path class="cls-4" d="M142.36 33.07 134.58 31l-6.93-3.28-1.41-.9 1.9-1.17 10.2-1.42 10.31-.57 4.44-.2.18-19.46s-16.15-.69-28.51 1.52-18.15 6.48-18.83 12c0 0-1.36 9.86 1.29 15.84l.4.76c3.93 8.14 15.57 19.43 45.56 22.53l-.09-9.15h.09V35.11l-5.36-.6Z" transform="translate(0 .75)"/><path d="M153.18 48.15h-.07c-25.8-2.67-37.64-11.31-43-18.09-4.07-5.12-5.14-10-4.81-12.62.77-6.15 7.29-10.37 19.37-12.53 12.28-2.2 28.49-1.54 28.65-1.53a.65.65 0 0 1-.06 1.3c-.16 0-16.23-.66-28.36 1.51-11.46 2.05-17.62 5.89-18.31 11.41-.24 1.91.45 6.51 4.53 11.65 5.23 6.58 16.79 15 42.14 17.61a.65.65 0 0 1 .58.71.64.64 0 0 1-.66.58Z" transform="translate(0 .75)"/><path class="cls-5" d="M153.27 35.31c-20.27-2.61-33.08-9.76-32.06-16.45 1-6.26 32.06-6 32.06-6" transform="translate(0 .75)"/><path d="M153.18 57.29h-.07C121 54 110.47 41.52 107 34.39l-.39-.74c-2.71-6.12-1.42-15.82-1.37-16.23a.65.65 0 0 1 .74-.55.65.65 0 0 1 .55.73c0 .1-1.29 9.74 1.25 15.48l.38.73c3.33 6.9 13.58 18.93 45 22.19a.64.64 0 0 1 .58.71.63.63 0 0 1-.56.58ZM125.73 27a.65.65 0 0 1-.2-1.27c8.85-2.86 27-2.76 27.74-2.76a.66.66 0 0 1 .65.66.61.61 0 0 1-.66.64c-.18 0-18.68-.09-27.33 2.7a.64.64 0 0 1-.2.03Z" transform="translate(0 .75)"/><path class="cls-4" d="M152.81 115.6s-16.08 20.9-43.15 18.4l.28-19.06c8.34-.36 16.23-2.67 21.74-8 16.17-15.6 21.6-16.76 21.6-16.76" transform="translate(0 .75)"/><path d="M114.16 134.82c-1.49 0-3-.07-4.56-.22a.65.65 0 0 1-.59-.66l.28-19.06a.64.64 0 0 1 .62-.64c9.06-.4 16.43-3.09 21.31-7.8 16.13-15.55 21.7-16.87 21.92-16.92a.65.65 0 1 1 .27 1.27s-5.58 1.44-21.28 16.59c-5 4.82-12.44 7.62-21.55 8.12l-.26 17.86c26 2.12 41.81-18 42-18.16a.65.65 0 0 1 .91-.12.64.64 0 0 1 .12.91c-.18.2-14.81 18.83-39.19 18.83Z" transform="translate(0 .75)"/><path d="M112.84 124.4a22.63 22.63 0 0 1-2.91-.16.65.65 0 0 1-.57-.72.66.66 0 0 1 .73-.57c2.26.29 14.22 1.19 27.8-9a86.1 86.1 0 0 0 14.88-13.5.65.65 0 0 1 1 .83A87.22 87.22 0 0 1 138.66 115c-10.9 8.19-20.86 9.4-25.82 9.4Z" transform="translate(0 .75)"/></g><g id="Слой_3" data-name="Слой 3"><g id="тревога"><g id="спокойствие"><path d="M58.83 174s-4.79 6.9-5.21 18.6A127.88 127.88 0 0 0 54 208h53.43a90 90 0 0 0-.22-16.51c-1.31-11.64-5.48-17.45-5.48-17.45l-11.72-7.8-27.3-5.53Z" transform="translate(0 .75)" style="fill:#666"/><path class="cls-7" d="m127.21 105.48-16.46 11.73.39 1.82a11.41 11.41 0 0 1-2.27-.36l-2.53-.66a17.92 17.92 0 0 1-3.2-1.28 42.39 42.39 0 0 0-4.54-2.17 7.91 7.91 0 0 0-5-5.87c-3.25-1.35-3.44.32-3.44.32s1.78 2 .71 3.54a31.68 31.68 0 0 1-7 6.4c-2.52 1.51-2.77 2.36-2.77 2.36l-.83.55-2-2-1.38-1.19-4.89-4.4-1.69-3 .6-2.31c-1.09-.44-6.75-1-7.78 5.5 0 .1-.39 0-.39 0a42.94 42.94 0 0 0-4.66 2.22 17.63 17.63 0 0 1-3.2 1.28l-2.9.61-1.87.31.36-1.72L34 105.48c-4.59 11.35-7.76 24.33-1.73 31.47 6.29 7.46 23.68 1.33 23.68 1.33l2.25-.79c-2.95 7.89-7.11 20.91-5.56 28.34 2.48 11.94 15.58 7.35 15.58 7.35l4.5.3 6.73-.08 8.2.07H89v-.08c1.27-.14 2.49-.4 2.49-.4l.85.18s11 3.77 15.73-6.2c3.54-7.46.18-20.2-2.83-28.69 0 0 17.39 6.13 23.69-1.33 6.07-7.14 2.86-20.12-1.72-31.47Z" transform="translate(0 .75)"/><path class="cls-8" d="M116.13 57.16c-6.75-.63-9.07 3.16-9.07 3.16a1.46 1.46 0 0 1-.07.19l-.36-.37 1-2.2L99 49.79l-13.44-6.28L66.4 48.8 56.7 58l-13.7.78s-10.18 2.91-8.35 15.86 11.92 15.17 19.25 13a24.14 24.14 0 0 0 18.22 14.88l-.18.19s.43 6-1.27 7.17v2.31l2.25 3 4.62 4 3 2.92 2.34-2.5c2.47-1.25 6.33-5.37 6.33-5.37 3.06-2.51 1.46-4.23 1.46-4.23s-1.76-.47-.82-7.86l-.18-.34c4.53-1.17 9.39-3.35 12.41-7.43a29 29 0 0 0 4.61-8.67v.06l.28.88c3.34 2 8.58 1.8 12.8-.52s7.17-7.49 7.38-14.24-4.27-14.09-11.02-14.73Z" transform="translate(0 .75)"/><path class="cls-2" d="M70.21 73.82a7.33 7.33 0 0 1-4.43-3.54 6.6 6.6 0 0 1 .34-7.06l7.52-.45s4.1 2.4 1.91 7.78l-2.91 1.07-1.45 1.45M91.93 65.59a5.63 5.63 0 0 1-6.1 9.46 5.93 5.93 0 0 1-2.46-6.5 4.66 4.66 0 0 1 3.06-3.81" transform="translate(0 .75)"/><path d="M88.76 76.55a6 6 0 0 1-3.28-1 6.54 6.54 0 0 1-2.76-7.13 5.31 5.31 0 0 1 3.54-4.35.65.65 0 0 1 .33 1.25c-1.68.45-2.43 2.35-2.58 3.29a5.29 5.29 0 0 0 2.17 5.85 4.93 4.93 0 0 0 4.73.27 4.65 4.65 0 0 0 2.75-3.58 5 5 0 0 0-2.06-5 .65.65 0 0 1-.23-.89.66.66 0 0 1 .89-.22A6.24 6.24 0 0 1 95 71.38 6 6 0 0 1 91.45 76a6.56 6.56 0 0 1-2.69.55Z" transform="translate(0 .75)"/><path d="M42.23 33.08a14.84 14.84 0 0 1 11.69-3.8c7.5.66 9.08 2 15.92-1.05s14.6-2.63 19.08-.23 7.24 5.16 10.79 5.53c5.67.58 14 6.84 16.19 13.94a30.12 30.12 0 0 1 1.2 5.49 14.77 14.77 0 0 0 1.14 4.44l-1.51-.22-5.58.08-4.5 3.36c-4.61-.78-6.48-6.48-8-8.05s-2.65-.78-8.25-1.08-11.29-5-11.29-5l-4.42 4-3.89 1.76-3.93.7-4.24-.2c-1.73 3.52-6 9.17-15.05 8.11a8.29 8.29 0 0 1-6.53-8.81s.62-4.29-.28-6.16c-.72-1.48-3.18-8.65 1.46-12.81Z" transform="translate(0 .75)" style="fill:#282828"/><path d="M65.56 53.67a23.71 23.71 0 0 1-3.05-.21.65.65 0 0 1 .18-1.29C76.38 54 80.19 42.49 80.35 42a.65.65 0 0 1 1.24.39c-.04.11-3.69 11.28-16.03 11.28Z" transform="translate(0 .75)"/><path d="M49.74 61.64a19.65 19.65 0 0 1-2.24-.14 9 9 0 0 1-7.1-9.5c.17-1.21.45-4.47-.21-5.85-1.14-2.36-3.07-9.4 1.6-13.58a15.37 15.37 0 0 1 12.18-4c1.67.14 3.05.32 4.26.48 4.24.55 6.18.8 11.34-1.48 7.53-3.33 15.47-2.46 19.65-.25 1.56.83 2.93 1.72 4.15 2.5 2.36 1.53 4.23 2.73 6.41 3 5.83.61 14.41 7 16.74 14.4a30.73 30.73 0 0 1 1.23 5.62 13.86 13.86 0 0 0 1.08 4.22.65.65 0 0 1-1.18.56 15.41 15.41 0 0 1-1.2-4.66 29.35 29.35 0 0 0-1.17-5.34c-2.18-6.92-10.19-12.94-15.64-13.51-2.49-.26-4.57-1.6-7-3.16-1.25-.81-2.54-1.64-4-2.44-3.91-2.07-11.38-2.87-18.51.29-5.5 2.43-7.82 2.13-12 1.58-1.2-.16-2.56-.33-4.2-.48a14.26 14.26 0 0 0-11.16 3.6c-4.09 3.67-2.29 10.11-1.34 12.08s.4 6.08.33 6.54a7.58 7.58 0 0 0 6 8.07C60 61.65 62.91 50.4 63 49.92a.65.65 0 0 1 1.27.32c0 .12-2.93 11.4-14.53 11.4Z" transform="translate(0 .75)"/><path d="M106.65 61.24h-.11c-3.68-.62-5.74-4.1-7.1-6.4A12.42 12.42 0 0 0 98.23 53c-.77-.82-1.33-.84-3.54-.81-1.08 0-2.43 0-4.27-.07-5.75-.3-11.43-5-11.67-5.15a.65.65 0 0 1-.09-.92.67.67 0 0 1 .92-.09s5.6 4.58 10.91 4.86c1.8.1 3.12.08 4.18.07 2.21 0 3.32-.05 4.5 1.22a12.88 12.88 0 0 1 1.39 2.07c1.31 2.22 3.11 5.26 6.2 5.78a.65.65 0 0 1 .53.75.64.64 0 0 1-.64.53Z" transform="translate(0 .75)"/><path d="M79.22 103.79h-1.06c-13.85 0-21.92-8.19-24.85-15.89-1.79-4.72-.93-9.31-.17-13.36a31.33 31.33 0 0 0 .71-5.41 23.1 23.1 0 0 0-1.11-7.73.66.66 0 0 1 .37-.85.65.65 0 0 1 .84.37 23.73 23.73 0 0 1 1.2 8.21 32.32 32.32 0 0 1-.73 5.65c-.73 3.88-1.56 8.28.11 12.66 2.79 7.33 10.53 15.1 23.88 15 .19 0 16.53.51 23.2-8.5s5.94-14.86 4.3-22.31a13.06 13.06 0 0 1-.27-2c-.15-2.47-.24-7 .82-9.64a.47.47 0 0 1 .05-.1c.1-.17 2.62-4.13 9.68-3.46 7.24.68 11.87 8.47 11.66 15.32s-3.1 12.25-7.72 14.79c-4.32 2.38-9.72 2.62-13.24.63a31.56 31.56 0 0 1-4.24 7.5c-6.26 8.55-19.89 9.12-23.43 9.12ZM107.33 86c3.14 1.9 8.13 1.68 12.15-.53 4.22-2.32 6.85-7.44 7-13.69s-4-13.38-10.48-14c-5.93-.55-8.15 2.4-8.43 2.81-1 2.49-.82 7.13-.7 9a10.52 10.52 0 0 0 .24 1.75c1.16 5 1.89 9.51.22 14.66Z" transform="translate(0 .75)"/><path d="M107.65 75a.65.65 0 0 1-.1-1.29c5.7-.87 6.84-6.94 6.88-7.2a.65.65 0 0 1 1.28.23c0 .07-1.33 7.24-8 8.25Z" transform="translate(0 .75)"/><path d="M116.65 79.33a.65.65 0 0 1-.61-.44c-.06-.16-1.51-4.13-5.65-4.41a.65.65 0 1 1 .09-1.3c5 .34 6.72 5.08 6.79 5.28a.65.65 0 0 1-.4.83.57.57 0 0 1-.22.04ZM49 89a14.89 14.89 0 0 1-8.11-2.28c-3.69-2.38-6-6.54-6.83-12-1.9-13.35 8.71-16.54 8.81-16.57a.65.65 0 1 1 .36 1.25c-.39.11-9.62 2.93-7.88 15.14.73 5.18 2.84 8.92 6.25 11.12A15 15 0 0 0 53.74 87a.65.65 0 1 1 .36 1.25A18.41 18.41 0 0 1 49 89Z" transform="translate(0 .75)"/><path d="M53.67 75.75h-.09c-6.2-.9-7.91-8.68-8-9a.65.65 0 0 1 1.28-.27c0 .07 1.59 7.23 6.88 8a.66.66 0 0 1 .55.74.65.65 0 0 1-.62.53Z" transform="translate(0 .75)"/><path d="M44.86 80.88h-.08a.64.64 0 0 1-.56-.72 8.85 8.85 0 0 1 5.64-7 .64.64 0 0 1 .82.4.65.65 0 0 1-.4.83 7.65 7.65 0 0 0-4.77 5.9.66.66 0 0 1-.65.59ZM91.4 65.9a13.59 13.59 0 0 1-7.61-2.11c-5.06-3.3-6-9.24-6.05-9.49a.65.65 0 0 1 1.26-.2c0 .06.91 5.64 5.48 8.61 3.23 2.1 7.52 2.45 12.74 1a.65.65 0 1 1 .37 1.29 23.74 23.74 0 0 1-6.19.9Z" transform="translate(0 .75)"/><path d="M69.21 63.47a23 23 0 0 1-7.49-1.36.66.66 0 0 1-.37-.85.65.65 0 0 1 .85-.36 21.72 21.72 0 0 0 6.6 1.29c4.63.12 7.92-1.62 9.79-5.16a.65.65 0 0 1 .88-.27.64.64 0 0 1 .27.87c-2.45 4.64-6.74 5.84-10.53 5.84ZM55 84.46l-4-.09a.66.66 0 0 1-.64-.66.69.69 0 0 1 .66-.64l4 .09a.65.65 0 0 1 0 1.3ZM62.24 77.28a.61.61 0 0 1-.42-.16l-3-2.51a.65.65 0 1 1 .84-1l3 2.51a.65.65 0 0 1-.42 1.15ZM96.81 81.5a.65.65 0 0 1-.23-1.26l3.15-1.17a.65.65 0 0 1 .45 1.22L97 81.46a.93.93 0 0 1-.19.04ZM106.24 91.82a.66.66 0 0 1-.43-.16l-2.6-2.24a.66.66 0 0 1-.07-.92.65.65 0 0 1 .92-.06l2.6 2.24a.66.66 0 0 1 .07.92.64.64 0 0 1-.49.22ZM92.59 97.3a.66.66 0 0 1-.57-1l1.52-2.87a.66.66 0 0 1 .88-.27.65.65 0 0 1 .27.88L93.16 97a.64.64 0 0 1-.57.3ZM75.42 105.42a.72.72 0 0 1-.32-.08.65.65 0 0 1-.25-.89l2.27-4a.66.66 0 0 1 .89-.25.65.65 0 0 1 .24.89l-2.27 4a.65.65 0 0 1-.56.33ZM65.3 95.68a.66.66 0 0 1-.59-.36.64.64 0 0 1 .3-.87l2.51-1.26a.65.65 0 0 1 .58 1.17l-2.51 1.25a.65.65 0 0 1-.29.07Z" transform="translate(0 .75)"/><path d="M75.55 71.2a.52.52 0 0 1-.24 0 .63.63 0 0 1-.36-.84c1.94-4.78-1.49-6.9-1.64-7a.65.65 0 0 1-.23-.89.64.64 0 0 1 .89-.23s4.56 2.76 2.18 8.56a.64.64 0 0 1-.6.4ZM70.22 74.47a.57.57 0 0 1-.18 0 8 8 0 0 1-4.82-3.84 7.2 7.2 0 0 1 .39-7.78.65.65 0 0 1 1 .8 5.92 5.92 0 0 0-.26 6.35 6.7 6.7 0 0 0 4 3.22.65.65 0 0 1-.17 1.28ZM88.76 76.55a6 6 0 0 1-3.28-1 6.54 6.54 0 0 1-2.76-7.13 5.31 5.31 0 0 1 3.54-4.35.65.65 0 0 1 .33 1.25c-1.68.45-2.43 2.35-2.58 3.29a5.29 5.29 0 0 0 2.17 5.85 4.93 4.93 0 0 0 4.73.27 4.65 4.65 0 0 0 2.75-3.58 5 5 0 0 0-2.06-5 .65.65 0 0 1-.23-.89.66.66 0 0 1 .89-.22A6.24 6.24 0 0 1 95 71.38 6 6 0 0 1 91.45 76a6.56 6.56 0 0 1-2.69.55Z" transform="translate(0 .75)"/><circle cx="68.79" cy="67.2" r="3.11"/><circle cx="87.04" cy="69.29" r="3.11"/><path d="M85.3 174a.65.65 0 0 1-.65-.65v-44.83a1.63 1.63 0 0 0-1.65-1.63h-2.22a.66.66 0 0 1-.56-.33 5.33 5.33 0 0 1-.36-4.12 5.66 5.66 0 0 1 2.78-3.44c2.33-1.18 6.11-5.2 6.15-5.24a4 4 0 0 0 1.69-2.42 1.32 1.32 0 0 0-.19-.85c-.68-.4-1.86-2-1-8.45a.65.65 0 1 1 1.29.17c-.8 6.29.42 7.16.43 7.17a.34.34 0 0 1 .22.15 2.55 2.55 0 0 1 .59 1.87 5 5 0 0 1-2.1 3.31c-.1.11-3.92 4.16-6.46 5.45a4.35 4.35 0 0 0-2.11 2.63 4.18 4.18 0 0 0 .08 2.78H83a2.93 2.93 0 0 1 3 2.95v44.87a.65.65 0 0 1-.7.61ZM70.7 110.55a.65.65 0 0 1-.37-1.19c1-.65 1.15-4.24 1-6.58a.65.65 0 0 1 .6-.7.66.66 0 0 1 .69.6c.08 1.07.35 6.45-1.55 7.76a.69.69 0 0 1-.37.11Z" transform="translate(0 .75)"/><path d="M89.61 133a.58.58 0 0 1-.26-.06.61.61 0 0 1-.38-.52c0-.09-.87-8.42-4.2-10.87a3 3 0 0 0-2.55-.56.65.65 0 0 1-.22-1.29 4.39 4.39 0 0 1 3.59.79c3 2.22 4.2 8.13 4.57 10.64 5.39-4.46 7.19-11.76 7.73-14.81a4.85 4.85 0 0 0 0-1.7 4.73 4.73 0 0 0-.55-1.54c-3.05-5.37-6.7-3.91-6.85-3.85a.65.65 0 0 1-.52-1.19s4.85-2 8.5 4.4a6 6 0 0 1 .7 2 6 6 0 0 1 0 2.15c-.59 3.36-2.67 11.68-9.13 16.32a.64.64 0 0 1-.43.09ZM70.87 132.65a.62.62 0 0 1-.51-.25c-.37-.45-8.93-11.29-7.86-18a7.1 7.1 0 0 1 3.34-5.43 6.94 6.94 0 0 1 5.32-.57.65.65 0 0 1-.48 1.21 5.66 5.66 0 0 0-4.2.49 5.87 5.87 0 0 0-2.7 4.51c-.85 5.34 5.41 14.11 7.15 16.44a13.35 13.35 0 0 0 1.74-4.79c.08-.63.87-6.49 4.29-6.8a3.6 3.6 0 0 1 4.13 2.88.65.65 0 0 1-1.29.22 2.28 2.28 0 0 0-2.73-1.8c-2 .18-2.93 4.17-3.11 5.69-.09.51-.86 4.73-2.71 6.1a.6.6 0 0 1-.38.1Z" transform="translate(0 .75)"/><path d="M79.11 121.19a.63.63 0 0 1-.44-.17s-2.23-2-5.66-4.85c-3.7-3.06-3.51-6.29-3.5-6.42a.65.65 0 0 1 1.3.09c0 .12-.12 2.73 3 5.33 3.45 2.86 5.68 4.87 5.7 4.89a.65.65 0 0 1-.43 1.13ZM72.69 174.12c-.79 0-9.88-.19-11.57-8.41a.64.64 0 0 1 .5-.77.66.66 0 0 1 .77.51c1.54 7.49 10 7.38 10.34 7.37H89c8.39-.89 9.15-7.95 9.16-8a.63.63 0 0 1 .7-.58.65.65 0 0 1 .59.7c0 .08-.88 8.19-10.38 9.19H72.69Z" transform="translate(0 .75)"/><path d="M62.78 174.69a11.88 11.88 0 0 1-5.86-1.39c-2.53-1.43-4.17-3.9-4.89-7.35-2.33-11.23 7.84-34.39 8.28-35.37a.64.64 0 0 1 .85-.33.66.66 0 0 1 .34.86c-.11.23-10.45 23.75-8.19 34.58.63 3.06 2.06 5.24 4.24 6.47 4.37 2.48 10.42.41 10.48.39a.65.65 0 1 1 .43 1.23 18.7 18.7 0 0 1-5.68.91ZM77.82 138.63a4 4 0 1 1 4-4 4 4 0 0 1-4 4Zm0-6.67a2.69 2.69 0 1 0 2.69 2.69 2.69 2.69 0 0 0-2.69-2.65ZM77.82 153.39a4 4 0 1 1 4-4 4 4 0 0 1-4 4Zm0-6.68a2.69 2.69 0 1 0 2.69 2.69 2.69 2.69 0 0 0-2.69-2.69ZM77.82 168a4 4 0 1 1 4-4 4 4 0 0 1-4 4Zm0-6.67a2.69 2.69 0 1 0 2.69 2.69 2.69 2.69 0 0 0-2.69-2.66ZM79.81 113.94a.64.64 0 0 1-.35-.1 6.31 6.31 0 0 1-2.71-5 10.54 10.54 0 0 1 1.56-5.42.65.65 0 0 1 .9-.18.66.66 0 0 1 .18.9 9.44 9.44 0 0 0-1.34 4.7 5 5 0 0 0 2.12 3.91.65.65 0 0 1 .18.9.64.64 0 0 1-.54.29ZM79.61 208.9a.66.66 0 0 1-.65-.57 41.51 41.51 0 0 1 .09-11 .64.64 0 0 1 .44-.51 16.15 16.15 0 0 0 8.51-7 .64.64 0 0 1 .87-.27.66.66 0 0 1 .28.88 17.29 17.29 0 0 1-8.87 7.51 41.11 41.11 0 0 0 0 10.24.64.64 0 0 1-.56.73Z" transform="translate(0 .75)"/><path d="M54 208.65a.64.64 0 0 1-.64-.62q-.06-1-.15-2.1a112.33 112.33 0 0 1-.21-13.31c.42-11.75 5.13-18.66 5.33-19a.64.64 0 0 1 .9-.17.66.66 0 0 1 .17.91c0 .07-4.69 6.91-5.1 18.26a110.09 110.09 0 0 0 .28 13.17c.06.77.11 1.47.14 2.12a.65.65 0 0 1-.61.69Z" transform="translate(0 .75)"/><path d="M54.17 188a.66.66 0 0 1-.65-.59.65.65 0 0 1 .59-.71 12.45 12.45 0 0 0 10.54-7.06.63.63 0 0 1 .84-.37.65.65 0 0 1 .37.84c-.11.28-2.82 7.09-11.63 7.89ZM95.4 77.62a.64.64 0 0 1-.57-.35s-1-1.86-2.41-2a.65.65 0 0 1-.56-.73.64.64 0 0 1 .72-.56c2.1.26 3.35 2.62 3.4 2.72a.66.66 0 0 1-.28.88.63.63 0 0 1-.3.04Z" transform="translate(0 .75)"/><path class="cls-2" d="M72.71 81.51a12.52 12.52 0 0 1-2.71-.69c-1.4-.54-5.74.22-5.7 4.48s2.94 4.56 5.7 4.43 6.16-1 9.34.58c2.87 1.42 8.66 3.33 10.8-1.31a5.76 5.76 0 0 0 .4-3.63A4.27 4.27 0 0 0 86.76 82c-3.56-.59-4.34 1.71-9.71.2" transform="translate(0 .75)"/><path d="M61.88 72.41a.65.65 0 0 1-.48-1.08c.06-.07 1.57-1.7 4.89-.79A.65.65 0 1 1 66 71.8c-2.5-.69-3.55.36-3.59.41a.67.67 0 0 1-.53.2ZM97.07 174.49a17 17 0 0 1-4.93-.71.64.64 0 0 1-.4-.82.65.65 0 0 1 .82-.41c.43.15 10.52 3.45 14.93-5.86 5.47-11.52-6.19-36.54-6.31-36.79a.65.65 0 0 1 .31-.86.64.64 0 0 1 .87.31c.49 1.05 12 25.82 6.31 37.9a12.1 12.1 0 0 1-11.6 7.24Z" transform="translate(0 .75)"/><path d="M107.47 208.65a.65.65 0 0 1-.61-.69l.05-.85a86.35 86.35 0 0 0-.27-15.55c-1.27-11.3-5.32-17.09-5.36-17.14a.65.65 0 0 1 1.06-.76c.17.24 4.28 6.09 5.59 17.75a88.18 88.18 0 0 1 .28 15.78v.84a.66.66 0 0 1-.74.62Z" transform="translate(0 .75)"/><path class="cls-2" d="M91.1 54.59a13.78 13.78 0 0 0-1.28 5.5S90 62 91.61 61.94s1.6-1.66 1.51-2.27a27.69 27.69 0 0 0-2.02-5.08Z" transform="translate(0 .75)"/><path d="M106.43 188h-.06a11.34 11.34 0 0 1-10.44-8.65.63.63 0 0 1 .52-.75.65.65 0 0 1 .76.51c.05.28 1.39 6.87 9.28 7.59a.65.65 0 0 1 .59.71.66.66 0 0 1-.65.59ZM85.33 92.58A15.28 15.28 0 0 1 79 90.89c-2.34-1.15-4.89-.89-7.14-.67-.65.07-1.29.13-1.89.16-1.74.08-3.7 0-5-1.23a5.14 5.14 0 0 1-1.38-3.85 4.89 4.89 0 0 1 2.12-4.3 5.47 5.47 0 0 1 4.5-.82 12.25 12.25 0 0 0 2.58.66.64.64 0 0 1 .56.72.64.64 0 0 1-.72.57 13.93 13.93 0 0 1-2.88-.74 4.27 4.27 0 0 0-3.3.68 3.62 3.62 0 0 0-1.52 3.19 3.87 3.87 0 0 0 1 2.92c.95.89 2.58.94 4 .87.58 0 1.19-.09 1.82-.15 2.43-.24 5.18-.52 7.84.8 1.41.69 5 2.2 7.57 1.26a4 4 0 0 0 2.36-2.26 5 5 0 0 0 .36-3.21 3.62 3.62 0 0 0-3.25-2.85 7.06 7.06 0 0 0-3.28.28 10.69 10.69 0 0 1-6.5-.1.65.65 0 0 1-.45-.8.66.66 0 0 1 .8-.45 9.53 9.53 0 0 0 5.82.09 8.17 8.17 0 0 1 3.82-.3 4.88 4.88 0 0 1 4.31 3.83 6.32 6.32 0 0 1-.44 4 5.3 5.3 0 0 1-3.11 2.95 6.59 6.59 0 0 1-2.27.44Z" transform="translate(0 .75)"/><path class="cls-2" d="M81.87 49a13.85 13.85 0 0 0-1.27 5.5s.2 1.9 1.79 1.86 1.6-1.67 1.51-2.27A28.14 28.14 0 0 0 81.87 49Z" transform="translate(0 .75)"/><path d="M91.56 62.59a2.53 2.53 0 0 1-2.38-2.43 14.38 14.38 0 0 1 1.33-5.86.64.64 0 0 1 .58-.36.64.64 0 0 1 .59.35 28 28 0 0 1 2.08 5.28 3.05 3.05 0 0 1-.52 2.3 2.05 2.05 0 0 1-1.61.72Zm-.41-6.38a11.72 11.72 0 0 0-.68 3.86c0 .08.15 1.28 1.13 1.22a.82.82 0 0 0 .65-.25 1.83 1.83 0 0 0 .23-1.27 18.22 18.22 0 0 0-1.33-3.56Z" transform="translate(0 .75)"/><path class="cls-2" d="M63.61 53.65a13.85 13.85 0 0 0-1.27 5.5s.2 1.9 1.79 1.86 1.6-1.67 1.51-2.27a28.14 28.14 0 0 0-2.03-5.09Z" transform="translate(0 .75)"/><path d="M82.34 57A2.54 2.54 0 0 1 80 54.57a14.73 14.73 0 0 1 1.33-5.85.65.65 0 0 1 1.17 0A27.59 27.59 0 0 1 84.54 54a3.09 3.09 0 0 1-.52 2.3 2.11 2.11 0 0 1-1.62.7Zm-.41-6.38a11.36 11.36 0 0 0-.68 3.85c0 .08.13 1.27 1.12 1.23a.77.77 0 0 0 .65-.26 1.71 1.71 0 0 0 .23-1.27 18 18 0 0 0-1.32-3.54ZM64.08 61.66a2.54 2.54 0 0 1-2.39-2.44A14.47 14.47 0 0 1 63 53.37a.64.64 0 0 1 1.16 0 27.59 27.59 0 0 1 2.09 5.28 3.09 3.09 0 0 1-.52 2.3 2.11 2.11 0 0 1-1.62.72Zm-.41-6.38a11.36 11.36 0 0 0-.67 3.85c0 .08.17 1.23 1.09 1.23a.77.77 0 0 0 .65-.26 1.71 1.71 0 0 0 .26-1.27 18 18 0 0 0-1.33-3.55Z" transform="translate(0 .75)"/><path class="cls-2" d="M97 80.13a13.85 13.85 0 0 0-1.27 5.5s.2 1.9 1.79 1.86 1.6-1.67 1.51-2.27A28.14 28.14 0 0 0 97 80.13ZM67.17 92.44a13.85 13.85 0 0 0-1.27 5.5s.2 1.89 1.79 1.85 1.6-1.66 1.51-2.27a28.28 28.28 0 0 0-2.03-5.08Z" transform="translate(0 .75)"/><path d="M97.5 88.14a2.55 2.55 0 0 1-2.39-2.44 14.47 14.47 0 0 1 1.34-5.85.64.64 0 0 1 .58-.37.66.66 0 0 1 .58.36 27.59 27.59 0 0 1 2.09 5.28 3.09 3.09 0 0 1-.52 2.3 2.1 2.1 0 0 1-1.61.72Zm-.41-6.38a11.36 11.36 0 0 0-.68 3.85c0 .08.13 1.24 1.12 1.23a.76.76 0 0 0 .65-.26 1.76 1.76 0 0 0 .24-1.27 18.84 18.84 0 0 0-1.33-3.55Z" transform="translate(0 .75)"/><path class="cls-2" d="M92.41 99.79a13.85 13.85 0 0 0-1.27 5.5s.2 1.9 1.79 1.86 1.6-1.67 1.51-2.27a28.14 28.14 0 0 0-2.03-5.09Z" transform="translate(0 .75)"/><path d="M67.64 100.44A2.53 2.53 0 0 1 65.25 98a14.74 14.74 0 0 1 1.33-5.86.66.66 0 0 1 .59-.36.69.69 0 0 1 .58.35 27.87 27.87 0 0 1 2.09 5.28 3.08 3.08 0 0 1-.52 2.3 2.08 2.08 0 0 1-1.62.72Zm-.41-6.38a11.47 11.47 0 0 0-.68 3.86c0 .08.17 1.22 1.09 1.22a.81.81 0 0 0 .65-.25 1.73 1.73 0 0 0 .23-1.27 18.1 18.1 0 0 0-1.29-3.56ZM92.88 107.8a2.55 2.55 0 0 1-2.39-2.44 14.47 14.47 0 0 1 1.34-5.85.66.66 0 0 1 .58-.37.74.74 0 0 1 .58.36 27.59 27.59 0 0 1 2.09 5.28 3.09 3.09 0 0 1-.52 2.3 2.07 2.07 0 0 1-1.61.72Zm-.41-6.38a11.68 11.68 0 0 0-.68 3.86c0 .08.15 1.25 1.12 1.22a.76.76 0 0 0 .65-.26 1.75 1.75 0 0 0 .24-1.24 18.65 18.65 0 0 0-1.33-3.58ZM75.71 82.88h-.46c-4.68-.24-5.92-4.35-5.92-6.49s1.53-6.36 6.2-6.48a6.82 6.82 0 0 1 6.32 7.28c.05.09-.42 5.69-6.14 5.69Zm-.17-11.68c-4.6.13-4.9 5-4.91 5.22s.08 4.92 4.69 5.15a4.76 4.76 0 0 0 5.28-4.44c0-5.5-4.6-5.9-5.06-5.93ZM111.07 119.68a14.65 14.65 0 0 1-2.35-.38.64.64 0 0 1-.49-.77.65.65 0 0 1 .77-.53 17.24 17.24 0 0 0 2.06.35.62.62 0 0 1 .75.49.67.67 0 0 1-.52.78.79.79 0 0 1-.22.06ZM106.34 118.66h-.19a18.36 18.36 0 0 1-3.32-1.33 42.14 42.14 0 0 0-4.58-2.18.66.66 0 0 1-.38-.84.65.65 0 0 1 .84-.37 41.46 41.46 0 0 1 4.74 2.25 16.81 16.81 0 0 0 3.08 1.22.65.65 0 0 1-.19 1.28ZM118.54 141.31a45.93 45.93 0 0 1-13.5-2.42.65.65 0 1 1 .43-1.22c.17.06 17 5.89 23-1.14 4.76-5.64 4.14-16-1.84-30.81a.65.65 0 0 1 1.21-.49c6.17 15.29 6.72 26.1 1.62 32.14-2.57 3.01-6.74 3.94-10.92 3.94Z" transform="translate(0 .75)"/><path d="M115.34 133.59a.63.63 0 0 1-.33-.09c-2.1-1.23-3-7-3.09-7.62l-1.8-8.53a.65.65 0 1 1 1.27-.27l1.81 8.57c.33 2.26 1.29 6 2.47 6.73a.65.65 0 0 1 .23.89.64.64 0 0 1-.56.32ZM54.89 118.66a.64.64 0 0 1-.62-.46.66.66 0 0 1 .43-.82 16.81 16.81 0 0 0 3.08-1.22 41.46 41.46 0 0 1 4.74-2.25.65.65 0 0 1 .84.37.65.65 0 0 1-.37.84 41.15 41.15 0 0 0-4.58 2.18 18.2 18.2 0 0 1-3.33 1.33.63.63 0 0 1-.19.03ZM42.69 141.31c-4.18 0-8.35-.93-10.89-3.94-5.09-6-4.55-16.85 1.62-32.14a.65.65 0 0 1 1.21.49c-6 14.8-6.6 25.17-1.84 30.81 5.94 7 22.8 1.2 23 1.14l2.25-.79a.65.65 0 0 1 .43 1.23l-2.25.78a45.84 45.84 0 0 1-13.53 2.42Z" transform="translate(0 .75)"/><path d="M45.9 133.59a.63.63 0 0 1-.56-.32.64.64 0 0 1 .23-.89c1.17-.69 2.13-4.47 2.46-6.69l1.82-8.61a.64.64 0 0 1 .77-.5.65.65 0 0 1 .5.77l-1.81 8.57c-.09.61-1 6.35-3.08 7.58a.68.68 0 0 1-.33.09Z" transform="translate(0 .75)"/><path d="M50.12 119.58a.65.65 0 0 1-.64-.55.64.64 0 0 1 .53-.74l1.88-.31a.65.65 0 0 1 .75.53.66.66 0 0 1-.54.75l-1.88.31Z" transform="translate(0 .75)"/></g><path class="cls-8" d="M117.92 85.42c1.23-4.58 4.88-8 6.87-11 2.33-3.53 2.24-7-.39-8.57a3.75 3.75 0 0 0-4.44 0 37.07 37.07 0 0 0-.14-9.68c-1.22-6.4-5.17-5.58-5.17-5.58a5.44 5.44 0 0 0-6.16-2.94c-5.61.92-5.1 5.66-5.1 5.66-1.62.79-4 2.73-3.25 7.27 1 6.3 1.77 6.07 1.35 12.19 0 0-.37 6.27-1.24 14-.73 6.62-.09 10.14 3.11 12.43a8.72 8.72 0 0 0 3.08 1.32c.82.19 1.8.5 2 .88l4.5-3.11 6-4.16c-1.06-1.28-1.35-3.94-1.37-6.3v-1.64Z" transform="translate(0 .75)"/><path d="M108.4 102.1a.65.65 0 0 1-.58-.35 4.1 4.1 0 0 0-1.53-.55 9.12 9.12 0 0 1-3.29-1.43c-3.72-2.66-4-7-3.37-13 .85-7.66 1.23-14 1.23-14a21 21 0 0 0-.48-7.56c-.25-1.1-.54-2.46-.87-4.48-1.15-7.31 5.14-8.5 5.2-8.52a6.44 6.44 0 0 1 4.7.76c2 1.23 3.42 3.57 4.13 7a4.92 4.92 0 0 1 .11.77 66.08 66.08 0 0 1-1.09 17.5.65.65 0 0 1-1.28-.25 64.6 64.6 0 0 0 1.08-17.14c0-.21 0-.41-.09-.62-.63-3-1.81-5.06-3.51-6.09a5.22 5.22 0 0 0-3.76-.62c-.27 0-5.16 1-4.2 7 .31 2 .61 3.33.84 4.41a22 22 0 0 1 .52 7.92c0 .06-.38 6.38-1.24 14.07-.74 6.7 0 9.79 2.84 11.83a7.77 7.77 0 0 0 2.85 1.22c1.84.43 2.25.88 2.41 1.27a.64.64 0 0 1-.35.84.56.56 0 0 1-.27.02Z" transform="translate(0 .75)"/><path d="M115.4 78.91h-.15a.66.66 0 0 1-.48-.79c0-.1 2.46-10.4 1.56-18.31-.67-5.95-1.83-9.26-3.77-10.72a4.92 4.92 0 0 0-4-.77c-4.94.81-4.57 4.77-4.55 4.94a.65.65 0 0 1-.58.72.67.67 0 0 1-.72-.58s-.5-5.36 5.64-6.37a6.25 6.25 0 0 1 5 1c2.25 1.7 3.57 5.28 4.29 11.61.92 8.14-1.49 18.33-1.59 18.76a.66.66 0 0 1-.65.51Z" transform="translate(0 .75)"/><path d="M118.9 94.83a.66.66 0 0 1-.5-.23c-1.46-1.76-1.62-5.64-1.49-8.58.07-1.63.54-6.15.83-8.2.11-.77.23-1.57.35-2.38.92-6.3 2.06-14.13 1.1-19.16-1.08-5.62-4.28-5.09-4.41-5.06a.65.65 0 0 1-.76-.51.64.64 0 0 1 .5-.76 4.14 4.14 0 0 1 3 .7c1.46 1 2.46 2.79 2.95 5.38 1 5.25-.15 13.2-1.08 19.6-.12.81-.24 1.6-.35 2.37-.28 2-.76 6.52-.82 8.08-.17 3.83.26 6.56 1.19 7.69a.64.64 0 0 1-.09.91.65.65 0 0 1-.42.15Z" transform="translate(0 .75)"/><path d="M117.53 88.53a.64.64 0 0 1-.61-.68c.25-4.63 3.1-8.25 5.38-11.17.74-.93 1.44-1.82 2-2.66a7.3 7.3 0 0 0 1.46-5.4 3.43 3.43 0 0 0-1.65-2.25 3.11 3.11 0 0 0-3.67-.07.65.65 0 0 1-.92-.06.66.66 0 0 1 .06-.92 4.36 4.36 0 0 1 5.2-.07 4.76 4.76 0 0 1 2.22 3.09 8.52 8.52 0 0 1-1.63 6.4c-.59.88-1.3 1.79-2 2.75-2.29 2.91-4.88 6.21-5.11 10.43a.65.65 0 0 1-.73.61Z" transform="translate(0 .75)"/><path class="cls-7" d="M106.31 120.4s12.5-9.3 16.4-12l3.49-2.46s3.69-1.61 1.6-5.58c-1.25-2.37-2.81-5.06-3.87-6.83a2.14 2.14 0 0 0-3.06-.67l-13.76 9.52s-2.39 1.15-1.52 7.83c0 0 .87 7.42.76 8.7Z" transform="translate(0 .75)"/><path d="M106.31 121.05a.64.64 0 0 1-.65-.66v-1.53c.09-1-.52-6.57-.76-8.61-.86-6.6 1.37-8.2 1.83-8.46l13.73-9.51a2.79 2.79 0 0 1 4 .88c1.08 1.82 2.64 4.49 3.88 6.86a4.81 4.81 0 0 1 .5 3.91 4.74 4.74 0 0 1-2.35 2.53l-3.43 2.43c-3.85 2.7-16.27 11.94-16.39 12a.69.69 0 0 1-.36.16Zm15.77-28a1.49 1.49 0 0 0-.84.26l-13.76 9.53-.09.05s-1.94 1.17-1.16 7.16c.09.77.88 7.52.77 8.84v.15c3.12-2.31 12.15-9 15.34-11.25l3.48-2.46.12-.07a3.44 3.44 0 0 0 1.7-1.81 3.54 3.54 0 0 0-.42-2.86c-1.23-2.35-2.77-5-3.85-6.81a1.46 1.46 0 0 0-1-.7 1.84 1.84 0 0 0-.29.01Z" transform="translate(0 .75)"/><path d="M110.62 113.94a2.93 2.93 0 1 1 2.93-2.93 2.93 2.93 0 0 1-2.93 2.93Zm0-4.56a1.63 1.63 0 1 0 1.63 1.63 1.63 1.63 0 0 0-1.63-1.63Z" transform="translate(0 .75)"/><path class="cls-7" d="M54.92 120.4s-12.5-9.3-16.4-12L35 105.9s-3.69-1.61-1.6-5.58c1.25-2.37 2.81-5.06 3.86-6.83a2.15 2.15 0 0 1 3.07-.67l13.75 9.52s2.4 1.15 1.53 7.83c0 0-.87 7.42-.77 8.7Z" transform="translate(0 .75)"/><path class="cls-8" d="M61 86.82c-.86-7.77-1.24-14-1.24-14-.41-6.12.36-5.89 1.36-12.19.72-4.54-1.64-6.48-3.26-7.27s.51-4.74-5.09-5.66a5.45 5.45 0 0 0-6.17 2.94s-3.94-.82-5.17 5.58a36.51 36.51 0 0 0-.13 9.66 3.73 3.73 0 0 0-4.43 0c-2.63 1.59-2.73 5-.4 8.57s6.9 7.55 7.23 13.4c0 2.37-.3 5-1.36 6.33l4.24 2.94 6.25 4.33c.16-.38 1.14-.69 2-.88a8.85 8.85 0 0 0 3.09-1.32c3.15-2.25 3.8-5.81 3.08-12.43Z" transform="translate(0 .75)"/><path d="M54.92 121.05a.66.66 0 0 1-.38-.12c-.13-.1-12.54-9.34-16.39-12l-3.44-2.43a4.73 4.73 0 0 1-2.34-2.53 4.8 4.8 0 0 1 .49-3.91c1.24-2.36 2.8-5 3.88-6.86a2.8 2.8 0 0 1 4-.88l13.72 9.51c.47.26 2.69 1.86 1.83 8.47-.24 2-.84 7.56-.76 8.56v1.57a.63.63 0 0 1-.35.59.6.6 0 0 1-.26.03Zm-15.77-28a1.73 1.73 0 0 0-.32 0 1.48 1.48 0 0 0-1 .7c-1.08 1.82-2.62 4.47-3.85 6.81a3.57 3.57 0 0 0-.42 2.87 3.49 3.49 0 0 0 1.71 1.8.41.41 0 0 1 .11.07l3.49 2.46c3.18 2.24 12.22 8.93 15.34 11.25v-.19c-.1-1.28.68-8 .77-8.79.78-6-1.16-7.17-1.18-7.18L40 93.35a1.54 1.54 0 0 0-.85-.26Z" transform="translate(0 .75)"/><path d="M52.84 102.14a.66.66 0 0 1-.27-.06.67.67 0 0 1-.34-.87c.16-.39.57-.84 2.41-1.27a7.9 7.9 0 0 0 2.86-1.22c2.84-2 3.58-5.13 2.83-11.83-.85-7.69-1.23-14-1.23-14.08a21.8 21.8 0 0 1 .51-7.91c.24-1.08.53-2.42.84-4.41 1-6-3.93-7-4.13-7a5.25 5.25 0 0 0-3.83.61c-1.7 1-2.88 3.08-3.51 6.09a4.38 4.38 0 0 0-.08.62A65.72 65.72 0 0 0 50 77.92a.65.65 0 0 1-1.28.25 66.09 66.09 0 0 1-1.09-17.5 6.49 6.49 0 0 1 .11-.77c.71-3.39 2.1-5.73 4.13-7a6.43 6.43 0 0 1 4.77-.74s6.29 1.2 5.13 8.5c-.32 2-.62 3.38-.86 4.47a20.78 20.78 0 0 0-.49 7.56c0 .07.38 6.36 1.24 14 .67 6.06.34 10.36-3.37 13a9.25 9.25 0 0 1-3.32 1.43 3.87 3.87 0 0 0-1.54.56.6.6 0 0 1-.59.46Z" transform="translate(0 .75)"/><path d="M45.83 78.91a.65.65 0 0 1-.63-.5c-.1-.43-2.51-10.62-1.59-18.76.72-6.33 2-9.91 4.28-11.61a6.25 6.25 0 0 1 5-1c6.14 1 5.64 6.32 5.64 6.37a.67.67 0 0 1-.72.58.65.65 0 0 1-.57-.72c0-.17.34-4.14-4.56-4.94a4.93 4.93 0 0 0-4 .77c-1.93 1.46-3.1 4.77-3.77 10.72C44 67.71 46.44 78 46.46 78.11a.65.65 0 0 1-.48.79Z" transform="translate(0 .75)"/><path d="M42.34 94.83a.66.66 0 0 1-.42-.15.65.65 0 0 1-.08-.91c.93-1.13 1.35-3.86 1.19-7.69C43 84.52 42.49 80 42.2 78c-.11-.76-.22-1.56-.34-2.37-.93-6.39-2.1-14.35-1.09-19.6.5-2.59 1.49-4.4 3-5.38a4.12 4.12 0 0 1 3-.7.64.64 0 0 1 .51.76.66.66 0 0 1-.77.51c-.14 0-3.33-.55-4.4 5.06-1 5 .18 12.87 1.1 19.16.11.82.23 1.61.34 2.38.29 2.05.76 6.57.83 8.2.13 2.94 0 6.82-1.48 8.58a.67.67 0 0 1-.56.23Z" transform="translate(0 .75)"/><path d="M43.71 88.53a.65.65 0 0 1-.65-.61c-.23-4.22-2.83-7.52-5.06-10.43-.76-1-1.47-1.87-2.05-2.75a8.58 8.58 0 0 1-1.64-6.4 4.79 4.79 0 0 1 2.24-3.09 4.36 4.36 0 0 1 5.2.07.65.65 0 0 1-.85 1 3.13 3.13 0 0 0-3.68.07 3.42 3.42 0 0 0-1.64 2.25A7.29 7.29 0 0 0 37 74c.56.84 1.25 1.73 2 2.66 2.29 2.92 5.13 6.54 5.39 11.17a.65.65 0 0 1-.62.68ZM50.61 113.94a2.93 2.93 0 1 1 2.93-2.94 2.93 2.93 0 0 1-2.93 2.94Zm0-4.56a1.63 1.63 0 1 0 1.63 1.62 1.63 1.63 0 0 0-1.63-1.62Z" transform="translate(0 .75)"/></g><path d="M61.75-.75v1.3h90.91v207.11h-125a.64.64 0 1 0 0 1.28H154V-.75Z" transform="translate(0 .75)"/></g></svg>