<svg width="134" height="134" viewBox="0 0 134 134" fill="none" xmlns="http://www.w3.org/2000/svg">
<mask id="mask0_18_59" style="mask-type:alpha" maskUnits="userSpaceOnUse" x="19" y="21" width="100" height="100">
<rect width="100" height="99.0099" transform="matrix(-1 4.92192e-09 4.92192e-09 1 119 21)" fill="#D9D9D9"/>
</mask>
<g mask="url(#mask0_18_59)">
</g>
<path d="M48.2561 71.1145L68.6597 66.6839L89.7157 70.9612L68.1064 76.0225L48.2561 71.1145Z" fill="#8E8E8E"/>
<path d="M89.7157 70.9612C69.2333 70.9248 68.1064 76.0225 68.1064 76.0225C65.7437 70.7632 48.2561 71.1145 48.2561 71.1145C48.2561 71.1145 65.9219 72.1974 68.6523 66.6905C68.6523 66.6905 71.3381 72.1175 89.7157 70.9612Z" fill="black"/>
<path d="M90.1478 71.4469C90.038 71.5416 89.9005 71.5982 89.7559 71.6081C87.566 71.7492 85.5945 71.7897 83.8182 71.7637C70.0379 72.5514 68.751 76.1452 68.7344 76.1868C68.7027 76.3169 68.632 76.4343 68.5319 76.5233C68.4318 76.6124 68.307 76.6688 68.174 76.6852C68.0446 76.6959 67.9149 76.6669 67.8023 76.6021C67.6897 76.5374 67.5995 76.4398 67.5436 76.3225C66.164 73.2669 58.3865 72.1816 52.6878 71.8837C50.2496 71.9111 48.4707 71.807 48.2581 71.8088C48.0909 71.7955 47.9353 71.7181 47.8238 71.5928C47.7124 71.4675 47.6536 71.3039 47.66 71.1363C47.6707 70.9682 47.7474 70.811 47.8733 70.6991C47.9992 70.5871 48.1642 70.5293 48.3324 70.5382C48.8789 70.5205 50.6793 70.4983 53.0096 70.6205C58.7812 70.5189 66.5806 69.6576 68.1823 66.4931C68.239 66.3857 68.3234 66.2955 68.4268 66.2318C68.5302 66.168 68.6487 66.1332 68.7701 66.1308C68.8915 66.1316 69.0102 66.1664 69.1128 66.2313C69.2155 66.2961 69.2979 66.3884 69.3507 66.4976C69.3507 66.4976 71.5976 70.3477 83.8958 70.5571C85.6721 70.4626 87.6445 70.408 89.8261 70.4081C89.9587 70.4068 90.0885 70.446 90.1981 70.5206C90.3078 70.5951 90.392 70.7015 90.4395 70.8253C90.487 70.9491 90.4955 71.0844 90.4638 71.2132C90.4322 71.342 90.3619 71.458 90.2624 71.5457L90.1478 71.4469ZM68.5362 74.369C69.6869 73.3455 72.0723 72.04 77.0166 71.1888C71.9596 70.3335 69.6795 68.7481 68.7159 67.7851C67.1063 69.7521 63.632 70.7814 60.0022 71.3199C63.394 71.9433 66.5833 73.001 68.1062 74.8184C68.2414 74.6611 68.385 74.511 68.5362 74.369Z" fill="black"/>
<path d="M90.1476 71.4468C90.0657 71.5175 89.968 71.5677 89.8628 71.5931L68.2536 76.6544C68.1557 76.6779 68.0536 76.6768 67.9563 76.6512L48.1059 71.7432C47.9624 71.7094 47.8346 71.6277 47.7436 71.5117C47.6525 71.3957 47.6037 71.2522 47.605 71.1047C47.6098 70.9584 47.6624 70.8178 47.7548 70.7042C47.8471 70.5906 47.9741 70.5105 48.1163 70.4759L68.5125 66.0519C68.6014 66.035 68.6928 66.0356 68.7815 66.0535L89.845 70.3241C89.955 70.3551 90.0549 70.4145 90.1347 70.4964C90.2144 70.5783 90.2712 70.6798 90.2992 70.7907C90.3272 70.9015 90.3254 71.0178 90.2942 71.1277C90.2629 71.2377 90.2032 71.3374 90.121 71.4169L90.1476 71.4468ZM68.1103 75.3498L86.667 71.0095L68.6408 67.3698L51.1294 71.155L68.1103 75.3498Z" fill="black"/>
</svg>
