<svg xmlns="http://www.w3.org/2000/svg" width="100" height="55" fill="none"><g stroke="#000" stroke-linecap="round" stroke-linejoin="round" stroke-width="2.5" clip-path="url(#a)"><path d="M7.735 23.599v30.134h45.458V22.585"/><path d="m1.241 27.966 29.223-23.61L59.21 27.349"/><path d="M41.922 45.739H18.896v-21.37h23.026v21.37ZM30.404 24.37v21.369M41.922 33.316H30.404M53.192 35.049v18.684H98.62V35.05l-3.615-4.692-3.932 4.692-3.713-4.692-3.932 4.692-3.406-4.692-4.12 4.692-3.417-4.692-3.832 4.692-3.506-4.692-3.604 4.692-4.041-4.692-4.31 4.692Z"/><path d="M71.115 32.04s-3.356-1.825-2.92-7.671c.477-6.576 7.09-7.64 7.09-7.64s-.993-10.974 9.264-11.43c9.185-.415 10.873 9.12 9.672 11.673"/><path d="M88.978 16.212s8.65-.172 9.642 7.63c.834 6.556-2.304 8.197-2.304 8.197M78.91 7.184s-1.46-5.897-9.264-5.917a9.202 9.202 0 0 0-3.684.572 9.344 9.344 0 0 0-3.174 1.992 9.565 9.565 0 0 0-2.163 3.097 9.73 9.73 0 0 0-.81 3.712"/><path d="M60.828 6.556s-7.636-3.233-11.25 3.1a11.146 11.146 0 0 0-.318 9.737"/></g><defs><clipPath id="a"><path fill="#fff" d="M0 0h100v55H0z"/></clipPath></defs></svg>