<svg width="30" height="30" viewBox="0 0 30 30" fill="none" xmlns="http://www.w3.org/2000/svg">
<path d="M2.01073 24.6845C1.79531 22.929 1.58324 20.9949 1.474 19.4255C1.215 15.7044 1.16208 11.7802 1.41376 8.66096C1.54002 7.09616 1.73943 5.78154 2.00885 4.81224C2.14357 4.32755 2.28542 3.96779 2.42137 3.71951C2.54642 3.49115 2.63124 3.42153 2.64139 3.41321C2.64275 3.41209 2.64276 3.41208 2.64133 3.41295C3.07685 3.14918 3.43521 2.87515 3.70462 2.66913C3.78307 2.60915 3.85397 2.55493 3.91705 2.5084C4.20272 2.2977 4.4505 2.14217 4.83769 2.00561C5.69597 1.7029 7.31309 1.46389 11.2421 1.46399C14.2202 1.46407 15.9864 1.37889 17.2897 1.31604C17.5464 1.30366 17.7851 1.29215 18.0116 1.28232C19.3417 1.22462 20.2508 1.22355 22.0704 1.45391C25.1701 1.84634 27.9112 4.17094 28.2397 6.97828C28.2921 7.4259 28.3489 7.9014 28.4105 8.40631C29.1247 14.2615 28.5039 20.1481 28.419 20.8959C28.4119 20.9579 28.405 21.0221 28.3987 21.0906L28.1397 23.8775C27.9098 26.3508 25.7972 28.2469 23.2627 28.2662C22.452 28.2724 21.6638 28.2868 20.998 28.3146C19.3566 28.3831 18.2446 28.4488 17.1595 28.5129L17.0383 28.5201C15.9175 28.5863 14.8035 28.6509 13.1249 28.7165C11.0728 28.7967 8.46599 28.7212 6.22257 28.6132C4.04697 28.5085 2.27734 26.8571 2.01073 24.6845Z" stroke="black" stroke-width="2.5" stroke-linejoin="round"/>
<path d="M10 9.40723C13.6667 14.2961 16.1111 15.5183 20.1852 19.185" stroke="black" stroke-width="2.5" stroke-linecap="round" stroke-linejoin="round"/>
<path d="M19.7776 9C17.3332 12.6667 13.6665 15.1111 10.4072 20" stroke="black" stroke-width="2.5" stroke-linecap="round" stroke-linejoin="round"/>
</svg>
