<svg xmlns="http://www.w3.org/2000/svg" width="138" height="59" fill="none"><path fill="#686868" d="M38.11 21.145H9.522c-1.995 0-3.908.748-5.319 2.08C2.793 24.557 2 26.363 2 28.247v21.907c0 1.883.792 3.69 2.203 5.021 1.41 1.332 3.324 2.08 5.319 2.08H128.56c.988 0 1.966-.183 2.879-.54a7.566 7.566 0 0 0 2.44-1.54 7.094 7.094 0 0 0 1.63-2.303 6.76 6.76 0 0 0 .573-2.718V28.247a6.76 6.76 0 0 0-.573-2.718 7.094 7.094 0 0 0-1.63-2.304 7.566 7.566 0 0 0-2.44-1.54 7.913 7.913 0 0 0-2.879-.54h-28.416l.8-11.556a6.756 6.756 0 0 0-.423-2.864 7.075 7.075 0 0 0-1.596-2.47 7.557 7.557 0 0 0-2.503-1.666 7.925 7.925 0 0 0-3-.589H45.066a7.927 7.927 0 0 0-3.003.586 7.558 7.558 0 0 0-2.507 1.666 7.064 7.064 0 0 0-1.598 2.47 6.754 6.754 0 0 0-.424 2.867l.81 11.556h-.233Z"/><path stroke="#000" stroke-linecap="round" stroke-linejoin="round" stroke-width="2.5" d="M38.11 21.145H9.522c-1.995 0-3.908.748-5.319 2.08C2.793 24.557 2 26.363 2 28.247v21.907c0 1.883.792 3.69 2.203 5.021 1.41 1.332 3.324 2.08 5.319 2.08H128.56c.988 0 1.966-.183 2.879-.54a7.566 7.566 0 0 0 2.44-1.54 7.094 7.094 0 0 0 1.63-2.303 6.76 6.76 0 0 0 .573-2.718V28.247a6.76 6.76 0 0 0-.573-2.718 7.094 7.094 0 0 0-1.63-2.304 7.566 7.566 0 0 0-2.44-1.54 7.913 7.913 0 0 0-2.879-.54h-28.416l.8-11.556a6.756 6.756 0 0 0-.423-2.864 7.075 7.075 0 0 0-1.596-2.47 7.557 7.557 0 0 0-2.503-1.666 7.925 7.925 0 0 0-3-.589H45.066a7.927 7.927 0 0 0-3.003.586 7.558 7.558 0 0 0-2.507 1.666 7.064 7.064 0 0 0-1.598 2.47 6.754 6.754 0 0 0-.424 2.867l.81 11.556h-.233Z"/></svg>