<svg id="Слой_5" data-name="Слой 5" xmlns="http://www.w3.org/2000/svg" viewBox="0 0 107.03 121.11"><defs><style>.cls-1{fill:#4f4f4f}.cls-2{fill:none;stroke:#000;stroke-linecap:round;stroke-linejoin:round;stroke-width:1.3px}.cls-5{fill:#bfbfbf}</style></defs><path class="cls-1" d="m91 115.12-.42 2.61a3.68 3.68 0 0 1-3.63 3.1H86a3.68 3.68 0 0 1-3.62-3l-.5-2.78M21.47 115l-.47 2.73a3.68 3.68 0 0 1-3.63 3.1h-.95a3.68 3.68 0 0 1-3.62-3l-.52-2.88" transform="translate(-.5 -.36)"/><path class="cls-2" d="m21.47 115-.47 2.73a3.68 3.68 0 0 1-3.63 3.1h-.95a3.68 3.68 0 0 1-3.62-3l-.52-2.88M91 115.12l-.42 2.61a3.68 3.68 0 0 1-3.63 3.1H86a3.68 3.68 0 0 1-3.62-3l-.5-2.78" transform="translate(-.5 -.36)"/><path d="M101.58 1a5.3 5.3 0 0 0-5.3 5.3v.13l-.28.08-12.39 10.07L69.27 11 57.59 26.43l-.06.06a11.38 11.38 0 0 1-1.26-2.37l-.6-.33a16 16 0 0 0-4.36-.61 15.54 15.54 0 0 0-4.61.69l-.05.15a10.43 10.43 0 0 1-.94 2l-17.16-5.97-11.4 3.61-5.93-11.56-.14-.1a5.29 5.29 0 1 0-9.93-2.52 5.29 5.29 0 0 0 4.59 5.23l.21.44L14 30.92l14.4-4.43 12.25 3.94.1.13a11.7 11.7 0 0 1-2.86.91h-.1a12.63 12.63 0 0 0-1.13 5.23v.93h29.27v-.94a12.64 12.64 0 0 0-1.15-5.27l-.14-.16a10.83 10.83 0 0 1-2.45-.78l.05-.17 9-12.06 13.65 5.13L99 11.42l.34-.33a5.21 5.21 0 0 0 2.26.52 5.3 5.3 0 0 0 0-10.6Z" transform="translate(-.5 -.36)" style="fill:#d8d8d8"/><path class="cls-2" d="M65.93 37.66v-.94a12.64 12.64 0 0 0-1.15-5.27l-.14-.16a11.63 11.63 0 0 1-8.41-7.17l-.6-.33a16 16 0 0 0-4.36-.61 15.54 15.54 0 0 0-4.61.69l-.05.15a11.58 11.58 0 0 1-8.76 7.45h-.1a12.63 12.63 0 0 0-1.13 5.23v.93" transform="translate(-.5 -.36)"/><path class="cls-2" d="m57.09 26.06 11.68-15.43 14.34 5.59L95.45 6.15"/><path class="cls-2" d="M98.48 11.05 84.39 23.04l-13.65-5.12-8.96 12.06M45.17 25.59l-17.12-5.9-11.4 3.61-5.93-11.56"/><path class="cls-2" d="m5.45 14.78 8.07 15.78 14.38-4.43 12.25 3.94"/><circle class="cls-2" cx="5.95" cy="9.11" r="5.3"/><circle class="cls-2" cx="101.08" cy="5.95" r="5.3"/><path class="cls-2" d="M12.51 15a5.92 5.92 0 0 1-4.76 3.67M14.91 19.66s-1 3.58-4.24 4.42M17.15 23.66s.36 5.15-3.13 7.26M22.53 22.11a6.86 6.86 0 0 1-.94 6.35M28.55 20.05a8.26 8.26 0 0 1-.15 6.44M34.13 22.15s1.08 3.64-1.55 5.46M39.79 24s.21 4-2.36 5.16M69.27 11s-1.47 4.43 2 7.29M64.56 17.33a6.38 6.38 0 0 0 4 4.52M61 22.23A5.93 5.93 0 0 0 65.35 26M83.61 16.58s-.59 4.63 1.28 6.83M79.22 14.94a7.49 7.49 0 0 0-.15 6M87.93 13.27a7.75 7.75 0 0 0 1.73 5.92M92.27 9.67c-.39.78.63 4.94 2.18 5.47M74.48 13.09a12 12 0 0 0-.48 5.82" transform="translate(-.5 -.36)"/><path d="M90.37 37.81H13.05A11.7 11.7 0 0 0 1.36 49.52v53.61a11.7 11.7 0 0 0 11.7 11.69h77.31a11.69 11.69 0 0 0 11.7-11.69V49.51a11.7 11.7 0 0 0-11.7-11.7ZM89.24 96a2.91 2.91 0 0 1-2.91 2.91H17.81A2.9 2.9 0 0 1 14.9 96V52.43a2.91 2.91 0 0 1 2.91-2.91h68.52a2.91 2.91 0 0 1 2.91 2.91Z" transform="translate(-.5 -.36)" style="fill:#7b7b7b"/><path class="cls-1" d="M86.33 49.5H17.81a2.91 2.91 0 0 0-2.91 2.91V96a2.9 2.9 0 0 0 2.91 2.91h68.52A2.91 2.91 0 0 0 89.24 96V52.41a2.91 2.91 0 0 0-2.91-2.91Zm-.39 44.55a1.53 1.53 0 0 1-1.53 1.53H19.92a1.54 1.54 0 0 1-1.53-1.53V54.31a1.52 1.52 0 0 1 1.53-1.53H84.4a1.53 1.53 0 0 1 1.53 1.53Z" transform="translate(-.5 -.36)"/><path class="cls-2" d="M13.05 114.82h77.32a11.69 11.69 0 0 0 11.7-11.69V49.51a11.7 11.7 0 0 0-11.7-11.7H13.05A11.7 11.7 0 0 0 1.36 49.52v53.61a11.7 11.7 0 0 0 11.69 11.69Z" transform="translate(-.5 -.36)"/><path class="cls-2" d="M17.81 98.93h68.52A2.91 2.91 0 0 0 89.24 96V52.41a2.91 2.91 0 0 0-2.91-2.91H17.81a2.91 2.91 0 0 0-2.91 2.91V96a2.9 2.9 0 0 0 2.91 2.93Z" transform="translate(-.5 -.36)"/><path class="cls-2" d="M19.92 95.58h64.49a1.53 1.53 0 0 0 1.53-1.53V54.29a1.53 1.53 0 0 0-1.53-1.53H19.93a1.52 1.52 0 0 0-1.53 1.53v39.76a1.54 1.54 0 0 0 1.52 1.53Z" transform="translate(-.5 -.36)"/><rect class="cls-5" x="43.27" y="104.44" width="7.73" height="4.1" rx="1.31"/><rect class="cls-5" x="53.56" y="104.44" width="7.73" height="4.1" rx="1.31"/><rect class="cls-5" x="63.68" y="104.44" width="7.73" height="4.1" rx="1.31"/><rect class="cls-5" x="73.91" y="104.44" width="7.73" height="4.1" rx="1.31"/><circle class="cls-1" cx="88.95" cy="106.21" r="3.33"/><circle class="cls-2" cx="88.95" cy="106.21" r="3.33"/><rect class="cls-2" x="73.91" y="104.44" width="7.73" height="4.1" rx="1.31"/><rect class="cls-2" x="63.68" y="104.44" width="7.73" height="4.1" rx="1.31"/><rect class="cls-2" x="53.56" y="104.44" width="7.73" height="4.1" rx="1.31"/><rect class="cls-2" x="43.27" y="104.44" width="7.73" height="4.1" rx="1.31"/></svg>