<svg xmlns="http://www.w3.org/2000/svg" width="681" height="358" fill="none"><g clip-path="url(#a)"><path fill="#262626" d="M650.4 324.9c-1.4-1-3.3-1-4.8-.1-2 1.2-6.5 3.4-12.7 3.4-6.4 0-10.5-.7-12.1-1l-18.2-3.2-12.7-1.2c-11.2-2.5-19.5 1.3-21.5 9.6l-3.3-8.4-12.7-1.2c-12.9-2.9-21.9 2.6-22 13.6-.1 11 7 18 7 18h109.9c3.1 0 5.5-2.5 5.5-5.5v-19.6c-.1-.1-.3-3-2.4-4.4Z"/><path fill="#fff" d="M609.9 346.3h-5.6v-1c.4-17.5-14.5-22.6-14.5-22.6s-21.3-5.3-22 13.6l-2.2.2c-3.5-10.5-13.2-13.8-13.2-13.8s-31.3-6.3-18.9 26.2l3.9 5.4h109.8s5.5 1.1 5.5-8h-42.8Z"/><path fill="#fff" d="M573.3 324.799s-3.4-3.6-7.3-1.3c-3.6 2.1.1 9.4 1.6 12.1M625.3 332.7c-.9-1.2-2.4-3.1-3.5-4.4-2.5-3-6.6-6.7-10.4-4.2-.3.2-.5.4-.7.6 0 0-3.4-3.6-7.3-1.3-4 2.3.9 10.9 2 12.7.9 1.4 3.2 4.5 6.4 5.1 2.8.6 5.4-1.8 4.8-4.6v-.1l1.3 1.3c2.2 2.1 5.4 4.4 8 2.7 2.9-1.8 1-5.4-.6-7.8Z"/><path fill="#fff" d="M647.8 302.3H620l-45.1 7.4v4.6c0 1.8 1.5 3.3 3.3 3.3h-.5s.2 2.7.2 4.5l6.7-.2 14.6 1.7 6.3-.9 4.9.7c-.3-1.1 0-5.8 0-5.8 1 0 1.9-.4 2.5-1.1l-.1-.7c.6 1.1 1.7 1.8 2.9 1.8h-.5s.4 4.8 0 5.8l7.8 4.1 14.4.8 10.5-4.9c-.3-1.1 0-5.8 0-5.8 1.8 0 3.3-1.5 3.3-3.3v-8.6c0-1.9-1.5-3.4-3.4-3.4Z"/><path fill="#E1E1E1" d="M648.2 302.299c1.6-11.3-1.5-18.4-1.5-18.4s-17.7 3.1-30-1.5v19.8h31.5v.1Z"/><path fill="#7F7F7F" d="M620.9 284c3 1 6.5 1.4 9.1 1.5 2.2.1 7.3 0 8.8-.1 10.7-.8 15.1-5.1 15.1-5.1-.9-2.2-4-21.1-4-21.1s2.6-2.3 2.5-9.8c-.1-8.8-4-12.6-4-12.6l-33.2 11 5.7 36.2Z"/><path fill="#fff" d="M629.8 147s29.7.6 40.6 39.3c0 0-3.1.9-6.9 4l-4.2 24.8-25.1 11-19.3-9.6-3.7-57 18.6-12.5Z"/><path fill="#E1E1E1" d="M619 216.399s8-.8 11.9 3.4c0 0 2.8 1.8 5.4-.6 2.6-2.3 7.4-7.4 10.1-9.2 0 0-2.9-5.1-4.7-9.1l10-4.5 11.9-6.1 1.2-.9s10.2 16 8.6 26.6c-1.5 9.9-16.8 17.1-24.3 20.5-.8.3-1.5.6-2.3.9-1.1.4-3.4 1.7-4.4 4.9-1.5 4.5-9.6 10.5-12.5 11.8"/><path fill="#A2A2A2" d="M559.101 149c-1.2-2.9-1.9-6.6-.1-10.1 3.7-7 2.2-19 2.2-19l-.7-36.8s-7.3-32.7 31.6-46.8c0 0 40.2-13.1 51.7 3.2 0 0 24.8-6.8 29.7 23.9 4.5 28.1-1.6 43.5 3.3 62.3 0 0 7.2 21.8-4.3 27.1-1.5.7-3.1.9-4.7.9-2.3 0-6.5-.2-11.3-1 0 0-3.9-.5-7.7.2l-9.6-5.3-12-1.5"/><path fill="#E1E1E1" d="M656.1 84.5c-7.2 0-10.8 3-12.4 4.9-26.4-5.6-42.3-30.5-42.3-30.5C589.8 80.4 565 83.8 565 83.8c-2.7-.8-8.2-1.7-14.6 3-5.9 4.4-6.1 12.6-5.6 17.599.4 4.1 2.1 8 5 10.9 3.2 3.1 8.4 5.8 16.4 4.2 1.7 5.6 5.5 11.6 13.1 16.7 4.5 3.1 9.6 5.2 14.9 6.4 0 0 .1 5.7-.6 6.6l.6 5.7 26.2 2.1c9-2.1 9.3-10.1 9.3-10.1-1.2-1.3-1.1-5.9-1.1-5.9 2.4-.9 4.6-2 6.6-3.4 0 0 10.1-6 10.1-15.1 0 0 3.4 3 10.6 3 9.7 0 17.4-8.4 17.4-19.8.1-11.5-6.6-21.2-17.2-21.2Z"/><path fill="#fff" d="M622.701 87.6c-1.3-3.4-4.3-7.5-11.2-7-6.7.4-9.2 4.7-10 8.5 0 0-2.5-9.1-11.8-8.5-9.3.6-10.9 9.9-10.5 13.7.4 3.8 3.4 8.799 11.5 8.399 0 0-.1-6.7 7.7-7.7 1.1-.1 2-.2 2.9-.2v.2l4.2 2.8 1.8 4.4c1.8.7 4.1 1 7 .6 4.8-.6 7.2-3.3 8.3-5.8 1.3-3 1.3-6.4.1-9.4Z"/><path stroke="#000" stroke-linecap="round" stroke-linejoin="round" stroke-miterlimit="10" stroke-width="2.5" d="M642.601 91s3-6.5 13.5-6.5 17.3 9.7 17.3 21.3c0 11.4-7.7 19.7-17.4 19.8-7.3 0-10.6-3-10.6-3 0 9.1-10.1 15.1-10.1 15.1-9.6 6.8-24.9 6.8-34.7 5.9-7.6-.7-15-3.1-21.3-7.4-19.6-13.3-13.7-32-12.7-37.1 1.1-6 0-15.3 0-15.3"/><path stroke="#000" stroke-linecap="round" stroke-linejoin="round" stroke-miterlimit="10" stroke-width="2.5" d="M656.4 96.5s-2.7 10.5-12 11.7"/><path stroke="#000" stroke-linecap="round" stroke-linejoin="round" stroke-miterlimit="10" stroke-width="2.5" d="M655.6 113.899s-1.1-5-6.9-7M566.7 84.5s-7.4-4.2-16.3 2.3c-5.9 4.4-6.1 12.6-5.6 17.6.4 4.1 2.1 8 5 10.9 3.2 3.1 8.4 5.8 16.4 4.2"/><path stroke="#000" stroke-linecap="round" stroke-linejoin="round" stroke-miterlimit="10" stroke-width="2.5" d="M565 83.8s24.8-3.4 36.4-24.9c0 0 15.9 24.9 42.3 30.5M603.5 96c-2.4-1.4-5.3-1.5-7.8-.4-2.3 1-4.9 2.5-5 6.999 0 9 9.8 7.7 9.8 7.7s6.8 0 6.8-7.3c-.1-3.8-2-5.9-3.8-7Z"/><path stroke="#000" stroke-linecap="round" stroke-linejoin="round" stroke-miterlimit="10" stroke-width="2.5" d="M601.201 94.9s-1.9-13.5 10.3-14.3c6.9-.4 9.9 3.6 11.2 7 1.2 3 1.2 6.3-.2 9.2-1.2 2.5-3.6 5.2-8.3 5.8-2.9.4-5.1.1-7-.6"/><path stroke="#000" stroke-linecap="round" stroke-linejoin="round" stroke-miterlimit="10" stroke-width="2.5" d="M601.501 89.1s-2.5-9.1-11.8-8.5c-9.3.6-10.9 9.9-10.5 13.7.4 3.8 3.4 8.8 11.5 8.4"/><path fill="#000" d="M579.6 89.4s-.2 5 5.9 5c6.1.1 6.5-5.6 6.5-5.6s.4-7.5-6.2-7.4M601.501 89.8s-.2 5 5.9 5c6.1.1 6.5-5.6 6.5-5.6s.4-7.5-6.2-7.4l-3.4 1.9"/><path stroke="#000" stroke-linecap="round" stroke-linejoin="round" stroke-miterlimit="10" stroke-width="2.5" d="M599.601 121.7s11.3 4.9 17-6M614.801 111.5s.6 4.6 6 6"/><path stroke="#000" stroke-linecap="round" stroke-linejoin="round" stroke-miterlimit="10" stroke-width="2.5" d="M560.4 83.2s-7.3-32.7 31.6-46.8c0 0 40.2-13.1 51.7 3.2 0 0 24.8-6.8 29.7 23.9 4.5 28.1-1.6 43.499 3.3 62.299 0 0 7.2 21.8-4.3 27.1-1.5.7-3.1.9-4.7.9-2.3 0-6.5-.2-11.3-1 0 0-3.9-.5-7.7.2M561.1 120s1.5 12-2.2 19c-1.8 3.5-1.1 7.2.1 10.1M594.201 142.6s.1 5.7-.6 6.6M628.7 141.1s-.1 4.6 1.1 5.9c0 0-.3 8-9.3 10.1"/><path stroke="#000" stroke-linecap="round" stroke-linejoin="round" stroke-miterlimit="10" stroke-width="2.5" d="M629.8 147s29.7.6 40.6 39.3c0 0-3.1.9-6.9 4-3.8 3.1-16.3 10-29.6 12.6 0 0-2-5-2.5-11.7-.5-6.7-2-12.2-3.2-13.5"/><path stroke="#000" stroke-linecap="round" stroke-linejoin="round" stroke-miterlimit="10" stroke-width="2.5" d="M619 216.399s8-.8 11.9 3.4c0 0 2.8 1.8 5.4-.6 2.6-2.3 7.4-7.4 10.1-9.2 0 0-2.9-5.1-4.7-9.1M664.7 189.399s10.2 16 8.6 26.6c-1.5 9.9-16.8 17.1-24.3 20.5-.8.3-1.5.6-2.3.9-1.1.4-3.4 1.7-4.4 4.9-1.5 4.5-9.4 10.1-12.3 11.8"/><path stroke="#000" stroke-linecap="round" stroke-linejoin="round" stroke-miterlimit="10" stroke-width="2.5" d="M648.4 236.899s4 3.8 4 12.6c.1 7.4-2.5 9.8-2.5 9.8s3.1 18.9 4 21.1c0 0-4.4 4.2-15.1 5.1-1.5.1-6.5.2-8.8.1-2.6-.1-6.1-.5-9.1-1.5"/><path stroke="#000" stroke-linecap="round" stroke-linejoin="round" stroke-miterlimit="10" stroke-width="2.5" d="M646.7 284s3.1 7.1 1.5 18.4"/><path stroke="#000" stroke-linecap="round" stroke-linejoin="round" stroke-miterlimit="10" stroke-width="2.5" d="M620 302.3h27.8c1.8 0 3.3 1.5 3.3 3.3v8.6c0 1.8-1.5 3.3-3.3 3.3h-32.1c-1.8 0-3.3-1.5-3.3-3.3v-3.6M647.8 317.6s-.3 4.8 0 5.8M615.2 317.6s.4 4.8 0 5.8"/><path stroke="#000" stroke-linecap="round" stroke-linejoin="round" stroke-miterlimit="10" stroke-width="2.5" d="M620.701 327.1c1.7.3 5.8 1 12.1 1 6.2 0 10.8-2.2 12.7-3.4 1.5-.9 3.4-.9 4.8.1 2.1 1.5 2.3 4.4 2.3 4.4v19.6c0 3.1-2.5 5.5-5.5 5.5h-72.3s-7.1-7-7-18c.1-11 9.1-16.5 22-13.6l12.7 1.2"/><path stroke="#000" stroke-linecap="round" stroke-linejoin="round" stroke-miterlimit="10" stroke-width="2.5" d="M625.3 332.7c1.7 2.3 3.6 6 .7 7.8-2.6 1.7-5.9-.6-8-2.7-1.5-1.4-3.8-4-5.2-5.6-2.3-2.8-4.2-6.1-1.3-8 3.7-2.5 7.8 1.2 10.4 4.2 1 1.3 2.5 3.1 3.4 4.3Z"/><path stroke="#000" stroke-linecap="round" stroke-linejoin="round" stroke-miterlimit="10" stroke-width="2.5" d="M610.7 324.799s-3.4-3.6-7.3-1.3.9 10.9 2 12.7c.9 1.4 3.2 4.5 6.4 5.1 2.8.6 5.4-1.8 4.8-4.6v-.1M589.801 322.7s14.9 5.1 14.5 22.6M652.7 346.3h-83.2M612.8 316.5c-.6.7-1.5 1.1-2.5 1.1h-32.1c-1.8 0-3.3-1.5-3.3-3.3v-4.6"/><path stroke="#000" stroke-linecap="round" stroke-linejoin="round" stroke-miterlimit="10" stroke-width="2.5" d="M610.401 317.6s-.3 4.8 0 5.8M577.7 317.6s.2 2.7.2 4.5M576.9 354.3h-39.5s-7.1-7-7-18c.1-11 9.1-16.5 22-13.6l12.7 1.2"/><path stroke="#000" stroke-linecap="round" stroke-linejoin="round" stroke-miterlimit="10" stroke-width="2.5" d="M573.3 324.799s-3.4-3.6-7.3-1.3c-3.6 2.1.1 9.4 1.6 12.1M552.301 322.7s14.9 5.1 14.5 22.6M615.2 346.3H533"/><path fill="#E1E1E1" d="M555.5 149.5s-3-8.8 5.4-12.1c8.5-3.3 11.8 5.2 11.8 5.2s2.2 4.7 3.8 6.4"/><path stroke="#000" stroke-linecap="round" stroke-linejoin="round" stroke-miterlimit="10" stroke-width="2.5" d="M555.5 149.5s-3-8.8 5.4-12.1c8.5-3.3 11.8 5.2 11.8 5.2s2.2 4.7 3.8 6.4"/><path fill="#A9A8A8" d="M161.3 138.199c-6-8.5-12.7-8.1-12.7-8.1h-.3c-.1-1-.2-2-.5-3-3.1-11.4-11.8-8.7-11.8-8.7l-27.4 1s-5-1.4-9.8 5.3c0 0-.9 1.3-1.3 4.5 0 0-12.3 1-24.6 23.8l29.5-1.1c0 .1.1.2.1.3l13.1-.8 38.3-1.5 7.4-11.7Z"/><path fill="#E1E1E1" d="M176.2 46.8 133.8 23l-26.2-6.4L86 50.2h-.3v.6s-2.9-5.4-12.8-4.3c-9.9 1-17.6 9.5-16.6 23.2S65.2 92 77.8 92c2.7 0 5.2-.6 7.5-1.8 1.3 5.5 4.2 11.2 10.3 15.2 4.7 3.1 10 5 15 6.1 0 0 .7 7.8-1.8 8.5l-.6 1.2s-1.8 6.1 4.2 10.4c5.2 3.8 8 6.8 8 6.8l2.7 2.3 2.1-1.8s11.6-6.4 12.9-14.9c0 0 .7-3.4-1.5-4.6-1.7-1.3-1.1-7.6-1.1-7.6 5.3-1.1 11-3 16.1-6.3 6-3.9 8.9-9.3 10.2-14.7h.4c2 .8 4.2 1.3 6.4 1.3 12.6 0 20.4-8.6 21.5-22.3 1-12.7-5.3-20.9-13.9-23Z"/><path fill="#fff" d="M106.2 58.1s-3.9 2.3-3 8.2c.9 5.9 7.5 5.9 7.5 5.9s8 .5 8.3-8c0 0 0-6.6-5.2-7.1M130.1 65.1c-2.2-7.4 2.8-10.2 2.8-10.2l7.4.4h2.2c2.7 2.2 2.9 5.2 2.9 5.2.3 8.6-7.6 8.7-7.6 8.7"/><path fill="#282828" d="M181.9 20.5c0-6.6-6.7-16.3-19-15.5-8.9.6-8.8 5.1-20.2.6 0 0-9.1-4.7-19-4.3-9.9.4-14.9 3.6-19.2 6-4.3 2.4-5.7 4.1-12 5.4-6.3 1.3-23.9 10.2-23 34.4l8.7-.6 7.1 3.7c7.8 0 12.8-12.7 12.8-12.7 18.3 5 25.8-9.5 25.8-9.5 3.5 5.2 11.4 13.5 24.7 11.2 2.2 4.3 7.6 12.8 15.8 12.9 11.1.1 15.3-8 15-16.1-.3-8.2 2.4-7.3 2.5-15.5Z"/><path stroke="#000" stroke-linecap="round" stroke-linejoin="round" stroke-miterlimit="10" stroke-width="2.5" d="M161.601 51.5c0 1.6-.1 4.4-.5 7.7-.2 1.9-.3 3.9-.2 5.9.1 2.2.3 4.9.7 6.6.8 3.3 5.5 23.6-9.9 33.599-7.9 5.2-17.2 6.9-24.3 7.4l-5.2.1c-7.4-.3-17.8-1.8-26.5-7.5-15.4-10-10.7-30.3-9.9-33.6.4-1.7.6-4.4.7-6.6.1-2 0-3.9-.2-5.9-.6-4.9-.5-9-.5-9"/><path stroke="#000" stroke-linecap="round" stroke-linejoin="round" stroke-miterlimit="10" stroke-width="2.5" d="M85.7 50.8s-2.9-5.4-12.8-4.3C63 47.6 55.3 56 56.3 69.7S65.2 92 77.8 92c2.7 0 5.2-.6 7.5-1.8"/><path stroke="#000" stroke-linecap="round" stroke-linejoin="round" stroke-miterlimit="10" stroke-width="2.5" d="M73 59.3s.4 9.7 12.7 12.3"/><path stroke="#000" stroke-linecap="round" stroke-linejoin="round" stroke-miterlimit="10" stroke-width="2.5" d="M72.3 76.7s3-6.5 7.3-7.3M147.4 36.7s5.9 15.3 17 15.4c11.1.1 15.3-8 15-16.1-.3-8.1 2.4-7.3 2.4-15.4 0-6.6-6.7-16.3-19-15.5-8.9.6-8.8 5.1-20.2.6 0 0-9.1-4.7-19-4.3-9.9.4-14.9 3.6-19.2 6-4.3 2.4-5.7 4.1-12 5.4-6.3 1.3-23.9 10.2-23 34.4"/><path stroke="#000" stroke-linecap="round" stroke-linejoin="round" stroke-miterlimit="10" stroke-width="2.5" d="M121.7 24.1s7.9 18.5 27 15.1"/><path stroke="#000" stroke-linecap="round" stroke-linejoin="round" stroke-miterlimit="10" stroke-width="2.5" d="M123.901 28s-7.6 14.6-25.8 9.5c0 0-5 12.7-12.8 12.7M176.201 46.8c8.7 2.1 15 10.2 14 22.7-1 13.7-8.9 22.3-21.5 22.3-2.3 0-4.4-.4-6.4-1.3"/><path stroke="#000" stroke-linecap="round" stroke-linejoin="round" stroke-miterlimit="10" stroke-width="2.5" d="M173.5 59.3s-.4 9.3-11.8 12.1"/><path stroke="#000" stroke-linecap="round" stroke-linejoin="round" stroke-miterlimit="10" stroke-width="2.5" d="M174.2 76.7s-3-6.5-7.3-7.3M125.7 42.3S122.5 63.5 98 56.9"/><path stroke="#000" stroke-linecap="round" stroke-linejoin="round" stroke-miterlimit="10" stroke-width="2.5" d="M149.8 52.8s-16.7 8-25.6-6M123.3 68.4c2.4-2.6 6.3-3.4 9.7-2.1 2.7 1 5.4 3.2 5.2 8.1-.6 9.3-11.4 7.2-11.4 7.2s-5.8-1.3-5.6-7.9c.1-2.4 1-4.1 2.1-5.3ZM106.2 58.1s-3.9 2.3-3 8.2c.9 5.9 7.5 5.9 7.5 5.9s8 .5 8.3-8c0 0 0-6.6-5.2-7.1"/><path fill="#000" d="M111.5 57.6s-2.8 2.8 0 6.7c2.1 2.9 6.9 1.9 7.4-.2.5-2-2-5.6-2-5.6l-1.9-1.2-3.5.3Z"/><path stroke="#000" stroke-linecap="round" stroke-linejoin="round" stroke-miterlimit="10" stroke-width="2.5" d="M137.7 69.2s8-.1 7.6-8.7c0 0-.1-3-2.9-5.2M132.9 54.9s-5 2.8-2.8 10.2"/><path fill="#000" d="M145.301 61.1c-.5 2-5.3 3.1-7.4.2-2.8-3.8 0-6.7 0-6.7l3.9 1.2 3.5 5.3Z"/><path stroke="#000" stroke-linecap="round" stroke-linejoin="round" stroke-miterlimit="10" stroke-width="2.5" d="M111 84.2s.4 7 7.4 8.8c8.3 2.1 12-2.5 12-2.5M159.9 83.6l5.8 2.1M149.801 73.7l4.2-3.6M141 99.2l3.7 3.199M126.4 108.6l3.5 5.2M103.601 99l4 5.2M90.9 91.2l-5.2 4.1M94.7 78.5l5 2.5M135.5 111.6s-.6 6.2 1.1 7.6M110.601 111.399s.7 7.8-1.8 8.5M120.2 112.699s-1.599 4.2-1.399 7.7c.2 3.4 3.1 5.7 3.1 5.7M116.9 151.7v-6.1h6.7s-1.4-6.9 2.8-7.2c4.2-.3 7.7 11.8 7.7 11.8"/><path stroke="#000" stroke-linecap="round" stroke-linejoin="round" stroke-miterlimit="10" stroke-width="2.5" d="M125.2 138.699s11.6-6.4 12.9-14.9c0 0 .7-3.4-1.5-4.6"/><path stroke="#000" stroke-linecap="round" stroke-linejoin="round" stroke-miterlimit="10" stroke-width="2.5" d="M136.101 118.5s8.6-2.7 11.8 8.7c3.1 11.4-8.3 22.7-8.3 22.7M123.101 145.6s.4-8-4.6-7.8c-5 .2-6.7 13.9-6.7 13.9"/><path stroke="#000" stroke-linecap="round" stroke-linejoin="round" stroke-miterlimit="10" stroke-width="2.5" d="M120.401 138.2s-2.8-3-8-6.8c-5.9-4.3-4.2-10.4-4.2-10.4"/><path stroke="#000" stroke-linecap="round" stroke-linejoin="round" stroke-miterlimit="10" stroke-width="2.5" d="M108.701 119.5s-5-1.4-9.8 5.3c0 0-5 7.1 3.7 27.5"/><path stroke="#000" stroke-linecap="round" stroke-linejoin="round" stroke-miterlimit="10" stroke-width="2.5" d="M97.6 129.3s-12.3 1-24.6 23.8M148.7 130.2s6.7-.5 12.7 8.1"/><path fill="#666" d="M70.9 301.8v27l62 13.2 47.7-20.1-1.3-17.3"/><path fill="#3A3A3A" d="M122.701 335.899c-18.1-1.7-22.4-5.3-30-14.2-7.6-8.8-16.3-8.5-24.8-8.5s-25-.5-23.9 21.6c1.1 22.1 14.3 21.8 14.3 21.8H190s13.3.3 14.3-21.8-15.4-21.6-23.9-21.6c-8.5 0-17.2-.3-24.8 8.5-7.6 8.8-11.9 12.5-30 14.2h-2.9Z"/><path stroke="#000" stroke-linecap="round" stroke-linejoin="round" stroke-miterlimit="10" stroke-width="2.5" d="M122.701 335.899c-18.1-1.7-22.4-5.3-30-14.2-7.6-8.8-16.3-8.5-24.8-8.5s-25-.5-23.9 21.6c1.1 22.1 14.3 21.8 14.3 21.8H190s13.3.3 14.3-21.8-15.4-21.6-23.9-21.6c-8.5 0-17.2-.3-24.8 8.5-7.6 8.8-11.9 12.5-30 14.2h-2.9ZM124.101 356.6v-46.1"/><path fill="#E1E1E1" d="M166.701 137.7s-2.1 1.8-7.7 1.3-16.2-.4-14.3 12.6l22.8-1.6-.8-12.3Z"/><path stroke="#000" stroke-linecap="round" stroke-linejoin="round" stroke-miterlimit="10" stroke-width="2.5" d="M166.701 137.7s-2.1 1.8-7.7 1.3-16.2-.4-14.3 12.6"/><path fill="#E1E1E1" d="M80.7 138.7s2.1 1.8 7.7 1.3 16.2-.4 14.3 12.6l-23-1.6 1-12.3Z"/><path stroke="#000" stroke-linecap="round" stroke-linejoin="round" stroke-miterlimit="10" stroke-width="2.5" d="M80.7 138.7s2.1 1.8 7.7 1.3 16.2-.4 14.3 12.6"/><path fill="#fff" d="M3 150.1s-2.1 14.1-1.8 28.5c.3 14.4 7.9 40.3 7.6 57.6-.3 17.3-8.5 68.2-3.2 80 17.6-6.2 97.6-5.8 113.8-4.4 0 0 72.6 2.6 95.8 2.4 23.2-.3 49.5-5.9 96-5.6 46.5.3 100.6 3.2 132.7 2.9 32-.3 141.1-6.5 174.9.9 0 0 4.5-29.1 0-65.6 0 0-.4-30.6.7-41.5 1.2-10.9 2.4-48.4-.4-55.2 0 0-26.8-1.2-45.2-1-18.4.2-55.1 2-88.5.9s-65.3-1.8-109.1 0-32.4-4.8-111.5 0c-37.7 2.3-58.7 2.2-70.3 1.4 0 0-21-3.3-31.4-3.2-10.4.1-53 6.9-80.6 3.4-27.3-3.5-60.3-5.8-79.5-1.5Z"/><path stroke="#000" stroke-linecap="round" stroke-linejoin="round" stroke-miterlimit="10" stroke-width="2.5" d="M3 150.1s-2.1 14.1-1.8 28.5c.3 14.4 7.9 40.3 7.6 57.6-.3 17.3-8.5 68.2-3.2 80 17.6-6.2 97.6-5.8 113.8-4.4 0 0 72.6 2.6 95.8 2.4 23.2-.3 49.5-5.9 96-5.6 46.5.3 100.6 3.2 132.7 2.9 32-.3 141.1-6.5 174.9.9 0 0 4.5-29.1 0-65.6 0 0-.4-30.6.7-41.5 1.2-10.9 2.4-48.4-.4-55.2 0 0-26.8-1.2-45.2-1-18.4.2-55.1 2-88.5.9s-65.3-1.8-109.1 0-32.4-4.8-111.5 0c-37.7 2.3-58.7 2.2-70.3 1.4 0 0-21-3.3-31.4-3.2-10.4.1-53 6.9-80.6 3.4-27.3-3.5-60.3-5.8-79.5-1.5Z"/><path fill="#E1E1E1" d="M71.2 132c-5.1-.3-6.4 3.1-6.4 3.1-1.7-2.4-4.3-4-8.4-3.6 0 0-5.6-.8-8.5 5.1 0 0-14.7-6.9-19.4 13.9 0 0-4.1 25.3 11.8 25.6 2.9 0 5.3-1.2 7.2-3.3 1.3 3.4 3.7 5.7 7.8 5.8 5.3.2 8.3-3.4 10-7.9v.2c1.6 1.1 3.7 1.5 5.6 1.4 8.6-.9 11.5-6.7 11.9-21.5.2-14.8-6.5-18.5-11.6-18.8Z"/><path stroke="#000" stroke-linecap="round" stroke-linejoin="round" stroke-miterlimit="10" stroke-width="2.5" d="M56.4 131.499s-10.1-1.4-10.2 13.6c-.1 15-3 33.1 9 33.6 8.4.4 11-9 11.8-16.2.5-4.4.5-10.9.6-14.8 0-7-1.3-17-11.2-16.2Z"/><path stroke="#000" stroke-linecap="round" stroke-linejoin="round" stroke-miterlimit="10" stroke-width="2.5" d="M47.9 136.6s-14.7-6.9-19.4 13.9c0 0-4.1 25.3 11.8 25.6 2.9 0 5.3-1.2 7.2-3.3M64.9 135.1s1.2-3.4 6.4-3.1c5.2.3 11.8 4 11.5 18.9-.3 14.9-3.3 20.7-11.9 21.5-1.9.2-4-.2-5.6-1.4"/><path fill="#E1E1E1" d="M176.2 131c5.1-.3 6.4 3.1 6.4 3.1 1.7-2.4 4.3-4 8.4-3.6 0 0 5.6-.8 8.5 5.1 0 0 14.7-6.9 19.4 13.9 0 0 4.1 25.3-11.8 25.6-2.9 0-5.3-1.2-7.2-3.3-1.3 3.4-3.7 5.7-7.8 5.8-5.3.2-8.3-3.4-10-7.9v.2c-1.6 1.1-3.7 1.5-5.6 1.4-8.6-.9-11.5-6.7-11.9-21.5-.2-14.8 6.5-18.5 11.6-18.8Z"/><path stroke="#000" stroke-linecap="round" stroke-linejoin="round" stroke-miterlimit="10" stroke-width="2.5" d="M191.001 130.499s10.1-1.4 10.2 13.6c.1 15 3 33.1-9 33.6-8.4.4-11-9-11.8-16.2-.5-4.4-.5-10.9-.6-14.8-.1-7 1.3-17 11.2-16.2Z"/><path stroke="#000" stroke-linecap="round" stroke-linejoin="round" stroke-miterlimit="10" stroke-width="2.5" d="M199.501 135.6s14.7-6.9 19.4 13.9c0 0 4.1 25.3-11.8 25.6-2.9 0-5.3-1.2-7.2-3.3M182.501 134.1s-1.2-3.4-6.4-3.1c-5.1.3-11.8 4-11.5 18.9.3 14.9 3.3 20.7 11.9 21.5 1.9.2 4-.2 5.6-1.4"/><path fill="#E1E1E1" d="M542.6 138.8s-7.5-3.5-15.8.9c0 0-10.9-2.2-16.1 8-2 4-2.5 8.6-1.6 13.1 1 4.9 3.7 10.5 11 8.1 1.9 2 4.2 3.2 6.7 3.4 5.5.3 7.3-2 7.3-2 4.8 2.1 9.7-1.2 9.7-1.2 4.6-3.5 1.9-8.2 1.8-13.5-.2-6.3 5.4-5.8 5.4-5.8l4.1-.1 1.9-10.1c-1.8-1.1-7-3.3-14.4-.8Z"/><path stroke="#000" stroke-linecap="round" stroke-linejoin="round" stroke-miterlimit="10" stroke-width="2.5" d="M542.6 138.8s-8.1-3.8-17 1.5c-4.6 2.7-9.5 10.1-9.4 17.9.1 8.3 5 13.7 10.5 14 5.5.3 7.3-2 7.3-2"/><path stroke="#000" stroke-linecap="round" stroke-linejoin="round" stroke-miterlimit="10" stroke-width="2.5" d="M550.9 149.7s-5.6-.4-5.4 5.8c.2 5.3 2.8 10.1-1.8 13.5 0 0-7.1 4.8-12.7-.9s-4.9-21 6.9-27.3c10-5.4 16.9-2.5 19-1.4l.4.3-.4.5c-3.3 3.9-1.4 9.3-1.4 9.3l-4.6.2ZM526.7 139.6s-10.9-2.2-16.1 8c-2 4-2.5 8.6-1.6 13.1 1 4.9 3.7 10.5 11 8.1"/><path fill="#E1E1E1" d="m623.6 226.2-.4.6-.3-2.6s-2 3.3-11.1 3.4c-9.1.1-14-.9-15 7.6-.3 2.1.4 3.7 1.6 4.8-3.7 1.5-4.2 6-4.2 6s-1.5 7.8 9.1 8.3l-.3.4c-.6 3.6 1.4 5.6 3.5 6.6 2.1 1.1 4.4 1.3 6.7.8 7.9-1.5 18.6-8.9 18.6-8.9l-8.2-27Zm-12.5 17h.2v.1l-.2-.1Z"/><path stroke="#000" stroke-linecap="round" stroke-linejoin="round" stroke-miterlimit="10" stroke-width="2.5" d="M631.8 253.2s-10.6 7.3-18.6 8.9c-2.3.4-4.6.2-6.7-.8-2-1-4.1-3-3.5-6.6M625.6 247s-7.5 6.7-20.3 7.2-11.1-8.3-11.1-8.3.5-4.4 4.2-5.9"/><path stroke="#000" stroke-linecap="round" stroke-linejoin="round" stroke-miterlimit="10" stroke-width="2.5" d="M622.9 224.2s-2 3.3-11.1 3.4c-9.1.1-14.3.2-15 7.6-.8 8 11.7 8.2 11.7 8.2s9.2.3 15.9-4.4M143.4 66.7s3-.4 4.4 2.1M104.5 69.5s-2.8.3-3.7 2.7"/></g><defs><clipPath id="a"><path fill="#fff" d="M0 0h680.2v357.9H0z"/></clipPath></defs></svg>