<svg xmlns="http://www.w3.org/2000/svg" xml:space="preserve" id="Слой_1" x="0" y="0" style="enable-background:new 0 0 35 35" version="1.1" viewBox="0 0 35 35"><style>.st0{fill:none;stroke:#000;stroke-width:2.5;stroke-linecap:round;stroke-miterlimit:10}</style><path d="m3.7 13 8.8-10.8c.6-.7 1.5-1 2.4-.7L29 5.8c.8.2 1.4.9 1.5 1.7l2.2 13c.1.8-.1 1.6-.6 2.3l-8.6 10c-.7.8-1.8 1.2-2.9.9l-13.8-4c-.8-.2-1.3-.9-1.5-1.6l-2-13.5c0-.7.1-1.2.4-1.6z" class="st0"/><path d="M6.7 14.6 19.5 18l8-9.1M21.3 30.4 19.5 18" class="st0"/><ellipse cx="15.8" cy="9.9" rx="1.8" ry="1.5" transform="scale(.99995) rotate(-4.9 15.788 9.859)"/><ellipse cx="12.5" cy="23.4" rx="1.6" ry="1.8" transform="rotate(-67.4 12.51 23.42)"/><ellipse cx="28.6" cy="21.1" rx="1.8" ry="1.5" transform="rotate(-50.676 28.612 21.057)"/><ellipse cx="21.8" cy="8.4" rx="1.8" ry="1.5" transform="scale(.99995) rotate(-4.9 21.816 8.403)"/><ellipse cx="9.7" cy="11.5" rx="1.8" ry="1.5" transform="matrix(.9963 -.08542 .08542 .9963 -.949 .871)"/><ellipse cx="24.8" cy="25.2" rx="1.8" ry="1.5" transform="rotate(-50.676 24.82 25.238)"/><ellipse cx="24" cy="18.8" rx="1.8" ry="1.5" transform="rotate(-50.676 23.999 18.753)"/><ellipse cx="27.4" cy="14.6" rx="1.8" ry="1.5" transform="rotate(-50.676 27.366 14.64)"/></svg>