<svg id="Слой_1" data-name="Слой 1" xmlns="http://www.w3.org/2000/svg" viewBox="0 0 35 35"><defs><style>.cls-1{fill:none;stroke:#000;stroke-linecap:round;stroke-miterlimit:10;stroke-width:1.3px}</style></defs><path class="cls-1" d="m3.45 13.3 8.63-10.67a2.18 2.18 0 0 1 2.33-.71l13.87 4.27a2.13 2.13 0 0 1 1.47 1.67l2.17 12.77a2.74 2.74 0 0 1-.62 2.22l-8.49 9.85a2.71 2.71 0 0 1-2.81.84L6.43 29.62A2 2 0 0 1 5 28L3.06 14.69a1.8 1.8 0 0 1 .39-1.39Z"/><path class="cls-1" d="m5.24 14.55 13.74 3.69 8.72-9.89m-6.71 23.04-2.01-13.15"/><ellipse class="cls-1" cx="13.95" cy="5.42" rx="1.4" ry="1.14" transform="rotate(-4.9 13.935 5.396)"/><ellipse class="cls-1" cx="7.57" cy="19.25" rx="1.14" ry="1.4" transform="rotate(-80.09 7.576 19.25)"/><ellipse class="cls-1" cx="16.11" cy="21.17" rx="1.14" ry="1.4" transform="rotate(-80.09 16.11 21.174)"/><ellipse class="cls-1" cx="8.41" cy="26.48" rx="1.14" ry="1.4" transform="rotate(-80.09 8.408 26.486)"/><ellipse class="cls-1" cx="16.57" cy="28.41" rx="1.14" ry="1.4" transform="rotate(-80.09 16.578 28.409)"/><ellipse class="cls-1" cx="25.98" cy="20.06" rx="1.4" ry="1.14" transform="rotate(-50.68 25.983 20.06)"/><ellipse class="cls-1" cx="18.63" cy="6.72" rx="1.4" ry="1.14" transform="rotate(-4.9 18.676 6.77)"/><ellipse class="cls-1" cx="23.48" cy="8.16" rx="1.4" ry="1.14" transform="rotate(-4.9 23.417 8.143)"/><ellipse class="cls-1" cx="8.89" cy="11.61" rx="1.4" ry="1.14" transform="rotate(-4.9 8.869 11.618)"/><ellipse class="cls-1" cx="13.57" cy="12.91" rx="1.4" ry="1.14" transform="matrix(1 -.09 .09 1 -1.05 1.21)"/><ellipse class="cls-1" cx="18.42" cy="14.35" rx="1.4" ry="1.14" transform="rotate(-4.9 18.468 14.37)"/></svg>