<svg xmlns="http://www.w3.org/2000/svg" xml:space="preserve" id="Слой_1" x="0" y="0" style="enable-background:new 0 0 35 35" version="1.1" viewBox="0 0 35 35"><style>.st0{fill:none;stroke:#000;stroke-width:2.5;stroke-linecap:round;stroke-miterlimit:10}</style><path d="m23.5 6 1.8-.5c1.8-.5 3.7.4 4.3 2.2l3.7 11.4c.6 1.8-.4 3.7-2.3 4.2 0 0 0 0 0 0L9.8 29.8c-1.8.5-3.8-.5-4.3-2.2L1.7 16.2c-.6-1.8.4-3.7 2.3-4.2 0 0 0 0 0 0l15-4.6L23.5 6z" class="st0"/><circle cx="17.7" cy="17.6" r="6.5" class="st0"/><path d="m10.4 17.1-.9-.4c-.6-.2-.8-1-.6-1.6l.5-1.3c.3-.6.9-1 1.5-.7l.9.4M4.3 11.5l-.4-1.3c-.3-.6 0-1.1.6-1.3l2.4-.8c.6-.2 1.2.1 1.4.6l.5 1.4"/><path d="M20.3 19.1c-.5 1-1.6 1.6-2.8 1.5-1.7-.1-3-1.5-2.9-3.2" class="st0"/></svg>