<svg data-name="Слой 1" xmlns="http://www.w3.org/2000/svg" viewBox="0 0 256 256"><path d="M72.54 187.34c-8.06 9-13.06 18.39-14.37 29.63-.35 3-.66 6-.93 9.06-.45 4.88-4.79 8-10.09 7.69a8.87 8.87 0 0 1-8.6-8.9 61.85 61.85 0 0 1 6.32-30.16c2.65-5.34 5.13-10.76 9.13-15.27 1.53-1.73 1.6-2.25-.75-3.27-7.82-3.4-15.42-7.29-21-14a55.83 55.83 0 0 1-12.88-31.83C18 114 26.61 101.75 35.43 89.62a44.31 44.31 0 0 1 24.2-16.77 37 37 0 0 1 13.14-1.35c2.68.2 3.87-.83 4.51-3.32A62.46 62.46 0 0 1 95.7 37.27c8.65-8 19.15-12.21 30.71-14.8 13.21-2.95 25.45 0 36.88 5.34 16.49 7.74 25.75 21.27 26.09 40 .06 3.29.81 4.88 4.43 5.56 16.26 3.08 28.35 12.35 36.95 26.26 5.62 9.09 6.2 19.19 4.84 29.41-2.44 18.37-13.4 30.29-29.45 38.36-7.77 3.9-15.57 7.4-24.44 7.61-2 0-2.05 1.38-2.33 2.82-1.34 6.81-2.4 13.67-5.93 19.88-8.25 14.54-19.68 25-36.45 28.59-21.09 4.47-39.5-.29-54.15-16.71-5.43-6.09-8.52-13.43-10.31-22.25Zm98-112.07c0-2.16.17-4.34 0-6.48-.61-6.39-1.57-13.13-6.58-17.38-12.22-10.38-26.21-13.63-41.72-8-14 5.06-22.16 15.51-26.46 29.3-.87 2.81-.64 5.34 2.66 7.24a58.26 58.26 0 0 1 25.68 29.52c1.23 3.06 3.08 4.61 6.33 3.93 3-.62 6.12-.29 9.05-.93 14.97-3.3 33.29-18.11 31.03-37.2ZM38.34 127c-.34 2.22.28 4.43.71 6.67 3.5 18 18.1 26.26 34.29 27 1.88.09 2.7-.85 3.66-2.52 7.73-13.31 16.2-26 29.35-34.79 1.64-1.08 2.27-2 1.42-4-4.28-10-10.45-18.4-20.09-24-12-7-25.09-7.34-35.21 3.69C48 104 45 109.59 41.76 115.16c-2.17 3.71-3.76 7.42-3.42 11.84Zm84.22 81.68a31.59 31.59 0 0 0 11.64-1.34c15.7-5.15 24.14-16.38 26.38-32.52.3-2.12-.5-3.46-2.59-4.49-14.56-7.17-27.09-16.83-36-30.64-1.31-2-2.27-2.41-4.36-.95-10.59 7.38-18 17.34-23.55 28.77a28.41 28.41 0 0 0-2.63 15.16c1.89 17.33 18.29 26.61 31.11 26.05Zm17.59-76.56a64.88 64.88 0 0 0 22.44 19.2c8.94 4.8 18.62 6.6 28.51 2a78.08 78.08 0 0 0 16.67-9.85c8.17-6.57 11.82-22.59 7.4-32.08s-11.85-15.49-21.84-18.57c-4.91-1.51-5.08-1.44-7.06 3.18-8.72 20.39-25.07 31-46.12 36.16Z"/></svg>