<svg data-name="Слой 1" xmlns="http://www.w3.org/2000/svg" viewBox="0 0 256 256"><path d="M167.92 68.24c.81 10.72-3.32 21.22-5.91 32-4.07 17-14 30.75-23.7 44.71-11.33 16.35-24.8 30.42-42.48 40a51.1 51.1 0 0 1-8 3.41c-2.37.8-2.71 1.93-2 4.25A28.36 28.36 0 0 0 98.75 209c14.74 8.79 30.4 10.85 46.71 4.88 7.48-2.73 13.56-7.78 19.43-13 15.71-14 27.84-30.89 37.5-49.46A212 212 0 0 0 217 116.28c2.47-7.92 9.63-10.88 15.49-6.29 3.69 2.9 4.35 7 3 11-6.06 18-13.16 35.6-23.31 51.85-7.41 11.86-15.31 23.34-25.2 33.21-12.51 12.47-25.42 24.71-43.58 28.46-23.18 4.79-44.36-.06-62.59-15.22a43.37 43.37 0 0 1-14-23.06c-.62-2.45-1.42-3.74-4.26-4.27a52.2 52.2 0 0 1-27-13.87c-8.06-7.76-11.56-17.71-13.07-28.42C20 132.43 23 115.6 27.26 99 32.18 80.12 42 63.58 52.7 47.48a116.8 116.8 0 0 1 16-19.76c5.89-5.7 14.22-3.29 16.38 4.57A8 8 0 0 1 83 40a199.92 199.92 0 0 0-18.8 24.76C53.32 81.7 45 99.63 42.26 119.67c-1.49 11.07-3.22 22.24.3 33.49 2.93 9.34 9.09 14.88 17.71 18.37 1.66.67 2.87.47 2.41-1.74-1.68-8.1-.43-16.2.26-24.23.71-8.29.82-16.62 2.81-24.84 5.15-21.27 13.36-41.08 26-59A84.31 84.31 0 0 1 119 37.28c11.41-6.56 23.68-8.88 35.45-.58a30.62 30.62 0 0 1 13.52 25.13c.03 1.91-.05 3.81-.05 6.41Zm-18.87-.66c0-1.78.1-3.57 0-5.34-.42-6.17-5.43-11.88-10.51-11.5a22 22 0 0 0-10.76 3.32 86.07 86.07 0 0 0-30.65 35.56c-6.52 13.7-12.32 27.62-13.43 43.2-.8 11.43-3.34 22.72-2.07 34.28.2 1.83 0 3.57 2.66 2.1 7.33-4 14.72-8.1 20.74-14 11.69-11.4 20.63-25 29.29-38.69 9.41-14.84 12.68-31.75 14.73-48.93Z"/></svg>