<svg data-name="Слой 1" xmlns="http://www.w3.org/2000/svg" viewBox="0 0 256 256"><path d="M44.37 91.09c-3.48 14.68-6.93 28.78-8.57 43.27q-1.8 16.24-2.2 32.55c-.14 5.75-3.49 9.37-9 9.52a9.52 9.52 0 0 1-9.79-9.49c-.23-9.26.6-18.47 1.42-27.68a261.47 261.47 0 0 1 6.18-38.12c2.75-11.44 4.87-23 10.68-33.53 2.88-5.21 7.14-8.31 13.08-8.35s9.43 3.89 11.7 8.89c3.65 8 4.85 16.75 6.93 25.21 3.17 12.87 5.85 25.86 8.51 37.79 1.48-16.26 4.26-33.36 7.44-50.41A88.45 88.45 0 0 1 90 53.6c7-12.49 24.55-14.57 32.5-10.17a22.08 22.08 0 0 1 8.1 7.87c6.08 9.8 8.48 20.82 9.76 32.05 1.74 15.32 3.2 30.67 4.53 46 .79 9.2 1.05 18.44 1.65 27.66.46 7.06 1.06 14.12 1.64 21.18a8.11 8.11 0 0 0 1 2.05 90.56 90.56 0 0 0 13.14-17.82 6 6 0 0 1 .72-1.33c6.19-6.26 5.33-12.56 1.48-20-4.87-9.39-6.47-20-7.63-30.42-2.41-21.58-1.09-43 5.89-63.76C166.6 35.62 173 26.23 184.42 21.4c14.06-5.93 30-3.44 37.47 14 4.09 9.57 3.19 19 2.88 28.74-.47 14.29-5.67 27.43-9.85 40.81-2 6.31-5 12.17-8.13 18-4.7 8.84-9.52 17.61-14.32 26.39a3.66 3.66 0 0 0 .15 4.25c6.5 9.2 15.61 13.71 26.65 14.66 2 .18 4.06 0 6.1 0 5.87 0 9.56 3.4 9.72 8.85a9.9 9.9 0 0 1-9 10c-16.6 1.28-31.05-3.63-42.95-15.37-2.24-2.21-3.09-1.92-4.57.73-4.76 8.57-10.89 16.13-17.46 23.4a109 109 0 0 1-9.94 9.88c-4.45 3.81-9 3.19-13.81 1-4-1.86-5.5-5.13-5.88-9.43-.71-8.17-1.91-16.3-2.73-24.46-.72-7.17-1.42-14.36-1.73-21.55-.57-13.53-1.73-27-3-40.48-1-11.2-1.72-22.43-4-33.47-.94-4.57-1.94-9.15-4.25-13.34s-6.2-4.73-9.07-.64c-3 4.3-4.68 9.29-5.91 14.34-2.87 11.8-4.23 23.87-6.21 35.84-3.6 21.77-3.49 43.73-2.81 65.63.42 14 .31 27.93.54 41.89.09 6.11-3.45 10.48-8.68 11.08-5.48.63-9.78-2.89-11-9.1-4.29-21.3-8.38-42.65-12.88-63.9-4.64-21.9-9.67-43.71-14.54-65.55-.13-.67-.4-1.25-.84-2.51Zm136.26 39.23c2.59-2.45 3.19-5.67 4.72-8.32 3.4-5.92 7.07-11.74 9.52-18.14 5.47-14.3 10.54-28.73 11.32-44.21.31-6 .92-12.12-2.54-17.75-2.6-4.23-4.49-5.21-9.37-3.83-6.61 1.88-10.05 6.8-12.63 12.71-5.07 11.59-5.66 24-6.71 36.32-1.24 14.6 1.36 28.9 5.69 43.22Z"/></svg>