<svg data-name="Слой 1" xmlns="http://www.w3.org/2000/svg" viewBox="0 0 256 256"><path d="M160.25 67.05c-10.67.78-20.74 1.94-30.84 2.12A156.23 156.23 0 0 1 104 67.65c-7.13-1-14.22-2.38-21.3-3.68a15.48 15.48 0 0 1-8.14-3.83c-3.62-3.45-4.53-7.93-2.3-11.65 2.64-4.39 7.2-5.79 12.24-4.08C92.25 47 100.34 48 108.36 48.9c17.72 2 35.4.48 53.08-1.27 12.94-1.28 25.53-3.48 37.6-8.49 6.32-2.63 12.11-6.26 18.48-8.83 6-2.43 11.24.41 13.25 4.53 2.32 4.74.13 10.16-5.34 12.9-16.42 8.2-30.61 19.8-45.89 29.74-2.23 1.45-1.25 2.69-.41 4.06 2.45 4 4.41 8.23 6.49 12.42 4.77 9.59 6.35 19.94 8.14 30.27 3.42 19.66.62 38.74-4.77 57.71-3.51 12.34-11.18 22.06-19 31.65-2.62 3.21-6.23 6.49-11.54 4.71-7.4-2.47-9.65-10.27-4.31-16 2.79-3 5.27-6.14 7.8-9.32 8.12-10.23 11-22.38 12.93-34.82 2.51-16.1.86-32-3.24-47.66A69.83 69.83 0 0 0 164 93.23c-1.43-2.44-2.9-3.35-5.92-1.25-15.15 10.61-30.48 21-45.85 31.24-2.67 1.79-3.28 3.57-2.35 6.57a82.77 82.77 0 0 1 3.75 30c-1.17 19.44-6.58 37.28-20 52.07-2 2.25-3.9 4.67-6.11 6.76a9.44 9.44 0 0 1-13 0c-3.9-3.84-4.14-9.22-.44-13.24 5.67-6.17 11.21-12.44 14.59-20.23a69.8 69.8 0 0 0 5.64-35.53 97.91 97.91 0 0 0-2.06-12.55c-4.82 3.2-9.52 6.24-14.14 9.39C65.03 155.39 52 164.4 38.89 173.3c-4.62 3.14-10.05 2.79-13.28-.57-3-3.12-3.32-8.58-.81-12.35a14.6 14.6 0 0 1 4.2-3.66q40.85-27.78 81.77-55.46 24.21-16.44 48.34-33a10.24 10.24 0 0 0 1.14-1.21Z"/></svg>