<svg data-name="Слой 1" xmlns="http://www.w3.org/2000/svg" viewBox="0 0 256 256"><path d="M179.84 216.82c-20 .4-37.26-3.95-52.25-15.56-1.68-1.3-3-.62-4.43.36-7.25 4.87-14.26 10.17-21.84 14.46-11.67 6.6-23.21 14-36.71 16.15-8.78 1.4-18 2.35-26.1-3.34-7.75-5.46-11.55-13.18-12.57-22.45-1.73-15.78 3.36-30.19 9-44.47 4.8-12.19 11.22-23.54 17.95-34.73.65-1.09 1.13-2.29 1.85-3.32 1.52-2.15.89-3.64-1.13-5a70.23 70.23 0 0 1-18.36-18.54c-7.4-10.79-12.14-22.83-11.41-36 1.12-20.41 10.45-35.31 30-42.65 19.11-7.2 41.09 1.31 46.71 24.93 3.79 15.89.74 30.86-5.56 45.49a111.51 111.51 0 0 1-10.3 19c-1.59 2.3-1.51 3.77 1.54 5a144.12 144.12 0 0 0 26.28 8.64c5.16 1.07 8.1 4.26 8.41 9 .24 3.63-2.57 8.22-6.08 9.3-4.17 1.28-8.27.11-12.32-1a182.39 182.39 0 0 1-27.09-9.87c-1.62-.72-2.86-1.19-4.08.91-9.3 16-18.26 32.16-23.65 50.06a60.23 60.23 0 0 0-2.81 20.94c.34 6.15 4.12 9.66 10.06 9.84 8.76.26 16.27-3.4 23.7-7.27 26.55-13.81 49.85-32.45 73.87-50 10.33-7.54 20.74-15 30.77-22.9 11.46-9.06 21.82-19.35 31.82-30 2.89-3.06 5.6-6.8 10.89-6.6 4.11.14 6.65 2.12 8.4 5.48 1.85 3.53 1.44 7.2-1.22 9.88-9.2 9.3-18.17 18.83-28 27.56-18.94 16.93-40.28 30.69-60.42 46-2.58 2-1.72 2.83.25 4a57.63 57.63 0 0 0 20.74 7.06c14.49 2.16 28.54.14 42.31-4.34a65.26 65.26 0 0 0 13.61-6.72c4.58-2.8 9.13-2.75 12.34.12a9.36 9.36 0 0 1-.56 14.81c-11.05 7.86-23.55 12.08-36.84 14.28-5.99.99-11.99 1.98-16.77 1.49ZM65.31 38.32a18.75 18.75 0 0 0-2.56.5c-16 4.69-21.76 18.24-19 34.06 2 11.58 8.74 20.82 17.94 28.17 4.62 3.69 4.75 3.8 7.58-1.14 8-14 15.34-28.15 13.23-45.27-1.19-9.94-7.09-16.42-17.19-16.32Z"/></svg>