<svg data-name="Слой 1" xmlns="http://www.w3.org/2000/svg" viewBox="0 0 256 256"><path d="M130.32 161.63c-2.69 4.8-4.8 9.23-7.55 13.29-7.72 11.38-18.24 19.67-29.78 26.71-12.79 7.81-26 14.67-41 17.61a57.56 57.56 0 0 1-12.83 1.24 36.49 36.49 0 0 0-8.32.56c-6.69 1.36-12.45-5.2-11-11.62 2.1-9.35 2.91-19 6.18-28.09 7.86-21.91 21.09-39.57 41.39-51.22 11.07-6.35 23.57-9.09 36-11.69a43.36 43.36 0 0 1 12.12-.67c3.84.28 4.89-1.25 4.6-4.81-1.36-16.62 3-32 11.13-46.25 11.91-20.88 28.63-35.51 53.41-39.18a99.39 99.39 0 0 1 27.23-.6c6 .76 13.1 9.2 12.4 15.3-1.15 10-2.4 20.09-4.81 29.92-2.95 12-9.57 22.28-16.79 32.1-5.8 7.88-12.33 15.18-20.59 20.62-10.79 7.15-22.24 12.69-35.51 13.15-2.4.09-3 .63-2.43 3.17 3.1 14.68 10.25 27.29 20.27 38.12 7.61 8.23 17.77 13 28.16 16.89 11.88 4.45 23.88 8.5 36.92 7.79 4.37-.23 8.51 4.53 8.65 9a9.83 9.83 0 0 1-9 9.65 74.92 74.92 0 0 1-26.33-2.88c-13.71-4.25-27.17-9-39.33-16.93a75.53 75.53 0 0 1-23.08-23.22c-3.56-5.59-6.64-11.52-10.11-17.96Zm59.83-73.14c9.79-12 12.71-26.13 14-40.78.19-2.09-1-1.94-2.29-2-5.58-.13-11.21-.32-16.67.88a50.44 50.44 0 0 0-18.46 7.66c-1.08.76-2.2 1.5-.47 2.84 3.23 2.52 5.33 6.11 8.27 8.89 6.76 6.39 11.66 14.02 15.62 22.51Zm-77.2 48A120.05 120.05 0 0 0 79 145.63c-2.41 1.06-.78 1.94 0 2.66 6.34 5.64 10.69 12.78 15.19 19.83s4.68 6.86 9.85.15c6.6-8.58 10.79-18.23 13.75-28.53.66-2.28.46-3.45-2.21-3.22-.85.07-1.74.01-2.58.01Zm32.34-55.1c-5.79 11.61-6.94 23.52-6.29 35.8.09 2 1.06 2.07 2.7 2.1 10.86.21 20.14-4.24 29.07-9.72 1.63-1 3.39-2 4.14-3.56-13.05-4.5-21.74-13.75-29.62-24.58ZM76.69 188.9a86.29 86.29 0 0 1-21.86-19.6c-.89-1.1-1.48-.58-2 .3-5.43 9.31-10.15 18.89-11.83 29.71-.32 2 .1 2 1.87 1.85 12.21-.8 22.75-6.09 33.82-12.26Z"/></svg>