<svg data-name="Слой 1" xmlns="http://www.w3.org/2000/svg" viewBox="0 0 256 256"><path d="M194.3 230.14c-15.67-1-31.35-2.07-45.76-9.26a109.51 109.51 0 0 1-10.77-6.41c-2.15-1.39-4.07-1.72-6.31-.31-9 5.65-19.23 7.82-29.31 10.13-4.86 1.12-10.16 1.58-15.35-.11-5.52-1.8-11.43-1.74-17.13-3a53.08 53.08 0 0 1-25.55-14.1c-14.22-13.66-20.55-30.62-19.34-50 .9-14.47 3.88-28.63 12.68-40.8 3-4.1 5.95-8.25 9.71-11.67 2.17-2 2.18-3.45.56-5.77-7.3-10.47-11.19-22.34-13.62-34.72-.67-3.42-1.26-7.1 1.23-10.25 2.66-3.36 6.29-4.18 10.27-3.4 3.29.64 6.32 4.85 7 8.71 1.85 10.3 5 20.13 10.83 29 1.26 1.9 2.42 2.45 4.57 1.17 8.89-5.28 19-5.6 28.87-7.05 7.8-1.15 15.37-.07 22.93 1.58 2.4.53 3.51-.32 4.63-2.47 7-13.42 10.81-27.77 13.12-42.62a52.54 52.54 0 0 0 .81-7.53c.06-5.8 5-10.38 10.32-9.89s9.52 6.49 8.81 12.12c-1.6 12.71-3.85 25.25-8 37.41a104.74 104.74 0 0 1-7.44 17.45c-1 1.78-1.26 2.94 1 4.19A40.23 40.23 0 0 1 157 104.62c1.24 1.78 2.59 1.91 4.52.85 13.95-7.62 29.17-11.43 44.58-14.6 5.58-1.15 11.1 2.13 12.07 7.13 1.19 6.17-1.91 10.25-8.38 11.56-13.54 2.76-26.92 6-39.3 12.57-2.47 1.3-3.19 2.51-2.55 5.23 4.75 19.88 2.57 39-7.13 57a90.24 90.24 0 0 1-7.92 12c-2.11 2.78-2.12 4 1.27 5.77a66.2 66.2 0 0 0 22.63 7.24c10.17 1.28 20.3 2.88 30.56.28 5.47-1.39 10.48-3.73 15.54-6 7-3.2 12.78-.9 14.76 5.93a9.15 9.15 0 0 1-5.06 10.73c-12.05 6.01-24.54 10.31-38.29 9.83Zm-150-69.63a35.37 35.37 0 0 0 2.1 16c4.92 13 13.41 22.15 27 25.95 4.26 1.19 8.82 1.25 13.05 2.32 11.69 3 21.87-1.56 32.26-5.46 1.74-.65 2-1.77 1.08-3.26-6.71-10.76-7.11-22.56-4.89-34.46 3.24-17.39 11.19-32.22 25.79-42.85 1.91-1.38 1.42-2.38.44-3.6a26.9 26.9 0 0 0-9-6.87c-1.19-.61-1.86-.27-2.83.81a107.61 107.61 0 0 1-9.33 9.53c-10.94 9.65-23.64 12.6-37.77 9.17-7-1.7-13.12-5.32-18.74-9.75-1.2-.95-2.12-1.36-3.17 0-4.14 5.41-9.2 10.21-11.54 16.84-2.88 8.35-5.35 16.85-4.43 25.63Zm106.29-25.41c-1.42 1.15-1.93 1.5-2.37 1.93-8.28 7.93-12.58 17.84-14.7 28.93a32.59 32.59 0 0 0 1.5 18.21c.87 2.24 1.73 2.71 3.12.35 1.29-2.17 2.69-4.28 4.08-6.39 8.56-12.9 10.19-27.13 8.37-43.03Zm-40.49-33.65c-10.93-1.59-20.95 1.08-31.07 3.81 9.57 7.46 23.16 5.83 31.07-3.81Z"/></svg>